{"glyphs":{"0":{"ha":743,"x_min":47,"x_max":693,"o":"m 421 981 q 613 888 532 981 q 693 593 693 794 q 635 249 693 382 q 492 54 578 117 q 317 -8 406 -8 q 126 83 206 -8 q 47 374 47 175 q 104 720 47 586 q 247 917 161 854 q 421 981 333 981 m 410 881 q 301 832 358 881 q 205 673 244 783 q 165 375 165 563 q 215 156 165 219 q 328 92 264 92 q 437 140 379 92 q 535 297 494 188 q 575 590 575 406 q 525 815 575 749 q 410 881 475 881 z "},"1":{"ha":743,"x_min":11,"x_max":635,"o":"m 453 975 q 481 967 469 975 q 493 946 493 958 l 404 100 l 611 100 q 635 63 635 100 q 630 26 635 51 q 600 0 625 0 l 35 0 q 11 38 11 0 q 16 74 11 49 q 46 100 21 100 l 288 100 l 367 849 l 117 807 q 99 826 104 807 q 94 863 94 844 q 100 891 94 882 q 124 904 106 900 l 453 975 z "},"2":{"ha":743,"x_min":31,"x_max":676,"o":"m 404 981 q 603 924 531 981 q 676 772 676 867 q 651 639 676 697 q 564 514 625 581 l 189 100 l 589 100 q 613 63 613 100 q 608 26 613 51 q 578 0 603 0 l 58 0 q 39 26 47 0 q 31 72 31 53 q 33 85 31 82 l 463 560 q 533 663 511 614 q 556 754 556 713 q 513 847 556 813 q 396 881 471 881 q 250 845 301 881 q 181 810 199 810 q 156 835 169 810 q 143 876 143 860 q 190 929 143 906 q 299 967 238 953 q 404 981 361 981 z "},"3":{"ha":743,"x_min":56,"x_max":646,"o":"m 390 981 q 576 928 506 981 q 646 769 646 875 q 597 624 646 681 q 482 543 549 568 l 481 538 q 583 467 536 522 q 631 317 631 411 q 574 126 631 197 q 438 23 518 54 q 289 -8 358 -8 q 213 -3 269 -8 q 106 16 157 1 q 56 61 56 31 q 63 130 56 117 q 76 143 69 143 q 138 117 83 143 q 289 92 193 92 q 385 110 333 92 q 473 178 436 129 q 510 317 510 228 q 458 435 510 403 q 319 467 406 467 l 272 467 q 249 504 249 467 q 253 540 249 515 q 283 565 258 565 l 324 565 q 445 601 400 565 q 509 684 490 638 q 528 761 528 731 q 498 840 528 800 q 376 881 468 881 q 236 858 282 881 q 172 835 190 835 q 147 862 161 835 q 133 906 133 889 q 180 944 133 926 q 287 971 226 961 q 390 981 347 981 z "},"4":{"ha":743,"x_min":6,"x_max":697,"o":"m 604 975 q 643 944 643 975 l 579 332 l 674 332 q 697 294 697 332 q 692 258 697 283 q 663 232 688 232 l 568 232 l 547 28 q 503 -3 543 -3 l 471 -3 q 432 28 432 -3 l 453 232 l 31 232 q 13 253 19 232 q 6 294 6 275 q 10 318 6 314 l 533 956 q 554 970 542 965 q 582 975 567 975 l 604 975 m 504 776 l 146 332 l 464 332 l 510 774 l 504 776 z "},"5":{"ha":743,"x_min":58,"x_max":646,"o":"m 622 972 q 646 935 646 972 q 641 898 646 924 q 611 872 636 872 l 308 872 l 260 586 l 332 586 q 474 563 403 586 q 592 485 544 540 q 639 335 639 431 q 581 123 639 197 q 437 20 522 49 q 272 -8 351 -8 q 201 -3 253 -8 q 104 16 150 1 q 58 61 58 31 q 65 130 58 117 q 79 143 72 143 q 140 117 86 143 q 282 92 193 92 q 442 147 365 92 q 519 322 519 203 q 460 444 519 403 q 289 486 401 486 l 171 486 q 135 517 135 486 q 138 538 135 519 q 155 642 140 556 q 201 931 169 728 q 251 972 207 972 l 622 972 z "},"6":{"ha":743,"x_min":51,"x_max":646,"o":"m 574 975 q 603 947 594 975 q 611 904 611 919 q 599 886 611 892 q 356 731 450 828 q 217 517 263 633 q 298 549 251 536 q 408 563 344 563 q 530 533 476 563 q 615 448 583 503 q 646 318 646 393 q 600 147 646 219 q 478 33 554 74 q 314 -7 403 -7 q 117 67 182 -7 q 51 274 51 140 q 95 519 51 408 q 207 714 139 629 q 349 857 275 799 q 483 945 422 915 q 574 975 544 975 m 364 463 q 263 447 308 463 q 185 415 217 432 q 173 353 178 385 q 168 281 168 321 q 220 130 168 167 q 332 93 272 93 q 460 144 392 93 q 528 304 528 194 q 478 426 528 390 q 364 463 428 463 z "},"7":{"ha":743,"x_min":86,"x_max":724,"o":"m 703 972 q 717 951 710 972 q 724 910 724 931 q 719 886 724 897 l 217 19 q 160 -3 203 -3 l 143 -3 q 101 1 115 -3 q 86 18 86 6 q 93 39 86 26 l 582 872 l 143 872 q 119 910 119 872 q 124 947 119 921 q 154 972 129 972 l 703 972 z "},"8":{"ha":743,"x_min":46,"x_max":668,"o":"m 425 981 q 598 928 528 981 q 668 771 668 875 q 619 614 668 672 q 510 529 571 556 q 610 458 568 503 q 651 321 651 413 q 604 135 651 208 q 481 27 557 63 q 318 -8 406 -8 q 124 51 203 -8 q 46 238 46 111 q 91 414 46 336 q 229 528 136 492 q 162 599 189 554 q 135 708 135 643 q 222 912 135 843 q 425 981 310 981 m 318 486 q 206 392 246 447 q 167 251 167 336 q 214 131 167 171 q 329 92 261 92 q 468 144 404 92 q 532 304 532 197 q 463 425 532 394 q 318 486 393 456 m 414 881 q 300 842 349 881 q 251 718 251 803 q 299 619 251 649 q 413 567 347 589 q 510 644 469 597 q 551 760 551 690 q 511 852 551 824 q 414 881 471 881 z "},"9":{"ha":743,"x_min":96,"x_max":690,"o":"m 428 981 q 625 907 560 981 q 690 700 690 833 q 647 455 690 565 q 535 260 603 344 q 393 117 467 175 q 258 28 319 58 q 168 -1 197 -1 q 139 26 147 -1 q 131 69 131 54 q 143 88 131 82 q 385 243 292 146 q 525 457 479 340 q 444 425 490 439 q 333 411 397 411 q 212 441 265 411 q 127 526 158 471 q 96 656 96 581 q 142 827 96 754 q 263 940 188 900 q 428 981 339 981 m 410 881 q 282 831 350 881 q 214 669 214 781 q 264 547 214 583 q 378 511 314 511 q 479 526 433 511 q 557 558 525 542 q 569 621 564 589 q 574 693 574 653 q 522 844 574 807 q 410 881 469 881 z "},"A":{"ha":851,"x_min":-32,"x_max":785,"o":"m 496 975 q 550 953 544 975 l 783 39 q 785 25 785 33 q 724 -3 785 -3 l 713 -3 q 658 19 664 -3 l 600 247 l 192 247 l 89 19 q 32 -3 79 -3 l 25 -3 q -32 19 -32 -3 q -25 40 -32 26 l 399 953 q 456 975 408 975 l 496 975 m 464 847 l 461 847 q 448 807 456 828 q 432 767 440 786 l 242 353 l 574 353 l 472 767 q 465 807 467 786 q 464 847 464 828 z "},"Á":{"ha":851,"x_min":-32,"x_max":785,"o":"m 496 975 q 550 953 544 975 l 783 39 q 785 25 785 33 q 724 -3 785 -3 l 713 -3 q 658 19 664 -3 l 600 247 l 192 247 l 89 19 q 32 -3 79 -3 l 25 -3 q -32 19 -32 -3 q -25 40 -32 26 l 399 953 q 456 975 408 975 l 496 975 m 464 847 l 461 847 q 448 807 456 828 q 432 767 440 786 l 242 353 l 574 353 l 472 767 q 465 807 467 786 q 464 847 464 828 m 608 1263 q 674 1246 674 1263 q 665 1226 674 1238 q 624 1183 656 1214 q 526 1083 593 1151 q 494 1065 514 1071 q 453 1058 474 1058 q 422 1071 422 1058 q 440 1110 422 1081 q 518 1226 458 1140 q 553 1254 532 1246 q 608 1263 575 1263 z "},"Ă":{"ha":851,"x_min":-32,"x_max":785,"o":"m 496 975 q 550 953 544 975 l 783 39 q 785 25 785 33 q 724 -3 785 -3 l 713 -3 q 658 19 664 -3 l 600 247 l 192 247 l 89 19 q 32 -3 79 -3 l 25 -3 q -32 19 -32 -3 q -25 40 -32 26 l 399 953 q 456 975 408 975 l 496 975 m 464 847 l 461 847 q 448 807 456 828 q 432 767 440 786 l 242 353 l 574 353 l 472 767 q 465 807 467 786 q 464 847 464 828 m 679 1239 q 699 1222 699 1239 q 625 1099 699 1140 q 482 1058 551 1058 q 353 1094 411 1058 q 296 1201 296 1129 q 319 1239 296 1239 q 339 1230 338 1239 q 347 1204 340 1221 q 400 1163 360 1175 q 492 1150 440 1150 q 585 1163 542 1150 q 646 1204 628 1175 q 658 1230 656 1221 q 679 1239 661 1239 z "},"Ắ":{"ha":851,"x_min":-32,"x_max":785,"o":"m 496 975 q 550 953 544 975 l 783 39 q 785 25 785 33 q 724 -3 785 -3 l 713 -3 q 658 19 664 -3 l 600 247 l 192 247 l 89 19 q 32 -3 79 -3 l 25 -3 q -32 19 -32 -3 q -25 40 -32 26 l 399 953 q 456 975 408 975 l 496 975 m 464 847 l 461 847 q 448 807 456 828 q 432 767 440 786 l 242 353 l 574 353 l 472 767 q 465 807 467 786 q 464 847 464 828 m 678 1226 q 697 1210 697 1226 q 624 1097 697 1136 q 481 1057 550 1057 q 352 1090 410 1057 q 294 1189 294 1124 q 318 1226 294 1226 q 337 1217 336 1226 q 346 1192 338 1207 q 398 1149 357 1168 q 490 1131 439 1131 q 586 1152 540 1131 q 644 1192 632 1174 q 658 1217 656 1207 q 678 1226 660 1226 m 618 1374 q 663 1357 663 1374 q 641 1326 663 1351 q 535 1208 619 1301 q 512 1190 525 1196 q 482 1183 499 1183 q 451 1196 451 1183 q 465 1232 451 1204 q 528 1338 479 1260 q 562 1364 539 1354 q 618 1374 585 1374 z "},"Ặ":{"ha":851,"x_min":-32,"x_max":785,"o":"m 496 975 q 550 953 544 975 l 783 39 q 785 25 785 33 q 724 -3 785 -3 l 713 -3 q 658 19 664 -3 l 600 247 l 192 247 l 89 19 q 32 -3 79 -3 l 25 -3 q -32 19 -32 -3 q -25 40 -32 26 l 399 953 q 456 975 408 975 l 496 975 m 464 847 l 461 847 q 448 807 456 828 q 432 767 440 786 l 242 353 l 574 353 l 472 767 q 465 807 467 786 q 464 847 464 828 m 679 1239 q 699 1222 699 1239 q 625 1099 699 1140 q 482 1058 551 1058 q 353 1094 411 1058 q 296 1201 296 1129 q 319 1239 296 1239 q 339 1230 338 1239 q 347 1204 340 1221 q 400 1163 360 1175 q 492 1150 440 1150 q 585 1163 542 1150 q 646 1204 628 1175 q 658 1230 656 1221 q 679 1239 661 1239 z "},"Ằ":{"ha":851,"x_min":-32,"x_max":785,"o":"m 496 975 q 550 953 544 975 l 783 39 q 785 25 785 33 q 724 -3 785 -3 l 713 -3 q 658 19 664 -3 l 600 247 l 192 247 l 89 19 q 32 -3 79 -3 l 25 -3 q -32 19 -32 -3 q -25 40 -32 26 l 399 953 q 456 975 408 975 l 496 975 m 464 847 l 461 847 q 448 807 456 828 q 432 767 440 786 l 242 353 l 574 353 l 472 767 q 465 807 467 786 q 464 847 464 828 m 678 1226 q 697 1210 697 1226 q 624 1097 697 1136 q 481 1057 550 1057 q 352 1090 410 1057 q 294 1189 294 1124 q 318 1226 294 1226 q 337 1217 336 1226 q 346 1192 338 1207 q 398 1149 357 1168 q 490 1131 439 1131 q 586 1152 540 1131 q 644 1192 632 1174 q 658 1217 656 1207 q 678 1226 660 1226 m 443 1378 q 481 1371 461 1378 q 510 1342 501 1364 q 551 1235 542 1264 q 561 1196 561 1206 q 529 1183 561 1183 q 499 1190 513 1183 q 479 1208 486 1196 q 409 1321 425 1293 q 392 1361 393 1349 q 443 1378 392 1378 z "},"Ẳ":{"ha":851,"x_min":-32,"x_max":785,"o":"m 496 975 q 550 953 544 975 l 783 39 q 785 25 785 33 q 724 -3 785 -3 l 713 -3 q 658 19 664 -3 l 600 247 l 192 247 l 89 19 q 32 -3 79 -3 l 25 -3 q -32 19 -32 -3 q -25 40 -32 26 l 399 953 q 456 975 408 975 l 496 975 m 464 847 l 461 847 q 448 807 456 828 q 432 767 440 786 l 242 353 l 574 353 l 472 767 q 465 807 467 786 q 464 847 464 828 m 678 1226 q 697 1210 697 1226 q 624 1097 697 1136 q 481 1057 550 1057 q 352 1090 410 1057 q 294 1189 294 1124 q 318 1226 294 1226 q 337 1217 336 1226 q 346 1192 338 1207 q 398 1149 357 1168 q 490 1131 439 1131 q 586 1152 540 1131 q 644 1192 632 1174 q 658 1217 656 1207 q 678 1226 660 1226 m 539 1294 q 492 1332 539 1332 q 445 1323 460 1332 q 425 1314 431 1314 q 407 1331 417 1314 q 397 1360 397 1349 q 435 1386 397 1374 q 510 1399 474 1399 q 583 1378 546 1399 q 619 1304 619 1358 q 599 1251 619 1272 q 561 1215 579 1229 q 526 1194 546 1203 q 500 1185 507 1185 q 453 1213 453 1185 q 490 1243 453 1224 q 539 1294 539 1268 z "},"Ẵ":{"ha":851,"x_min":-32,"x_max":785,"o":"m 496 975 q 550 953 544 975 l 783 39 q 785 25 785 33 q 724 -3 785 -3 l 713 -3 q 658 19 664 -3 l 600 247 l 192 247 l 89 19 q 32 -3 79 -3 l 25 -3 q -32 19 -32 -3 q -25 40 -32 26 l 399 953 q 456 975 408 975 l 496 975 m 464 847 l 461 847 q 448 807 456 828 q 432 767 440 786 l 242 353 l 574 353 l 472 767 q 465 807 467 786 q 464 847 464 828 m 678 1226 q 697 1210 697 1226 q 624 1097 697 1136 q 481 1057 550 1057 q 352 1090 410 1057 q 294 1189 294 1124 q 318 1226 294 1226 q 337 1217 336 1226 q 346 1192 338 1207 q 398 1149 357 1168 q 490 1131 439 1131 q 586 1152 540 1131 q 644 1192 632 1174 q 658 1217 656 1207 q 678 1226 660 1226 m 407 1400 q 522 1370 463 1400 q 626 1340 582 1340 q 656 1349 643 1340 q 682 1381 668 1358 q 700 1399 692 1396 q 719 1397 708 1403 l 729 1393 q 744 1380 742 1388 q 739 1357 746 1372 q 690 1284 718 1306 q 624 1263 661 1263 q 505 1292 565 1263 q 400 1322 444 1322 q 373 1313 385 1322 q 347 1281 361 1303 q 331 1262 338 1265 q 311 1264 324 1258 l 299 1269 q 286 1283 288 1275 q 290 1304 285 1290 q 340 1378 311 1357 q 407 1400 368 1400 z "},"Â":{"ha":851,"x_min":-32,"x_max":785,"o":"m 496 975 q 550 953 544 975 l 783 39 q 785 25 785 33 q 724 -3 785 -3 l 713 -3 q 658 19 664 -3 l 600 247 l 192 247 l 89 19 q 32 -3 79 -3 l 25 -3 q -32 19 -32 -3 q -25 40 -32 26 l 399 953 q 456 975 408 975 l 496 975 m 464 847 l 461 847 q 448 807 456 828 q 432 767 440 786 l 242 353 l 574 353 l 472 767 q 465 807 467 786 q 464 847 464 828 m 510 1243 q 546 1235 529 1243 q 571 1213 563 1228 l 636 1090 q 643 1067 643 1079 q 607 1046 640 1046 l 604 1046 q 560 1064 578 1046 l 483 1167 l 388 1064 q 365 1050 376 1054 q 339 1046 354 1046 l 336 1046 q 307 1063 307 1046 q 317 1090 307 1075 l 408 1213 q 437 1235 419 1228 q 475 1243 454 1243 l 510 1243 z "},"Ấ":{"ha":851,"x_min":-32,"x_max":840,"o":"m 496 975 q 550 953 544 975 l 783 39 q 785 25 785 33 q 724 -3 785 -3 l 713 -3 q 658 19 664 -3 l 600 247 l 192 247 l 89 19 q 32 -3 79 -3 l 25 -3 q -32 19 -32 -3 q -25 40 -32 26 l 399 953 q 456 975 408 975 l 496 975 m 464 847 l 461 847 q 448 807 456 828 q 432 767 440 786 l 242 353 l 574 353 l 472 767 q 465 807 467 786 q 464 847 464 828 m 521 1243 q 549 1235 536 1243 q 568 1213 561 1228 l 626 1090 q 633 1067 633 1079 q 597 1046 631 1046 l 594 1046 q 569 1049 581 1046 q 550 1064 557 1053 l 494 1167 l 399 1064 q 376 1050 388 1054 q 350 1046 365 1046 l 347 1046 q 318 1063 318 1046 q 328 1090 318 1075 l 419 1213 q 448 1235 431 1228 q 486 1243 465 1243 l 521 1243 m 796 1335 q 840 1318 840 1335 q 819 1288 840 1313 q 713 1169 797 1263 q 690 1151 703 1157 q 660 1144 676 1144 q 629 1157 629 1144 q 643 1193 629 1165 q 706 1299 657 1221 q 740 1325 717 1315 q 796 1335 763 1335 z "},"Ậ":{"ha":851,"x_min":-32,"x_max":785,"o":"m 496 975 q 550 953 544 975 l 783 39 q 785 25 785 33 q 724 -3 785 -3 l 713 -3 q 658 19 664 -3 l 600 247 l 192 247 l 89 19 q 32 -3 79 -3 l 25 -3 q -32 19 -32 -3 q -25 40 -32 26 l 399 953 q 456 975 408 975 l 496 975 m 464 847 l 461 847 q 448 807 456 828 q 432 767 440 786 l 242 353 l 574 353 l 472 767 q 465 807 467 786 q 464 847 464 828 m 510 1243 q 546 1235 529 1243 q 571 1213 563 1228 l 636 1090 q 643 1067 643 1079 q 607 1046 640 1046 l 604 1046 q 560 1064 578 1046 l 483 1167 l 388 1064 q 365 1050 376 1054 q 339 1046 354 1046 l 336 1046 q 307 1063 307 1046 q 317 1090 307 1075 l 408 1213 q 437 1235 419 1228 q 475 1243 454 1243 l 510 1243 z "},"Ầ":{"ha":851,"x_min":-32,"x_max":785,"o":"m 496 975 q 550 953 544 975 l 783 39 q 785 25 785 33 q 724 -3 785 -3 l 713 -3 q 658 19 664 -3 l 600 247 l 192 247 l 89 19 q 32 -3 79 -3 l 25 -3 q -32 19 -32 -3 q -25 40 -32 26 l 399 953 q 456 975 408 975 l 496 975 m 464 847 l 461 847 q 448 807 456 828 q 432 767 440 786 l 242 353 l 574 353 l 472 767 q 465 807 467 786 q 464 847 464 828 m 521 1243 q 549 1235 536 1243 q 568 1213 561 1228 l 626 1090 q 633 1067 633 1079 q 597 1046 631 1046 l 594 1046 q 569 1049 581 1046 q 550 1064 557 1053 l 494 1167 l 399 1064 q 376 1050 388 1054 q 350 1046 365 1046 l 347 1046 q 318 1063 318 1046 q 328 1090 318 1075 l 419 1213 q 448 1235 431 1228 q 486 1243 465 1243 l 521 1243 m 621 1339 q 659 1332 639 1339 q 688 1303 679 1325 q 729 1196 719 1225 q 739 1157 739 1167 q 707 1144 739 1144 q 677 1151 690 1144 q 657 1169 664 1157 q 587 1282 603 1254 q 569 1322 571 1310 q 621 1339 569 1339 z "},"Ẩ":{"ha":851,"x_min":-32,"x_max":797,"o":"m 496 975 q 550 953 544 975 l 783 39 q 785 25 785 33 q 724 -3 785 -3 l 713 -3 q 658 19 664 -3 l 600 247 l 192 247 l 89 19 q 32 -3 79 -3 l 25 -3 q -32 19 -32 -3 q -25 40 -32 26 l 399 953 q 456 975 408 975 l 496 975 m 464 847 l 461 847 q 448 807 456 828 q 432 767 440 786 l 242 353 l 574 353 l 472 767 q 465 807 467 786 q 464 847 464 828 m 521 1243 q 549 1235 536 1243 q 568 1213 561 1228 l 626 1090 q 633 1067 633 1079 q 597 1046 631 1046 l 594 1046 q 569 1049 581 1046 q 550 1064 557 1053 l 494 1167 l 399 1064 q 376 1050 388 1054 q 350 1046 365 1046 l 347 1046 q 318 1063 318 1046 q 328 1090 318 1075 l 419 1213 q 448 1235 431 1228 q 486 1243 465 1243 l 521 1243 m 717 1256 q 669 1293 717 1293 q 623 1284 638 1293 q 603 1275 608 1275 q 585 1292 594 1275 q 575 1321 575 1310 q 613 1347 575 1335 q 688 1360 651 1360 q 760 1340 724 1360 q 797 1265 797 1319 q 777 1212 797 1233 q 739 1176 757 1190 q 704 1155 724 1164 q 678 1146 685 1146 q 631 1174 631 1146 q 668 1204 631 1185 q 717 1256 717 1229 z "},"Ẫ":{"ha":851,"x_min":-32,"x_max":785,"o":"m 496 975 q 550 953 544 975 l 783 39 q 785 25 785 33 q 724 -3 785 -3 l 713 -3 q 658 19 664 -3 l 600 247 l 192 247 l 89 19 q 32 -3 79 -3 l 25 -3 q -32 19 -32 -3 q -25 40 -32 26 l 399 953 q 456 975 408 975 l 496 975 m 464 847 l 461 847 q 448 807 456 828 q 432 767 440 786 l 242 353 l 574 353 l 472 767 q 465 807 467 786 q 464 847 464 828 m 514 1210 q 549 1201 533 1210 q 575 1179 564 1192 l 639 1092 q 646 1068 646 1082 q 610 1047 643 1047 l 607 1047 q 583 1053 593 1047 q 563 1065 572 1058 l 488 1133 l 390 1065 q 367 1053 378 1058 q 342 1047 357 1047 l 339 1047 q 310 1064 310 1047 q 319 1092 310 1076 l 413 1179 q 443 1201 428 1192 q 479 1210 458 1210 l 514 1210 m 406 1400 q 521 1370 461 1400 q 625 1340 581 1340 q 654 1349 642 1340 q 681 1381 667 1358 q 699 1399 690 1396 q 718 1397 707 1403 l 728 1393 q 742 1380 740 1388 q 738 1357 744 1372 q 688 1284 717 1306 q 622 1263 660 1263 q 503 1292 564 1263 q 399 1322 443 1322 q 372 1313 383 1322 q 346 1281 360 1303 q 329 1262 336 1265 q 310 1264 322 1258 l 297 1269 q 285 1283 286 1275 q 289 1304 283 1290 q 338 1378 310 1357 q 406 1400 367 1400 z "},"Ä":{"ha":851,"x_min":-32,"x_max":785,"o":"m 496 975 q 550 953 544 975 l 783 39 q 785 25 785 33 q 724 -3 785 -3 l 713 -3 q 658 19 664 -3 l 600 247 l 192 247 l 89 19 q 32 -3 79 -3 l 25 -3 q -32 19 -32 -3 q -25 40 -32 26 l 399 953 q 456 975 408 975 l 496 975 m 464 847 l 461 847 q 448 807 456 828 q 432 767 440 786 l 242 353 l 574 353 l 472 767 q 465 807 467 786 q 464 847 464 828 m 599 1221 q 651 1190 651 1221 l 644 1119 q 581 1089 640 1089 q 528 1119 528 1089 l 535 1190 q 599 1221 538 1221 m 399 1221 q 451 1190 451 1221 l 444 1119 q 381 1089 440 1089 q 328 1119 328 1089 l 335 1190 q 399 1221 339 1221 z "},"Ạ":{"ha":851,"x_min":-32,"x_max":785,"o":"m 496 975 q 550 953 544 975 l 783 39 q 785 25 785 33 q 724 -3 785 -3 l 713 -3 q 658 19 664 -3 l 600 247 l 192 247 l 89 19 q 32 -3 79 -3 l 25 -3 q -32 19 -32 -3 q -25 40 -32 26 l 399 953 q 456 975 408 975 l 496 975 m 464 847 l 461 847 q 448 807 456 828 q 432 767 440 786 l 242 353 l 574 353 l 472 767 q 465 807 467 786 q 464 847 464 828 z "},"À":{"ha":851,"x_min":-32,"x_max":785,"o":"m 496 975 q 550 953 544 975 l 783 39 q 785 25 785 33 q 724 -3 785 -3 l 713 -3 q 658 19 664 -3 l 600 247 l 192 247 l 89 19 q 32 -3 79 -3 l 25 -3 q -32 19 -32 -3 q -25 40 -32 26 l 399 953 q 456 975 408 975 l 496 975 m 464 847 l 461 847 q 448 807 456 828 q 432 767 440 786 l 242 353 l 574 353 l 472 767 q 465 807 467 786 q 464 847 464 828 m 376 1263 q 431 1254 410 1263 q 463 1226 451 1246 q 528 1110 514 1139 q 543 1071 543 1081 q 511 1058 543 1058 q 471 1065 490 1058 q 440 1083 451 1071 q 331 1209 351 1185 q 310 1246 310 1233 q 376 1263 311 1263 z "},"Ả":{"ha":851,"x_min":-32,"x_max":785,"o":"m 496 975 q 550 953 544 975 l 783 39 q 785 25 785 33 q 724 -3 785 -3 l 713 -3 q 658 19 664 -3 l 600 247 l 192 247 l 89 19 q 32 -3 79 -3 l 25 -3 q -32 19 -32 -3 q -25 40 -32 26 l 399 953 q 456 975 408 975 l 496 975 m 464 847 l 461 847 q 448 807 456 828 q 432 767 440 786 l 242 353 l 574 353 l 472 767 q 465 807 467 786 q 464 847 464 828 m 536 1182 q 489 1217 536 1217 q 442 1208 457 1217 q 422 1199 428 1199 q 404 1217 414 1199 q 394 1244 394 1235 q 433 1273 394 1258 q 507 1288 471 1288 q 585 1267 542 1288 q 628 1190 628 1246 q 597 1105 628 1142 q 531 1048 565 1068 q 490 1028 497 1028 q 436 1051 436 1028 q 461 1087 436 1071 q 511 1124 486 1103 q 536 1182 536 1146 z "},"Ā":{"ha":851,"x_min":-32,"x_max":785,"o":"m 496 975 q 550 953 544 975 l 783 39 q 785 25 785 33 q 724 -3 785 -3 l 713 -3 q 658 19 664 -3 l 600 247 l 192 247 l 89 19 q 32 -3 79 -3 l 25 -3 q -32 19 -32 -3 q -25 40 -32 26 l 399 953 q 456 975 408 975 l 496 975 m 464 847 l 461 847 q 448 807 456 828 q 432 767 440 786 l 242 353 l 574 353 l 472 767 q 465 807 467 786 q 464 847 464 828 m 638 1194 q 661 1158 661 1194 q 656 1122 661 1147 q 626 1096 651 1096 l 313 1096 q 289 1133 289 1096 q 294 1169 289 1144 q 324 1194 299 1194 l 638 1194 z "},"Ą":{"ha":851,"x_min":-32,"x_max":900,"o":"m 496 975 q 550 953 544 975 l 783 39 q 785 25 785 33 q 724 -3 785 -3 l 713 -3 q 658 19 664 -3 l 600 247 l 192 247 l 89 19 q 32 -3 79 -3 l 25 -3 q -32 19 -32 -3 q -25 40 -32 26 l 399 953 q 456 975 408 975 l 496 975 m 464 847 l 461 847 q 448 807 456 828 q 432 767 440 786 l 242 353 l 574 353 l 472 767 q 465 807 467 786 q 464 847 464 828 m 726 19 q 749 3 749 19 q 735 -41 749 -14 q 722 -97 722 -68 q 751 -148 722 -139 q 803 -157 781 -157 q 858 -144 835 -157 q 892 -132 882 -132 q 900 -150 900 -132 q 860 -236 900 -218 q 776 -254 821 -254 q 652 -210 678 -254 q 626 -131 626 -165 q 635 -78 626 -114 q 665 -11 643 -42 q 726 19 686 19 z "},"Å":{"ha":851,"x_min":-32,"x_max":785,"o":"m 496 975 q 550 953 544 975 l 783 39 q 785 25 785 33 q 724 -3 785 -3 l 713 -3 q 658 19 664 -3 l 600 247 l 192 247 l 89 19 q 32 -3 79 -3 l 25 -3 q -32 19 -32 -3 q -25 40 -32 26 l 399 953 q 456 975 408 975 l 496 975 m 464 847 l 461 847 q 448 807 456 828 q 432 767 440 786 l 242 353 l 574 353 l 472 767 q 465 807 467 786 q 464 847 464 828 m 488 1264 q 563 1233 533 1264 q 593 1158 593 1203 q 554 1067 593 1106 q 464 1029 515 1029 q 388 1060 417 1029 q 358 1135 358 1090 q 397 1226 358 1188 q 488 1264 436 1264 m 483 1215 q 430 1193 453 1215 q 407 1140 407 1171 q 468 1078 407 1078 q 522 1100 500 1078 q 544 1154 544 1122 q 483 1215 544 1215 z "},"Ǻ":{"ha":851,"x_min":-32,"x_max":785,"o":"m 613 1290 q 676 1272 678 1290 q 657 1249 676 1265 q 564 1167 638 1233 q 532 1148 551 1154 q 490 1142 513 1142 q 460 1156 460 1142 q 496 1212 483 1193 q 522 1254 508 1231 q 558 1283 536 1275 q 613 1290 579 1290 m 493 892 l 550 953 l 783 39 q 785 25 785 33 q 724 -3 785 -3 l 713 -3 q 658 19 664 -3 l 600 247 l 192 247 l 89 19 q 32 -3 79 -3 l 25 -3 q -32 19 -32 -3 q -25 40 -32 26 l 399 953 l 453 892 l 493 892 m 464 847 l 461 847 q 448 807 456 828 q 432 767 440 786 l 242 353 l 574 353 l 472 767 q 465 807 467 786 q 464 847 464 828 m 494 1101 q 570 1071 540 1101 q 600 996 600 1040 q 561 905 600 943 q 471 867 522 867 q 394 897 424 867 q 365 972 365 928 q 404 1063 365 1025 q 494 1101 443 1101 m 490 1053 q 437 1031 460 1053 q 414 978 414 1008 q 475 915 414 915 q 529 938 507 915 q 551 992 551 960 q 490 1053 551 1053 z "},"Ã":{"ha":851,"x_min":-32,"x_max":785,"o":"m 496 975 q 550 953 544 975 l 783 39 q 785 25 785 33 q 724 -3 785 -3 l 713 -3 q 658 19 664 -3 l 600 247 l 192 247 l 89 19 q 32 -3 79 -3 l 25 -3 q -32 19 -32 -3 q -25 40 -32 26 l 399 953 q 456 975 408 975 l 496 975 m 464 847 l 461 847 q 448 807 456 828 q 432 767 440 786 l 242 353 l 574 353 l 472 767 q 465 807 467 786 q 464 847 464 828 z "},"Æ":{"ha":1271,"x_min":-65,"x_max":1193,"o":"m 1169 972 q 1193 942 1193 972 q 1189 892 1193 918 q 1158 867 1185 867 l 650 867 l 686 550 l 1082 550 q 1106 519 1106 550 q 1101 470 1106 496 q 1071 444 1097 444 l 697 444 l 736 106 l 1081 106 q 1104 75 1104 106 q 1100 26 1104 51 q 1069 0 1096 0 l 664 0 q 618 40 622 0 l 596 247 l 186 247 l 51 19 q -6 -3 38 -3 l -12 -3 q -54 3 -43 -3 q -65 18 -65 8 q -57 43 -65 28 l 482 935 q 544 972 504 972 l 1169 972 m 540 847 l 538 847 l 500 767 l 250 351 l 582 351 l 540 767 l 540 847 z "},"Ǽ":{"ha":1271,"x_min":-65,"x_max":1193,"o":"m 1169 972 q 1193 942 1193 972 q 1189 892 1193 918 q 1158 867 1185 867 l 650 867 l 686 550 l 1082 550 q 1106 519 1106 550 q 1101 470 1106 496 q 1071 444 1097 444 l 697 444 l 736 106 l 1081 106 q 1104 75 1104 106 q 1100 26 1104 51 q 1069 0 1096 0 l 664 0 q 618 40 622 0 l 596 247 l 186 247 l 51 19 q -6 -3 38 -3 l -12 -3 q -54 3 -43 -3 q -65 18 -65 8 q -57 43 -65 28 l 482 935 q 544 972 504 972 l 1169 972 m 540 847 l 538 847 l 500 767 l 250 351 l 582 351 l 540 767 l 540 847 m 769 1263 q 835 1246 835 1263 q 826 1226 835 1238 q 785 1183 817 1214 q 688 1083 754 1151 q 655 1065 675 1071 q 614 1058 635 1058 q 583 1071 583 1058 q 601 1110 583 1081 q 679 1226 619 1140 q 715 1254 693 1246 q 769 1263 736 1263 z "},"B":{"ha":824,"x_min":71,"x_max":757,"o":"m 465 972 q 683 913 610 972 q 757 756 757 853 q 702 606 757 678 q 576 515 647 533 l 575 510 q 619 492 575 510 q 708 431 664 475 q 751 304 751 386 q 641 73 751 146 q 354 0 531 0 l 108 0 q 71 33 71 0 q 72 52 71 35 q 82 149 74 69 q 110 412 90 228 q 164 931 129 596 q 210 972 168 972 l 465 972 m 422 447 l 236 447 l 200 106 l 410 106 q 566 160 507 106 q 625 306 625 214 q 422 447 625 447 m 442 867 l 279 867 l 247 553 l 415 553 q 569 608 508 553 q 629 739 629 663 q 442 867 629 867 z "},"C":{"ha":860,"x_min":53,"x_max":819,"o":"m 565 981 q 691 967 633 981 q 784 934 749 954 q 819 896 819 914 q 799 847 819 879 q 764 814 778 814 q 699 844 753 814 q 544 875 644 875 q 261 738 344 875 q 178 397 178 600 q 464 97 178 97 q 644 131 578 97 q 721 164 711 164 q 731 149 731 164 q 728 118 731 144 q 721 72 725 92 q 672 28 715 46 q 569 1 629 10 q 453 -8 508 -8 q 53 381 53 -8 q 99 676 53 539 q 258 897 146 813 q 565 981 369 981 z "},"Ć":{"ha":860,"x_min":53,"x_max":819,"o":"m 565 981 q 691 967 633 981 q 784 934 749 954 q 819 896 819 914 q 799 847 819 879 q 764 814 778 814 q 699 844 753 814 q 544 875 644 875 q 261 738 344 875 q 178 397 178 600 q 464 97 178 97 q 644 131 578 97 q 721 164 711 164 q 731 149 731 164 q 728 118 731 144 q 721 72 725 92 q 672 28 715 46 q 569 1 629 10 q 453 -8 508 -8 q 53 381 53 -8 q 99 676 53 539 q 258 897 146 813 q 565 981 369 981 m 674 1263 q 739 1246 739 1263 q 730 1226 739 1238 q 690 1183 721 1214 q 592 1083 658 1151 q 559 1065 579 1071 q 518 1058 539 1058 q 488 1071 488 1058 q 506 1110 488 1081 q 583 1226 524 1140 q 619 1254 597 1246 q 674 1263 640 1263 z "},"Č":{"ha":860,"x_min":53,"x_max":819,"o":"m 565 981 q 691 967 633 981 q 784 934 749 954 q 819 896 819 914 q 799 847 819 879 q 764 814 778 814 q 699 844 753 814 q 544 875 644 875 q 261 738 344 875 q 178 397 178 600 q 464 97 178 97 q 644 131 578 97 q 721 164 711 164 q 731 149 731 164 q 728 118 731 144 q 721 72 725 92 q 672 28 715 46 q 569 1 629 10 q 453 -8 508 -8 q 53 381 53 -8 q 99 676 53 539 q 258 897 146 813 q 565 981 369 981 m 704 1251 q 735 1232 735 1251 q 725 1207 735 1221 l 632 1085 q 603 1062 621 1069 q 565 1054 586 1054 l 531 1054 q 494 1062 511 1054 q 469 1085 478 1069 l 406 1207 q 399 1232 399 1219 q 433 1251 401 1251 l 436 1251 q 482 1233 464 1251 l 556 1131 l 654 1233 q 676 1247 665 1243 q 701 1251 688 1251 l 704 1251 z "},"Ç":{"ha":860,"x_min":53,"x_max":819,"o":"m 565 981 q 691 967 633 981 q 784 934 749 954 q 819 896 819 914 q 799 847 819 879 q 764 814 778 814 q 699 844 753 814 q 544 875 644 875 q 261 738 344 875 q 178 397 178 600 q 464 97 178 97 q 644 131 578 97 q 721 164 711 164 q 731 149 731 164 q 728 118 731 144 q 721 72 725 92 q 672 28 715 46 q 569 1 629 10 q 453 -8 508 -8 q 53 381 53 -8 q 99 676 53 539 q 258 897 146 813 q 565 981 369 981 m 461 0 l 426 -86 l 413 -68 l 439 -68 q 504 -82 461 -68 q 547 -154 547 -96 q 486 -268 547 -244 q 374 -292 425 -292 q 294 -282 349 -292 q 239 -235 239 -272 q 244 -194 239 -200 q 256 -189 250 -189 q 288 -206 260 -189 q 364 -224 315 -224 q 419 -215 390 -224 q 447 -168 447 -206 q 426 -133 447 -142 q 385 -119 406 -125 q 364 -96 364 -114 q 372 -74 364 -96 q 401 0 379 -53 l 461 0 z "},"Ĉ":{"ha":860,"x_min":53,"x_max":819,"o":"m 565 981 q 691 967 633 981 q 784 934 749 954 q 819 896 819 914 q 799 847 819 879 q 764 814 778 814 q 699 844 753 814 q 544 875 644 875 q 261 738 344 875 q 178 397 178 600 q 464 97 178 97 q 644 131 578 97 q 721 164 711 164 q 731 149 731 164 q 728 118 731 144 q 721 72 725 92 q 672 28 715 46 q 569 1 629 10 q 453 -8 508 -8 q 53 381 53 -8 q 99 676 53 539 q 258 897 146 813 q 565 981 369 981 m 575 1243 q 611 1235 594 1243 q 636 1213 628 1228 l 701 1090 q 708 1067 708 1079 q 672 1046 706 1046 l 669 1046 q 625 1064 643 1046 l 549 1167 l 453 1064 q 431 1050 442 1054 q 404 1046 419 1046 l 401 1046 q 372 1063 372 1046 q 382 1090 372 1075 l 474 1213 q 502 1235 485 1228 q 540 1243 519 1243 l 575 1243 z "},"Ċ":{"ha":860,"x_min":53,"x_max":819,"o":"m 565 981 q 691 967 633 981 q 784 934 749 954 q 819 896 819 914 q 799 847 819 879 q 764 814 778 814 q 699 844 753 814 q 544 875 644 875 q 261 738 344 875 q 178 397 178 600 q 464 97 178 97 q 644 131 578 97 q 721 164 711 164 q 731 149 731 164 q 728 118 731 144 q 721 72 725 92 q 672 28 715 46 q 569 1 629 10 q 453 -8 508 -8 q 53 381 53 -8 q 99 676 53 539 q 258 897 146 813 q 565 981 369 981 m 564 1221 q 617 1190 617 1221 l 610 1119 q 546 1089 606 1089 q 493 1119 493 1089 l 500 1190 q 564 1221 504 1221 z "},"D":{"ha":965,"x_min":69,"x_max":893,"o":"m 507 972 q 782 883 671 972 q 893 576 893 794 q 823 235 893 361 q 642 54 753 108 q 406 0 531 0 l 107 0 q 69 33 69 0 q 79 137 69 40 q 104 376 89 233 q 135 669 119 519 q 163 931 151 818 q 208 972 167 972 l 507 972 m 486 867 l 278 867 l 199 106 l 407 106 q 580 149 497 106 q 715 292 663 193 q 767 557 767 392 q 686 799 767 731 q 486 867 606 867 z "},"Ǳ":{"ha":1821,"x_min":69,"x_max":1801,"o":"m 507 972 q 782 883 671 972 q 893 576 893 794 q 823 235 893 361 q 642 54 753 108 q 406 0 531 0 l 107 0 q 69 33 69 0 q 79 137 69 40 q 104 376 89 233 q 135 669 119 519 q 163 931 151 818 q 208 972 167 972 l 507 972 m 486 867 l 278 867 l 199 106 l 407 106 q 580 149 497 106 q 715 292 663 193 q 767 557 767 392 q 686 799 767 731 q 486 867 606 867 m 1778 972 q 1793 950 1785 972 q 1801 906 1801 928 q 1794 882 1801 889 l 1144 106 l 1689 106 q 1713 75 1713 106 q 1708 26 1713 51 q 1678 0 1704 0 l 1000 0 q 982 23 990 0 q 974 67 974 46 q 981 90 974 83 l 1631 867 l 1129 867 q 1106 897 1106 867 q 1110 947 1106 921 q 1140 972 1114 972 l 1778 972 z "},"Ǆ":{"ha":1821,"x_min":69,"x_max":1801,"o":"m 507 972 q 782 883 671 972 q 893 576 893 794 q 823 235 893 361 q 642 54 753 108 q 406 0 531 0 l 107 0 q 69 33 69 0 q 79 137 69 40 q 104 376 89 233 q 135 669 119 519 q 163 931 151 818 q 208 972 167 972 l 507 972 m 486 867 l 278 867 l 199 106 l 407 106 q 580 149 497 106 q 715 292 663 193 q 767 557 767 392 q 686 799 767 731 q 486 867 606 867 m 1778 972 q 1793 950 1785 972 q 1801 906 1801 928 q 1794 882 1801 889 l 1144 106 l 1689 106 q 1713 75 1713 106 q 1708 26 1713 51 q 1678 0 1704 0 l 1000 0 q 982 23 990 0 q 974 67 974 46 q 981 90 974 83 l 1631 867 l 1129 867 q 1106 897 1106 867 q 1110 947 1106 921 q 1140 972 1114 972 l 1778 972 m 1599 1251 q 1629 1232 1629 1251 q 1619 1207 1629 1221 l 1526 1085 q 1498 1062 1515 1069 q 1460 1054 1481 1054 l 1425 1054 q 1389 1062 1406 1054 q 1364 1085 1372 1069 l 1300 1207 q 1293 1232 1293 1219 q 1328 1251 1296 1251 l 1331 1251 q 1376 1233 1358 1251 l 1450 1131 l 1549 1233 q 1571 1247 1560 1243 q 1596 1251 1582 1251 l 1599 1251 z "},"Ð":{"ha":967,"x_min":-1,"x_max":893,"o":"m 22 444 q -1 475 -1 444 q 3 524 -1 499 q 33 550 7 550 l 400 550 q 424 519 424 550 q 419 470 424 496 q 389 444 415 444 l 22 444 m 507 972 q 782 883 671 972 q 893 576 893 794 q 823 235 893 361 q 642 54 753 108 q 406 0 531 0 l 107 0 q 69 33 69 0 q 79 137 69 40 q 104 376 89 233 q 135 669 119 519 q 163 931 151 818 q 208 972 167 972 l 507 972 m 486 867 l 278 867 l 199 106 l 407 106 q 580 149 497 106 q 715 292 663 193 q 767 557 767 392 q 686 799 767 731 q 486 867 606 867 z "},"Ď":{"ha":965,"x_min":69,"x_max":893,"o":"m 507 972 q 782 883 671 972 q 893 576 893 794 q 823 235 893 361 q 642 54 753 108 q 406 0 531 0 l 107 0 q 69 33 69 0 q 79 137 69 40 q 104 376 89 233 q 135 669 119 519 q 163 931 151 818 q 208 972 167 972 l 507 972 m 486 867 l 278 867 l 199 106 l 407 106 q 580 149 497 106 q 715 292 663 193 q 767 557 767 392 q 686 799 767 731 q 486 867 606 867 m 647 1251 q 678 1232 678 1251 q 668 1207 678 1221 l 575 1085 q 547 1062 564 1069 q 508 1054 529 1054 l 474 1054 q 438 1062 454 1054 q 413 1085 421 1069 l 349 1207 q 342 1232 342 1219 q 376 1251 344 1251 l 379 1251 q 425 1233 407 1251 l 499 1131 l 597 1233 q 619 1247 608 1243 q 644 1251 631 1251 l 647 1251 z "},"Đ":{"ha":967,"x_min":-1,"x_max":893,"o":"m 22 444 q -1 475 -1 444 q 3 524 -1 499 q 33 550 7 550 l 400 550 q 424 519 424 550 q 419 470 424 496 q 389 444 415 444 l 22 444 m 507 972 q 782 883 671 972 q 893 576 893 794 q 823 235 893 361 q 642 54 753 108 q 406 0 531 0 l 107 0 q 69 33 69 0 q 79 137 69 40 q 104 376 89 233 q 135 669 119 519 q 163 931 151 818 q 208 972 167 972 l 507 972 m 486 867 l 278 867 l 199 106 l 407 106 q 580 149 497 106 q 715 292 663 193 q 767 557 767 392 q 686 799 767 731 q 486 867 606 867 z "},"Ḍ":{"ha":965,"x_min":69,"x_max":893,"o":"m 507 972 q 782 883 671 972 q 893 576 893 794 q 823 235 893 361 q 642 54 753 108 q 406 0 531 0 l 107 0 q 69 33 69 0 q 79 137 69 40 q 104 376 89 233 q 135 669 119 519 q 163 931 151 818 q 208 972 167 972 l 507 972 m 486 867 l 278 867 l 199 106 l 407 106 q 580 149 497 106 q 715 292 663 193 q 767 557 767 392 q 686 799 767 731 q 486 867 606 867 z "},"ǲ":{"ha":1644,"x_min":69,"x_max":1618,"o":"m 507 972 q 782 883 671 972 q 893 576 893 794 q 823 235 893 361 q 642 54 753 108 q 406 0 531 0 l 107 0 q 69 33 69 0 q 79 137 69 40 q 104 376 89 233 q 135 669 119 519 q 163 931 151 818 q 208 972 167 972 l 507 972 m 486 867 l 278 867 l 199 106 l 407 106 q 580 149 497 106 q 715 292 663 193 q 767 557 767 392 q 686 799 767 731 q 486 867 606 867 m 1597 726 q 1613 703 1607 726 q 1618 660 1618 679 q 1613 640 1618 646 l 1151 100 l 1533 100 q 1557 63 1557 100 q 1552 26 1557 51 q 1522 0 1547 0 l 1008 0 q 993 22 1001 0 q 985 64 985 43 q 992 86 985 79 l 1454 626 l 1099 626 q 1075 664 1075 626 q 1080 701 1075 675 q 1110 726 1085 726 l 1597 726 z "},"ǅ":{"ha":1644,"x_min":69,"x_max":1618,"o":"m 507 972 q 782 883 671 972 q 893 576 893 794 q 823 235 893 361 q 642 54 753 108 q 406 0 531 0 l 107 0 q 69 33 69 0 q 79 137 69 40 q 104 376 89 233 q 135 669 119 519 q 163 931 151 818 q 208 972 167 972 l 507 972 m 486 867 l 278 867 l 199 106 l 407 106 q 580 149 497 106 q 715 292 663 193 q 767 557 767 392 q 686 799 767 731 q 486 867 606 867 m 1597 726 q 1613 703 1607 726 q 1618 660 1618 679 q 1613 640 1618 646 l 1151 100 l 1533 100 q 1557 63 1557 100 q 1552 26 1557 51 q 1522 0 1547 0 l 1008 0 q 993 22 1001 0 q 985 64 985 43 q 992 86 985 79 l 1454 626 l 1099 626 q 1075 664 1075 626 q 1080 701 1075 675 q 1110 726 1085 726 l 1597 726 m 1511 1006 q 1542 986 1542 1006 q 1532 961 1542 975 l 1439 839 q 1410 816 1428 824 q 1372 808 1393 808 l 1338 808 q 1301 816 1318 808 q 1276 839 1285 824 l 1213 961 q 1206 986 1206 974 q 1240 1006 1208 1006 l 1243 1006 q 1289 988 1271 1006 l 1363 885 l 1461 988 q 1483 1001 1472 997 q 1508 1006 1494 1006 l 1511 1006 z "},"E":{"ha":758,"x_min":63,"x_max":715,"o":"m 692 972 q 715 942 715 972 q 711 892 715 918 q 681 867 707 867 l 271 867 l 238 550 l 604 550 q 628 519 628 550 q 624 470 628 496 q 593 444 619 444 l 226 444 l 192 106 l 603 106 q 626 75 626 106 q 622 26 626 51 q 592 0 618 0 l 100 0 q 63 33 63 0 q 63 44 63 35 q 68 94 64 53 q 83 230 72 135 q 110 494 93 325 q 156 931 128 663 q 201 972 160 972 l 692 972 z "},"É":{"ha":758,"x_min":63,"x_max":715,"o":"m 692 972 q 715 942 715 972 q 711 892 715 918 q 681 867 707 867 l 271 867 l 238 550 l 604 550 q 628 519 628 550 q 624 470 628 496 q 593 444 619 444 l 226 444 l 192 106 l 603 106 q 626 75 626 106 q 622 26 626 51 q 592 0 618 0 l 100 0 q 63 33 63 0 q 63 44 63 35 q 68 94 64 53 q 83 230 72 135 q 110 494 93 325 q 156 931 128 663 q 201 972 160 972 l 692 972 m 582 1263 q 647 1246 647 1263 q 638 1226 647 1238 q 598 1183 629 1214 q 500 1083 567 1151 q 467 1065 488 1071 q 426 1058 447 1058 q 396 1071 396 1058 q 414 1110 396 1081 q 492 1226 432 1140 q 527 1254 506 1246 q 582 1263 549 1263 z "},"Ĕ":{"ha":758,"x_min":63,"x_max":715,"o":"m 692 972 q 715 942 715 972 q 711 892 715 918 q 681 867 707 867 l 271 867 l 238 550 l 604 550 q 628 519 628 550 q 624 470 628 496 q 593 444 619 444 l 226 444 l 192 106 l 603 106 q 626 75 626 106 q 622 26 626 51 q 592 0 618 0 l 100 0 q 63 33 63 0 q 63 44 63 35 q 68 94 64 53 q 83 230 72 135 q 110 494 93 325 q 156 931 128 663 q 201 972 160 972 l 692 972 m 653 1239 q 672 1222 672 1239 q 599 1099 672 1140 q 456 1058 525 1058 q 327 1094 385 1058 q 269 1201 269 1129 q 293 1239 269 1239 q 313 1230 311 1239 q 321 1204 314 1221 q 374 1163 333 1175 q 465 1150 414 1150 q 558 1163 515 1150 q 619 1204 601 1175 q 632 1230 629 1221 q 653 1239 635 1239 z "},"Ě":{"ha":758,"x_min":63,"x_max":715,"o":"m 692 972 q 715 942 715 972 q 711 892 715 918 q 681 867 707 867 l 271 867 l 238 550 l 604 550 q 628 519 628 550 q 624 470 628 496 q 593 444 619 444 l 226 444 l 192 106 l 603 106 q 626 75 626 106 q 622 26 626 51 q 592 0 618 0 l 100 0 q 63 33 63 0 q 63 44 63 35 q 68 94 64 53 q 83 230 72 135 q 110 494 93 325 q 156 931 128 663 q 201 972 160 972 l 692 972 m 613 1251 q 643 1232 643 1251 q 633 1207 643 1221 l 540 1085 q 512 1062 529 1069 q 474 1054 494 1054 l 439 1054 q 403 1062 419 1054 q 378 1085 386 1069 l 314 1207 q 307 1232 307 1219 q 342 1251 310 1251 l 344 1251 q 390 1233 372 1251 l 464 1131 l 563 1233 q 585 1247 574 1243 q 610 1251 596 1251 l 613 1251 z "},"Ê":{"ha":758,"x_min":63,"x_max":715,"o":"m 692 972 q 715 942 715 972 q 711 892 715 918 q 681 867 707 867 l 271 867 l 238 550 l 604 550 q 628 519 628 550 q 624 470 628 496 q 593 444 619 444 l 226 444 l 192 106 l 603 106 q 626 75 626 106 q 622 26 626 51 q 592 0 618 0 l 100 0 q 63 33 63 0 q 63 44 63 35 q 68 94 64 53 q 83 230 72 135 q 110 494 93 325 q 156 931 128 663 q 201 972 160 972 l 692 972 m 483 1243 q 519 1235 503 1243 q 544 1213 536 1228 l 610 1090 q 617 1067 617 1079 q 581 1046 614 1046 l 578 1046 q 533 1064 551 1046 l 457 1167 l 361 1064 q 339 1050 350 1054 q 313 1046 328 1046 l 310 1046 q 281 1063 281 1046 q 290 1090 281 1075 l 382 1213 q 410 1235 393 1228 q 449 1243 428 1243 l 483 1243 z "},"Ế":{"ha":758,"x_min":63,"x_max":814,"o":"m 692 972 q 715 942 715 972 q 711 892 715 918 q 681 867 707 867 l 271 867 l 238 550 l 604 550 q 628 519 628 550 q 624 470 628 496 q 593 444 619 444 l 226 444 l 192 106 l 603 106 q 626 75 626 106 q 622 26 626 51 q 592 0 618 0 l 100 0 q 63 33 63 0 q 63 44 63 35 q 68 94 64 53 q 83 230 72 135 q 110 494 93 325 q 156 931 128 663 q 201 972 160 972 l 692 972 m 494 1243 q 522 1235 510 1243 q 542 1213 535 1228 l 600 1090 q 607 1067 607 1079 q 571 1046 604 1046 l 568 1046 q 542 1049 554 1046 q 524 1064 531 1053 l 468 1167 l 372 1064 q 350 1050 361 1054 q 324 1046 339 1046 l 321 1046 q 292 1063 292 1046 q 301 1090 292 1075 l 393 1213 q 422 1235 404 1228 q 460 1243 439 1243 l 494 1243 m 769 1335 q 814 1318 814 1335 q 792 1288 814 1313 q 686 1169 771 1263 q 663 1151 676 1157 q 633 1144 650 1144 q 603 1157 603 1144 q 617 1193 603 1165 q 679 1299 631 1221 q 713 1325 690 1315 q 769 1335 736 1335 z "},"Ệ":{"ha":758,"x_min":63,"x_max":715,"o":"m 692 972 q 715 942 715 972 q 711 892 715 918 q 681 867 707 867 l 271 867 l 238 550 l 604 550 q 628 519 628 550 q 624 470 628 496 q 593 444 619 444 l 226 444 l 192 106 l 603 106 q 626 75 626 106 q 622 26 626 51 q 592 0 618 0 l 100 0 q 63 33 63 0 q 63 44 63 35 q 68 94 64 53 q 83 230 72 135 q 110 494 93 325 q 156 931 128 663 q 201 972 160 972 l 692 972 m 483 1243 q 519 1235 503 1243 q 544 1213 536 1228 l 610 1090 q 617 1067 617 1079 q 581 1046 614 1046 l 578 1046 q 533 1064 551 1046 l 457 1167 l 361 1064 q 339 1050 350 1054 q 313 1046 328 1046 l 310 1046 q 281 1063 281 1046 q 290 1090 281 1075 l 382 1213 q 410 1235 393 1228 q 449 1243 428 1243 l 483 1243 z "},"Ề":{"ha":758,"x_min":63,"x_max":715,"o":"m 692 972 q 715 942 715 972 q 711 892 715 918 q 681 867 707 867 l 271 867 l 238 550 l 604 550 q 628 519 628 550 q 624 470 628 496 q 593 444 619 444 l 226 444 l 192 106 l 603 106 q 626 75 626 106 q 622 26 626 51 q 592 0 618 0 l 100 0 q 63 33 63 0 q 63 44 63 35 q 68 94 64 53 q 83 230 72 135 q 110 494 93 325 q 156 931 128 663 q 201 972 160 972 l 692 972 m 494 1243 q 522 1235 510 1243 q 542 1213 535 1228 l 600 1090 q 607 1067 607 1079 q 571 1046 604 1046 l 568 1046 q 542 1049 554 1046 q 524 1064 531 1053 l 468 1167 l 372 1064 q 350 1050 361 1054 q 324 1046 339 1046 l 321 1046 q 292 1063 292 1046 q 301 1090 292 1075 l 393 1213 q 422 1235 404 1228 q 460 1243 439 1243 l 494 1243 m 594 1339 q 633 1332 613 1339 q 661 1303 653 1325 q 703 1196 693 1225 q 713 1157 713 1167 q 681 1144 713 1144 q 651 1151 664 1144 q 631 1169 638 1157 q 560 1282 576 1254 q 543 1322 544 1310 q 594 1339 543 1339 z "},"Ể":{"ha":758,"x_min":63,"x_max":771,"o":"m 692 972 q 715 942 715 972 q 711 892 715 918 q 681 867 707 867 l 271 867 l 238 550 l 604 550 q 628 519 628 550 q 624 470 628 496 q 593 444 619 444 l 226 444 l 192 106 l 603 106 q 626 75 626 106 q 622 26 626 51 q 592 0 618 0 l 100 0 q 63 33 63 0 q 63 44 63 35 q 68 94 64 53 q 83 230 72 135 q 110 494 93 325 q 156 931 128 663 q 201 972 160 972 l 692 972 m 494 1243 q 522 1235 510 1243 q 542 1213 535 1228 l 600 1090 q 607 1067 607 1079 q 571 1046 604 1046 l 568 1046 q 542 1049 554 1046 q 524 1064 531 1053 l 468 1167 l 372 1064 q 350 1050 361 1054 q 324 1046 339 1046 l 321 1046 q 292 1063 292 1046 q 301 1090 292 1075 l 393 1213 q 422 1235 404 1228 q 460 1243 439 1243 l 494 1243 m 690 1256 q 643 1293 690 1293 q 597 1284 611 1293 q 576 1275 582 1275 q 558 1292 568 1275 q 549 1321 549 1310 q 587 1347 549 1335 q 661 1360 625 1360 q 734 1340 697 1360 q 771 1265 771 1319 q 751 1212 771 1233 q 713 1176 731 1190 q 678 1155 697 1164 q 651 1146 658 1146 q 604 1174 604 1146 q 642 1204 604 1185 q 690 1256 690 1229 z "},"Ễ":{"ha":758,"x_min":63,"x_max":717,"o":"m 692 972 q 715 942 715 972 q 711 892 715 918 q 681 867 707 867 l 271 867 l 238 550 l 604 550 q 628 519 628 550 q 624 470 628 496 q 593 444 619 444 l 226 444 l 192 106 l 603 106 q 626 75 626 106 q 622 26 626 51 q 592 0 618 0 l 100 0 q 63 33 63 0 q 63 44 63 35 q 68 94 64 53 q 83 230 72 135 q 110 494 93 325 q 156 931 128 663 q 201 972 160 972 l 692 972 m 488 1210 q 522 1201 507 1210 q 549 1179 538 1192 l 613 1092 q 619 1068 619 1082 q 583 1047 617 1047 l 581 1047 q 556 1053 567 1047 q 536 1065 546 1058 l 461 1133 l 364 1065 q 341 1053 351 1058 q 315 1047 331 1047 l 313 1047 q 283 1064 283 1047 q 293 1092 283 1076 l 386 1179 q 417 1201 401 1192 q 453 1210 432 1210 l 488 1210 m 379 1400 q 494 1370 435 1400 q 599 1340 554 1340 q 628 1349 615 1340 q 654 1381 640 1358 q 672 1399 664 1396 q 692 1397 681 1403 l 701 1393 q 716 1380 714 1388 q 711 1357 718 1372 q 662 1284 690 1306 q 596 1263 633 1263 q 477 1292 538 1263 q 372 1322 417 1322 q 345 1313 357 1322 q 319 1281 333 1303 q 303 1262 310 1265 q 283 1264 296 1258 l 271 1269 q 258 1283 260 1275 q 263 1304 257 1290 q 312 1378 283 1357 q 379 1400 340 1400 z "},"Ë":{"ha":758,"x_min":63,"x_max":715,"o":"m 692 972 q 715 942 715 972 q 711 892 715 918 q 681 867 707 867 l 271 867 l 238 550 l 604 550 q 628 519 628 550 q 624 470 628 496 q 593 444 619 444 l 226 444 l 192 106 l 603 106 q 626 75 626 106 q 622 26 626 51 q 592 0 618 0 l 100 0 q 63 33 63 0 q 63 44 63 35 q 68 94 64 53 q 83 230 72 135 q 110 494 93 325 q 156 931 128 663 q 201 972 160 972 l 692 972 m 572 1221 q 625 1190 625 1221 l 618 1119 q 554 1089 614 1089 q 501 1119 501 1089 l 508 1190 q 572 1221 511 1221 m 372 1221 q 425 1190 425 1221 l 418 1119 q 354 1089 414 1089 q 301 1119 301 1089 l 308 1190 q 372 1221 313 1221 z "},"Ė":{"ha":758,"x_min":63,"x_max":715,"o":"m 692 972 q 715 942 715 972 q 711 892 715 918 q 681 867 707 867 l 271 867 l 238 550 l 604 550 q 628 519 628 550 q 624 470 628 496 q 593 444 619 444 l 226 444 l 192 106 l 603 106 q 626 75 626 106 q 622 26 626 51 q 592 0 618 0 l 100 0 q 63 33 63 0 q 63 44 63 35 q 68 94 64 53 q 83 230 72 135 q 110 494 93 325 q 156 931 128 663 q 201 972 160 972 l 692 972 m 472 1221 q 525 1190 525 1221 l 518 1119 q 454 1089 514 1089 q 401 1119 401 1089 l 408 1190 q 472 1221 413 1221 z "},"Ẹ":{"ha":758,"x_min":63,"x_max":715,"o":"m 692 972 q 715 942 715 972 q 711 892 715 918 q 681 867 707 867 l 271 867 l 238 550 l 604 550 q 628 519 628 550 q 624 470 628 496 q 593 444 619 444 l 226 444 l 192 106 l 603 106 q 626 75 626 106 q 622 26 626 51 q 592 0 618 0 l 100 0 q 63 33 63 0 q 63 44 63 35 q 68 94 64 53 q 83 230 72 135 q 110 494 93 325 q 156 931 128 663 q 201 972 160 972 l 692 972 z "},"È":{"ha":758,"x_min":63,"x_max":715,"o":"m 692 972 q 715 942 715 972 q 711 892 715 918 q 681 867 707 867 l 271 867 l 238 550 l 604 550 q 628 519 628 550 q 624 470 628 496 q 593 444 619 444 l 226 444 l 192 106 l 603 106 q 626 75 626 106 q 622 26 626 51 q 592 0 618 0 l 100 0 q 63 33 63 0 q 63 44 63 35 q 68 94 64 53 q 83 230 72 135 q 110 494 93 325 q 156 931 128 663 q 201 972 160 972 l 692 972 m 350 1263 q 404 1254 383 1263 q 436 1226 425 1246 q 502 1110 488 1139 q 517 1071 517 1081 q 485 1058 517 1058 q 444 1065 464 1058 q 414 1083 425 1071 q 304 1209 325 1185 q 283 1246 283 1233 q 350 1263 285 1263 z "},"Ẻ":{"ha":758,"x_min":63,"x_max":715,"o":"m 692 972 q 715 942 715 972 q 711 892 715 918 q 681 867 707 867 l 271 867 l 238 550 l 604 550 q 628 519 628 550 q 624 470 628 496 q 593 444 619 444 l 226 444 l 192 106 l 603 106 q 626 75 626 106 q 622 26 626 51 q 592 0 618 0 l 100 0 q 63 33 63 0 q 63 44 63 35 q 68 94 64 53 q 83 230 72 135 q 110 494 93 325 q 156 931 128 663 q 201 972 160 972 l 692 972 m 510 1182 q 463 1217 510 1217 q 416 1208 431 1217 q 396 1199 401 1199 q 378 1217 388 1199 q 368 1244 368 1235 q 406 1273 368 1258 q 481 1288 444 1288 q 558 1267 515 1288 q 601 1190 601 1246 q 570 1105 601 1142 q 505 1048 539 1068 q 464 1028 471 1028 q 410 1051 410 1028 q 435 1087 410 1071 q 485 1124 460 1103 q 510 1182 510 1146 z "},"Ē":{"ha":758,"x_min":63,"x_max":715,"o":"m 692 972 q 715 942 715 972 q 711 892 715 918 q 681 867 707 867 l 271 867 l 238 550 l 604 550 q 628 519 628 550 q 624 470 628 496 q 593 444 619 444 l 226 444 l 192 106 l 603 106 q 626 75 626 106 q 622 26 626 51 q 592 0 618 0 l 100 0 q 63 33 63 0 q 63 44 63 35 q 68 94 64 53 q 83 230 72 135 q 110 494 93 325 q 156 931 128 663 q 201 972 160 972 l 692 972 m 611 1194 q 635 1158 635 1194 q 630 1122 635 1147 q 600 1096 625 1096 l 286 1096 q 263 1133 263 1096 q 267 1169 263 1144 q 297 1194 272 1194 l 611 1194 z "},"Ę":{"ha":758,"x_min":63,"x_max":743,"o":"m 692 972 q 715 942 715 972 q 711 892 715 918 q 681 867 707 867 l 271 867 l 238 550 l 604 550 q 628 519 628 550 q 624 470 628 496 q 593 444 619 444 l 226 444 l 192 106 l 603 106 q 626 75 626 106 q 622 26 626 51 q 592 0 618 0 l 100 0 q 63 33 63 0 q 63 44 63 35 q 68 94 64 53 q 83 230 72 135 q 110 494 93 325 q 156 931 128 663 q 201 972 160 972 l 692 972 m 569 19 q 592 3 592 19 q 578 -41 592 -14 q 565 -97 565 -68 q 594 -148 565 -139 q 646 -157 624 -157 q 701 -144 678 -157 q 735 -132 725 -132 q 743 -150 743 -132 q 703 -236 743 -218 q 619 -254 664 -254 q 495 -210 521 -254 q 469 -131 469 -165 q 478 -78 469 -114 q 508 -11 486 -42 q 569 19 529 19 z "},"Ẽ":{"ha":758,"x_min":63,"x_max":718,"o":"m 692 972 q 715 942 715 972 q 711 892 715 918 q 681 867 707 867 l 271 867 l 238 550 l 604 550 q 628 519 628 550 q 624 470 628 496 q 593 444 619 444 l 226 444 l 192 106 l 603 106 q 626 75 626 106 q 622 26 626 51 q 592 0 618 0 l 100 0 q 63 33 63 0 q 63 44 63 35 q 68 94 64 53 q 83 230 72 135 q 110 494 93 325 q 156 931 128 663 q 201 972 160 972 l 692 972 z "},"F":{"ha":699,"x_min":68,"x_max":672,"o":"m 649 972 q 672 942 672 972 q 668 892 672 918 q 638 867 664 867 l 278 867 l 244 550 l 593 550 q 617 519 617 550 q 613 470 617 496 q 582 444 608 444 l 233 444 l 190 28 q 132 -3 186 -3 l 121 -3 q 78 6 89 -3 q 68 28 68 14 q 115 479 92 254 q 163 931 139 704 q 208 972 167 972 l 649 972 z "},"G":{"ha":933,"x_min":72,"x_max":836,"o":"m 581 981 q 706 967 647 981 q 800 934 764 954 q 836 896 836 914 q 815 847 836 879 q 781 814 794 814 q 718 844 769 814 q 561 875 667 875 q 289 749 378 875 q 200 400 200 622 q 258 185 200 272 q 475 97 317 97 q 578 103 529 97 q 656 115 628 108 l 686 396 l 522 396 q 499 426 499 396 q 503 476 499 450 q 533 501 507 501 l 778 501 q 815 468 815 501 q 808 391 815 458 q 792 239 801 324 q 776 92 783 154 q 725 31 772 53 q 606 1 678 10 q 456 -8 535 -8 q 72 382 72 -8 q 211 836 72 692 q 581 981 350 981 z "},"Ğ":{"ha":933,"x_min":72,"x_max":836,"o":"m 581 981 q 706 967 647 981 q 800 934 764 954 q 836 896 836 914 q 815 847 836 879 q 781 814 794 814 q 718 844 769 814 q 561 875 667 875 q 289 749 378 875 q 200 400 200 622 q 258 185 200 272 q 475 97 317 97 q 578 103 529 97 q 656 115 628 108 l 686 396 l 522 396 q 499 426 499 396 q 503 476 499 450 q 533 501 507 501 l 778 501 q 815 468 815 501 q 808 391 815 458 q 792 239 801 324 q 776 92 783 154 q 725 31 772 53 q 606 1 678 10 q 456 -8 535 -8 q 72 382 72 -8 q 211 836 72 692 q 581 981 350 981 m 754 1239 q 774 1222 774 1239 q 700 1099 774 1140 q 557 1058 626 1058 q 428 1094 486 1058 q 371 1201 371 1129 q 394 1239 371 1239 q 414 1230 413 1239 q 422 1204 415 1221 q 475 1163 435 1175 q 567 1150 515 1150 q 660 1163 617 1150 q 721 1204 703 1175 q 733 1230 731 1221 q 754 1239 736 1239 z "},"Ĝ":{"ha":933,"x_min":72,"x_max":836,"o":"m 581 981 q 706 967 647 981 q 800 934 764 954 q 836 896 836 914 q 815 847 836 879 q 781 814 794 814 q 718 844 769 814 q 561 875 667 875 q 289 749 378 875 q 200 400 200 622 q 258 185 200 272 q 475 97 317 97 q 578 103 529 97 q 656 115 628 108 l 686 396 l 522 396 q 499 426 499 396 q 503 476 499 450 q 533 501 507 501 l 778 501 q 815 468 815 501 q 808 391 815 458 q 792 239 801 324 q 776 92 783 154 q 725 31 772 53 q 606 1 678 10 q 456 -8 535 -8 q 72 382 72 -8 q 211 836 72 692 q 581 981 350 981 m 585 1243 q 621 1235 604 1243 q 646 1213 638 1228 l 711 1090 q 718 1067 718 1079 q 682 1046 715 1046 l 679 1046 q 635 1064 653 1046 l 558 1167 l 463 1064 q 440 1050 451 1054 q 414 1046 429 1046 l 411 1046 q 382 1063 382 1046 q 392 1090 382 1075 l 483 1213 q 512 1235 494 1228 q 550 1243 529 1243 l 585 1243 z "},"Ģ":{"ha":933,"x_min":72,"x_max":836,"o":"m 581 981 q 706 967 647 981 q 800 934 764 954 q 836 896 836 914 q 815 847 836 879 q 781 814 794 814 q 718 844 769 814 q 561 875 667 875 q 289 749 378 875 q 200 400 200 622 q 258 185 200 272 q 475 97 317 97 q 578 103 529 97 q 656 115 628 108 l 686 396 l 522 396 q 499 426 499 396 q 503 476 499 450 q 533 501 507 501 l 778 501 q 815 468 815 501 q 808 391 815 458 q 792 239 801 324 q 776 92 783 154 q 725 31 772 53 q 606 1 678 10 q 456 -8 535 -8 q 72 382 72 -8 q 211 836 72 692 q 581 981 350 981 m 471 -71 q 510 -81 497 -71 q 522 -110 522 -92 q 490 -201 522 -150 q 419 -289 458 -251 q 356 -326 379 -326 q 331 -322 344 -326 q 318 -306 318 -318 q 358 -228 318 -274 q 397 -115 397 -182 q 458 -71 397 -71 l 471 -71 z "},"Ġ":{"ha":933,"x_min":72,"x_max":836,"o":"m 581 981 q 706 967 647 981 q 800 934 764 954 q 836 896 836 914 q 815 847 836 879 q 781 814 794 814 q 718 844 769 814 q 561 875 667 875 q 289 749 378 875 q 200 400 200 622 q 258 185 200 272 q 475 97 317 97 q 578 103 529 97 q 656 115 628 108 l 686 396 l 522 396 q 499 426 499 396 q 503 476 499 450 q 533 501 507 501 l 778 501 q 815 468 815 501 q 808 391 815 458 q 792 239 801 324 q 776 92 783 154 q 725 31 772 53 q 606 1 678 10 q 456 -8 535 -8 q 72 382 72 -8 q 211 836 72 692 q 581 981 350 981 m 574 1221 q 626 1190 626 1221 l 619 1119 q 556 1089 615 1089 q 503 1119 503 1089 l 510 1190 q 574 1221 514 1221 z "},"H":{"ha":1018,"x_min":86,"x_max":929,"o":"m 876 975 q 918 967 907 975 q 929 944 929 958 l 833 28 q 775 -3 829 -3 l 764 -3 q 722 6 733 -3 q 711 28 711 14 l 754 446 l 251 446 l 208 28 q 150 -3 204 -3 l 139 -3 q 97 6 108 -3 q 86 28 86 14 l 182 944 q 240 975 185 975 l 251 975 q 293 967 282 975 q 304 944 304 958 l 263 551 l 765 551 l 807 944 q 865 975 810 975 l 876 975 z "},"Ħ":{"ha":1018,"x_min":82,"x_max":968,"o":"m 876 975 q 918 967 907 975 q 929 944 929 958 l 833 28 q 775 -3 829 -3 l 764 -3 q 722 6 733 -3 q 711 28 711 14 l 754 446 l 251 446 l 208 28 q 150 -3 204 -3 l 139 -3 q 97 6 108 -3 q 86 28 86 14 l 182 944 q 240 975 185 975 l 251 975 q 293 967 282 975 q 304 944 304 958 l 263 551 l 765 551 l 807 944 q 865 975 810 975 l 876 975 m 944 779 q 968 743 968 779 q 963 706 968 732 q 933 681 958 681 l 106 681 q 82 718 82 681 q 87 754 82 729 q 117 779 92 779 l 944 779 z "},"Ĥ":{"ha":1018,"x_min":86,"x_max":929,"o":"m 876 975 q 918 967 907 975 q 929 944 929 958 l 833 28 q 775 -3 829 -3 l 764 -3 q 722 6 733 -3 q 711 28 711 14 l 754 446 l 251 446 l 208 28 q 150 -3 204 -3 l 139 -3 q 97 6 108 -3 q 86 28 86 14 l 182 944 q 240 975 185 975 l 251 975 q 293 967 282 975 q 304 944 304 958 l 263 551 l 765 551 l 807 944 q 865 975 810 975 l 876 975 m 597 1243 q 633 1235 617 1243 q 658 1213 650 1228 l 724 1090 q 731 1067 731 1079 q 694 1046 728 1046 l 692 1046 q 647 1064 665 1046 l 571 1167 l 475 1064 q 453 1050 464 1054 q 426 1046 442 1046 l 424 1046 q 394 1063 394 1046 q 404 1090 394 1075 l 496 1213 q 524 1235 507 1228 q 563 1243 542 1243 l 597 1243 z "},"Ḥ":{"ha":1018,"x_min":86,"x_max":929,"o":"m 876 975 q 918 967 907 975 q 929 944 929 958 l 833 28 q 775 -3 829 -3 l 764 -3 q 722 6 733 -3 q 711 28 711 14 l 754 446 l 251 446 l 208 28 q 150 -3 204 -3 l 139 -3 q 97 6 108 -3 q 86 28 86 14 l 182 944 q 240 975 185 975 l 251 975 q 293 967 282 975 q 304 944 304 958 l 263 551 l 765 551 l 807 944 q 865 975 810 975 l 876 975 z "},"I":{"ha":392,"x_min":86,"x_max":304,"o":"m 251 975 q 293 967 282 975 q 304 944 304 958 l 208 28 q 150 -3 204 -3 l 139 -3 q 97 6 108 -3 q 86 28 86 14 l 182 944 q 240 975 185 975 l 251 975 z "},"Ĳ":{"ha":950,"x_min":86,"x_max":883,"o":"m 251 975 q 293 967 282 975 q 304 944 304 958 l 208 28 q 150 -3 204 -3 l 139 -3 q 97 6 108 -3 q 86 28 86 14 l 182 944 q 240 975 185 975 l 251 975 m 831 975 q 872 967 861 975 q 883 944 883 958 l 814 285 q 726 72 800 153 q 499 -8 651 -8 q 415 1 454 -8 q 376 36 376 10 q 382 100 376 82 q 397 118 388 118 q 427 112 407 118 q 489 106 447 106 q 690 279 672 106 l 761 944 q 819 975 764 975 l 831 975 z "},"Í":{"ha":392,"x_min":86,"x_max":449,"o":"m 251 975 q 293 967 282 975 q 304 944 304 958 l 208 28 q 150 -3 204 -3 l 139 -3 q 97 6 108 -3 q 86 28 86 14 l 182 944 q 240 975 185 975 l 251 975 m 383 1263 q 449 1246 449 1263 q 440 1226 449 1238 q 399 1183 431 1214 q 301 1083 368 1151 q 269 1065 289 1071 q 228 1058 249 1058 q 197 1071 197 1058 q 215 1110 197 1081 q 293 1226 233 1140 q 328 1254 307 1246 q 383 1263 350 1263 z "},"Ĭ":{"ha":392,"x_min":71,"x_max":474,"o":"m 251 975 q 293 967 282 975 q 304 944 304 958 l 208 28 q 150 -3 204 -3 l 139 -3 q 97 6 108 -3 q 86 28 86 14 l 182 944 q 240 975 185 975 l 251 975 m 454 1239 q 474 1222 474 1239 q 400 1099 474 1140 q 257 1058 326 1058 q 128 1094 186 1058 q 71 1201 71 1129 q 94 1239 71 1239 q 114 1230 113 1239 q 122 1204 115 1221 q 175 1163 135 1175 q 267 1150 215 1150 q 360 1163 317 1150 q 421 1204 403 1175 q 433 1230 431 1221 q 454 1239 436 1239 z "},"Î":{"ha":392,"x_min":82,"x_max":418,"o":"m 251 975 q 293 967 282 975 q 304 944 304 958 l 208 28 q 150 -3 204 -3 l 139 -3 q 97 6 108 -3 q 86 28 86 14 l 182 944 q 240 975 185 975 l 251 975 m 285 1243 q 321 1235 304 1243 q 346 1213 338 1228 l 411 1090 q 418 1067 418 1079 q 382 1046 415 1046 l 379 1046 q 335 1064 353 1046 l 258 1167 l 163 1064 q 140 1050 151 1054 q 114 1046 129 1046 l 111 1046 q 82 1063 82 1046 q 92 1090 82 1075 l 183 1213 q 212 1235 194 1228 q 250 1243 229 1243 l 285 1243 z "},"Ï":{"ha":392,"x_min":86,"x_max":426,"o":"m 251 975 q 293 967 282 975 q 304 944 304 958 l 208 28 q 150 -3 204 -3 l 139 -3 q 97 6 108 -3 q 86 28 86 14 l 182 944 q 240 975 185 975 l 251 975 m 374 1221 q 426 1190 426 1221 l 419 1119 q 356 1089 415 1089 q 303 1119 303 1089 l 310 1190 q 374 1221 313 1221 m 174 1221 q 226 1190 226 1221 l 219 1119 q 156 1089 215 1089 q 103 1119 103 1089 l 110 1190 q 174 1221 114 1221 z "},"İ":{"ha":392,"x_min":86,"x_max":326,"o":"m 251 975 q 293 967 282 975 q 304 944 304 958 l 208 28 q 150 -3 204 -3 l 139 -3 q 97 6 108 -3 q 86 28 86 14 l 182 944 q 240 975 185 975 l 251 975 m 274 1221 q 326 1190 326 1221 l 319 1119 q 256 1089 315 1089 q 203 1119 203 1089 l 210 1190 q 274 1221 214 1221 z "},"Ị":{"ha":392,"x_min":58,"x_max":304,"o":"m 251 975 q 293 967 282 975 q 304 944 304 958 l 208 28 q 150 -3 204 -3 l 139 -3 q 97 6 108 -3 q 86 28 86 14 l 182 944 q 240 975 185 975 l 251 975 z "},"Ì":{"ha":392,"x_min":85,"x_max":318,"o":"m 251 975 q 293 967 282 975 q 304 944 304 958 l 208 28 q 150 -3 204 -3 l 139 -3 q 97 6 108 -3 q 86 28 86 14 l 182 944 q 240 975 185 975 l 251 975 m 151 1263 q 206 1254 185 1263 q 238 1226 226 1246 q 303 1110 289 1139 q 318 1071 318 1081 q 286 1058 318 1058 q 246 1065 265 1058 q 215 1083 226 1071 q 106 1209 126 1185 q 85 1246 85 1233 q 151 1263 86 1263 z "},"Ỉ":{"ha":392,"x_min":86,"x_max":403,"o":"m 251 975 q 293 967 282 975 q 304 944 304 958 l 208 28 q 150 -3 204 -3 l 139 -3 q 97 6 108 -3 q 86 28 86 14 l 182 944 q 240 975 185 975 l 251 975 m 311 1182 q 264 1217 311 1217 q 217 1208 232 1217 q 197 1199 203 1199 q 179 1217 189 1199 q 169 1244 169 1235 q 208 1273 169 1258 q 282 1288 246 1288 q 360 1267 317 1288 q 403 1190 403 1246 q 372 1105 403 1142 q 306 1048 340 1068 q 265 1028 272 1028 q 211 1051 211 1028 q 236 1087 211 1071 q 286 1124 261 1103 q 311 1182 311 1146 z "},"Ī":{"ha":392,"x_min":64,"x_max":436,"o":"m 251 975 q 293 967 282 975 q 304 944 304 958 l 208 28 q 150 -3 204 -3 l 139 -3 q 97 6 108 -3 q 86 28 86 14 l 182 944 q 240 975 185 975 l 251 975 m 413 1194 q 436 1158 436 1194 q 431 1122 436 1147 q 401 1096 426 1096 l 88 1096 q 64 1133 64 1096 q 69 1169 64 1144 q 99 1194 74 1194 l 413 1194 z "},"Į":{"ha":392,"x_min":56,"x_max":329,"o":"m 251 975 q 293 967 282 975 q 304 944 304 958 l 208 28 q 150 -3 204 -3 l 139 -3 q 97 6 108 -3 q 86 28 86 14 l 182 944 q 240 975 185 975 l 251 975 m 156 19 q 178 3 178 19 q 165 -41 178 -14 q 151 -97 151 -68 q 181 -148 151 -139 q 232 -157 210 -157 q 288 -144 264 -157 q 321 -132 311 -132 q 329 -150 329 -132 q 290 -236 329 -218 q 206 -254 250 -254 q 81 -210 107 -254 q 56 -131 56 -165 q 64 -78 56 -114 q 94 -11 72 -42 q 156 19 115 19 z "},"Ĩ":{"ha":392,"x_min":38,"x_max":493,"o":"m 251 975 q 293 967 282 975 q 304 944 304 958 l 208 28 q 150 -3 204 -3 l 139 -3 q 97 6 108 -3 q 86 28 86 14 l 182 944 q 240 975 185 975 l 251 975 z "},"J":{"ha":558,"x_min":-15,"x_max":492,"o":"m 439 975 q 481 967 469 975 q 492 944 492 958 l 422 285 q 334 72 408 153 q 107 -8 260 -8 q 24 1 63 -8 q -15 36 -15 10 q -10 100 -15 82 q 6 118 -4 118 q 35 112 15 118 q 97 106 56 106 q 299 279 281 106 l 369 944 q 428 975 372 975 l 439 975 z "},"Ĵ":{"ha":558,"x_min":-15,"x_max":596,"o":"m 439 975 q 481 967 469 975 q 492 944 492 958 l 422 285 q 334 72 408 153 q 107 -8 260 -8 q 24 1 63 -8 q -15 36 -15 10 q -10 100 -15 82 q 6 118 -4 118 q 35 112 15 118 q 97 106 56 106 q 299 279 281 106 l 369 944 q 428 975 372 975 l 439 975 m 463 1246 q 499 1238 482 1246 q 524 1215 515 1231 l 589 1093 q 596 1069 596 1082 q 560 1049 593 1049 l 557 1049 q 513 1067 531 1049 l 436 1169 l 340 1067 q 318 1053 329 1057 q 292 1049 307 1049 l 289 1049 q 260 1065 260 1049 q 269 1093 260 1078 l 361 1215 q 390 1238 372 1231 q 428 1246 407 1246 l 463 1246 z "},"K":{"ha":800,"x_min":61,"x_max":763,"o":"m 715 975 q 763 958 763 975 q 746 929 763 946 l 360 500 l 722 39 q 732 17 732 26 q 716 1 731 6 q 669 -3 701 -3 l 660 -3 q 585 15 600 -3 l 235 463 l 229 463 l 183 28 q 125 -3 179 -3 l 114 -3 q 61 28 61 -3 l 157 944 q 215 975 160 975 l 226 975 q 279 944 279 975 l 235 519 l 240 519 l 625 956 q 657 971 636 967 q 701 975 678 975 l 715 975 z "},"Ķ":{"ha":800,"x_min":61,"x_max":763,"o":"m 715 975 q 763 958 763 975 q 746 929 763 946 l 360 500 l 722 39 q 732 17 732 26 q 716 1 731 6 q 669 -3 701 -3 l 660 -3 q 585 15 600 -3 l 235 463 l 229 463 l 183 28 q 125 -3 179 -3 l 114 -3 q 61 28 61 -3 l 157 944 q 215 975 160 975 l 226 975 q 279 944 279 975 l 235 519 l 240 519 l 625 956 q 657 971 636 967 q 701 975 678 975 l 715 975 m 365 -71 q 404 -81 392 -71 q 417 -110 417 -92 q 385 -201 417 -150 q 313 -289 353 -251 q 250 -326 274 -326 q 226 -322 239 -326 q 213 -306 213 -318 q 252 -228 213 -274 q 292 -115 292 -182 q 353 -71 292 -71 l 365 -71 z "},"L":{"ha":672,"x_min":69,"x_max":626,"o":"m 233 975 q 275 967 264 975 q 286 944 286 958 l 199 106 l 603 106 q 626 75 626 106 q 622 26 626 51 q 592 0 618 0 l 107 0 q 69 42 69 0 l 164 944 q 222 975 167 975 l 233 975 z "},"Ǉ":{"ha":997,"x_min":69,"x_max":913,"o":"m 233 975 q 275 967 264 975 q 286 944 286 958 l 199 106 l 486 106 q 510 75 510 106 q 506 26 510 51 q 475 0 501 0 l 107 0 q 69 42 69 0 l 164 944 q 222 975 167 975 l 233 975 m 860 975 q 901 967 890 975 q 913 944 913 958 l 821 72 q 733 -140 807 -58 q 506 -221 658 -221 q 422 -212 461 -221 q 383 -176 383 -203 q 389 -112 383 -131 q 404 -94 394 -94 q 434 -101 414 -94 q 496 -107 454 -107 q 697 67 679 -107 l 790 944 q 849 975 793 975 l 860 975 z "},"Ĺ":{"ha":672,"x_min":69,"x_max":626,"o":"m 233 975 q 275 967 264 975 q 286 944 286 958 l 199 106 l 603 106 q 626 75 626 106 q 622 26 626 51 q 592 0 618 0 l 107 0 q 69 42 69 0 l 164 944 q 222 975 167 975 l 233 975 m 367 1265 q 432 1249 432 1265 q 423 1228 432 1240 q 383 1185 414 1217 q 285 1086 351 1154 q 252 1067 272 1074 q 211 1061 232 1061 q 181 1074 181 1061 q 199 1113 181 1083 q 276 1229 217 1143 q 312 1257 290 1249 q 367 1265 333 1265 z "},"Ľ":{"ha":672,"x_min":69,"x_max":626,"o":"m 233 975 q 275 967 264 975 q 286 944 286 958 l 199 106 l 603 106 q 626 75 626 106 q 622 26 626 51 q 592 0 618 0 l 107 0 q 69 42 69 0 l 164 944 q 222 975 167 975 l 233 975 m 563 972 q 601 962 589 972 q 614 933 614 951 q 590 854 614 899 q 535 777 565 810 q 489 744 506 744 q 465 749 478 744 q 451 765 451 753 q 470 833 451 793 q 489 928 489 872 q 550 972 489 972 l 563 972 z "},"Ļ":{"ha":672,"x_min":69,"x_max":626,"o":"m 233 975 q 275 967 264 975 q 286 944 286 958 l 199 106 l 603 106 q 626 75 626 106 q 622 26 626 51 q 592 0 618 0 l 107 0 q 69 42 69 0 l 164 944 q 222 975 167 975 l 233 975 m 340 -71 q 379 -81 367 -71 q 392 -110 392 -92 q 360 -201 392 -150 q 288 -289 328 -251 q 225 -326 249 -326 q 201 -322 214 -326 q 188 -306 188 -318 q 227 -228 188 -274 q 267 -115 267 -182 q 328 -71 267 -71 l 340 -71 z "},"Ŀ":{"ha":672,"x_min":69,"x_max":626,"o":"m 233 975 q 275 967 264 975 q 286 944 286 958 l 199 106 l 603 106 q 626 75 626 106 q 622 26 626 51 q 592 0 618 0 l 107 0 q 69 42 69 0 l 164 944 q 222 975 167 975 l 233 975 m 425 572 q 471 554 453 572 q 489 508 489 536 q 465 451 489 472 q 410 429 442 429 q 364 447 382 429 q 346 492 346 464 q 368 549 346 526 q 425 572 390 572 z "},"ǈ":{"ha":1056,"x_min":69,"x_max":994,"o":"m 233 975 q 275 967 264 975 q 286 944 286 958 l 199 106 l 603 106 q 626 75 626 106 q 622 26 626 51 q 592 0 618 0 l 107 0 q 69 42 69 0 l 164 944 q 222 975 167 975 l 233 975 m 903 729 q 956 699 956 729 l 871 -103 q 799 -259 858 -224 q 688 -294 740 -294 q 609 -278 639 -294 q 579 -237 579 -262 q 584 -183 579 -194 q 594 -171 589 -171 q 619 -183 603 -171 q 672 -194 636 -194 q 727 -174 704 -194 q 756 -92 750 -154 l 839 699 q 897 729 843 729 l 903 729 m 942 1044 q 994 1014 994 1044 l 986 932 q 933 901 986 901 l 917 901 q 858 932 858 901 l 867 1014 q 925 1044 871 1044 l 942 1044 z "},"Ł":{"ha":675,"x_min":-7,"x_max":628,"o":"m 235 975 q 276 967 265 975 q 288 944 288 958 l 254 621 l 413 710 q 428 715 424 715 q 438 696 438 715 q 428 664 438 675 q 406 646 419 653 l 247 557 l 200 106 l 604 106 q 628 75 628 106 q 624 26 628 51 q 593 0 619 0 l 108 0 q 71 42 71 0 l 117 483 l 17 428 q 3 422 6 422 q -7 442 -7 422 q 2 474 -7 463 q 24 492 11 485 l 124 547 l 165 944 q 224 975 168 975 l 235 975 z "},"M":{"ha":1171,"x_min":75,"x_max":1092,"o":"m 1039 975 q 1092 944 1092 975 l 996 28 q 938 -3 992 -3 l 928 -3 q 875 28 875 -3 l 953 775 l 949 769 l 624 289 q 590 271 611 271 l 535 271 q 507 289 515 271 l 279 775 l 275 783 l 196 28 q 138 -3 192 -3 l 128 -3 q 75 28 75 -3 l 171 944 q 229 975 174 975 l 279 975 q 336 950 325 975 l 550 494 l 578 407 l 622 486 l 933 950 q 993 975 949 975 l 1039 975 z "},"N":{"ha":999,"x_min":72,"x_max":925,"o":"m 872 975 q 925 944 925 975 l 829 28 q 771 -3 825 -3 l 743 -3 q 713 2 724 -3 q 696 17 701 7 l 301 708 l 272 779 l 193 28 q 135 -3 189 -3 l 125 -3 q 72 28 72 -3 l 168 944 q 226 975 171 975 l 256 975 q 290 969 278 975 q 311 949 303 964 l 693 279 l 726 201 l 804 944 q 863 975 807 975 l 872 975 z "},"Ǌ":{"ha":1557,"x_min":72,"x_max":1490,"o":"m 872 975 q 925 944 925 975 l 829 28 q 771 -3 825 -3 l 743 -3 q 713 2 724 -3 q 696 17 701 7 l 301 708 l 272 779 l 193 28 q 135 -3 189 -3 l 125 -3 q 72 28 72 -3 l 168 944 q 226 975 171 975 l 256 975 q 290 969 278 975 q 311 949 303 964 l 693 279 l 726 201 l 804 944 q 863 975 807 975 l 872 975 m 1438 975 q 1479 967 1468 975 q 1490 944 1490 958 l 1421 285 q 1333 72 1407 153 q 1106 -8 1258 -8 q 1022 1 1061 -8 q 983 36 983 10 q 989 100 983 82 q 1004 118 994 118 q 1034 112 1014 118 q 1096 106 1054 106 q 1297 279 1279 106 l 1368 944 q 1426 975 1371 975 l 1438 975 z "},"Ń":{"ha":999,"x_min":72,"x_max":925,"o":"m 872 975 q 925 944 925 975 l 829 28 q 771 -3 825 -3 l 743 -3 q 713 2 724 -3 q 696 17 701 7 l 301 708 l 272 779 l 193 28 q 135 -3 189 -3 l 125 -3 q 72 28 72 -3 l 168 944 q 226 975 171 975 l 256 975 q 290 969 278 975 q 311 949 303 964 l 693 279 l 726 201 l 804 944 q 863 975 807 975 l 872 975 m 676 1263 q 742 1246 742 1263 q 733 1226 742 1238 q 692 1183 724 1214 q 594 1083 661 1151 q 562 1065 582 1071 q 521 1058 542 1058 q 490 1071 490 1058 q 508 1110 490 1081 q 586 1226 526 1140 q 622 1254 600 1246 q 676 1263 643 1263 z "},"Ň":{"ha":999,"x_min":72,"x_max":925,"o":"m 872 975 q 925 944 925 975 l 829 28 q 771 -3 825 -3 l 743 -3 q 713 2 724 -3 q 696 17 701 7 l 301 708 l 272 779 l 193 28 q 135 -3 189 -3 l 125 -3 q 72 28 72 -3 l 168 944 q 226 975 171 975 l 256 975 q 290 969 278 975 q 311 949 303 964 l 693 279 l 726 201 l 804 944 q 863 975 807 975 l 872 975 m 707 1251 q 738 1232 738 1251 q 728 1207 738 1221 l 635 1085 q 606 1062 624 1069 q 568 1054 589 1054 l 533 1054 q 497 1062 514 1054 q 472 1085 481 1069 l 408 1207 q 401 1232 401 1219 q 436 1251 404 1251 l 439 1251 q 485 1233 467 1251 l 558 1131 l 657 1233 q 679 1247 668 1243 q 704 1251 690 1251 l 707 1251 z "},"Ņ":{"ha":999,"x_min":72,"x_max":925,"o":"m 872 975 q 925 944 925 975 l 829 28 q 771 -3 825 -3 l 743 -3 q 713 2 724 -3 q 696 17 701 7 l 301 708 l 272 779 l 193 28 q 135 -3 189 -3 l 125 -3 q 72 28 72 -3 l 168 944 q 226 975 171 975 l 256 975 q 290 969 278 975 q 311 949 303 964 l 693 279 l 726 201 l 804 944 q 863 975 807 975 l 872 975 m 471 -71 q 510 -81 497 -71 q 522 -110 522 -92 q 490 -201 522 -150 q 419 -289 458 -251 q 356 -326 379 -326 q 331 -322 344 -326 q 318 -306 318 -318 q 358 -228 318 -274 q 397 -115 397 -182 q 458 -71 397 -71 l 471 -71 z "},"Ṅ":{"ha":999,"x_min":72,"x_max":925,"o":"m 872 975 q 925 944 925 975 l 829 28 q 771 -3 825 -3 l 743 -3 q 713 2 724 -3 q 696 17 701 7 l 301 708 l 272 779 l 193 28 q 135 -3 189 -3 l 125 -3 q 72 28 72 -3 l 168 944 q 226 975 171 975 l 256 975 q 290 969 278 975 q 311 949 303 964 l 693 279 l 726 201 l 804 944 q 863 975 807 975 l 872 975 m 567 1221 q 619 1190 619 1221 l 613 1119 q 549 1089 608 1089 q 496 1119 496 1089 l 503 1190 q 567 1221 507 1221 z "},"Ŋ":{"ha":999,"x_min":72,"x_max":925,"o":"m 872 975 q 925 944 925 975 l 829 28 l 732 -46 l 301 708 l 272 779 l 193 28 q 135 -3 189 -3 l 125 -3 q 72 28 72 -3 l 168 944 q 226 975 171 975 l 256 975 q 290 969 278 975 q 311 949 303 964 l 693 279 l 726 201 l 804 944 q 863 975 807 975 l 872 975 m 847 729 q 900 699 900 729 l 815 -103 q 744 -259 803 -224 q 632 -294 685 -294 q 553 -278 583 -294 q 524 -237 524 -262 q 528 -183 524 -194 q 539 -171 533 -171 q 564 -183 547 -171 q 617 -194 581 -194 q 672 -174 649 -194 q 700 -92 694 -154 l 783 699 q 842 729 788 729 l 847 729 z "},"ǋ":{"ha":1382,"x_min":72,"x_max":1321,"o":"m 872 975 q 925 944 925 975 l 829 28 q 771 -3 825 -3 l 743 -3 q 713 2 724 -3 q 696 17 701 7 l 301 708 l 272 779 l 193 28 q 135 -3 189 -3 l 125 -3 q 72 28 72 -3 l 168 944 q 226 975 171 975 l 256 975 q 290 969 278 975 q 311 949 303 964 l 693 279 l 726 201 l 804 944 q 863 975 807 975 l 872 975 m 1229 729 q 1282 699 1282 729 l 1197 -103 q 1126 -259 1185 -224 q 1014 -294 1067 -294 q 935 -278 965 -294 q 906 -237 906 -262 q 910 -183 906 -194 q 921 -171 915 -171 q 946 -183 929 -171 q 999 -194 963 -194 q 1053 -174 1031 -194 q 1082 -92 1076 -154 l 1165 699 q 1224 729 1169 729 l 1229 729 m 1268 1044 q 1321 1014 1321 1044 l 1313 932 q 1260 901 1313 901 l 1243 901 q 1185 932 1185 901 l 1193 1014 q 1251 1044 1197 1044 l 1268 1044 z "},"Ñ":{"ha":999,"x_min":72,"x_max":925,"o":"m 872 975 q 925 944 925 975 l 829 28 q 771 -3 825 -3 l 743 -3 q 713 2 724 -3 q 696 17 701 7 l 301 708 l 272 779 l 193 28 q 135 -3 189 -3 l 125 -3 q 72 28 72 -3 l 168 944 q 226 975 171 975 l 256 975 q 290 969 278 975 q 311 949 303 964 l 693 279 l 726 201 l 804 944 q 863 975 807 975 l 872 975 z "},"O":{"ha":1015,"x_min":74,"x_max":942,"o":"m 558 981 q 844 881 746 981 q 942 583 942 781 q 810 143 942 294 q 454 -8 678 -8 q 171 93 268 -8 q 74 392 74 194 q 119 673 74 538 q 269 894 164 808 q 558 981 375 981 m 547 875 q 294 756 389 875 q 200 404 200 638 q 465 97 200 97 q 718 218 622 97 q 814 569 814 339 q 547 875 814 875 z "},"Ó":{"ha":1015,"x_min":74,"x_max":942,"o":"m 558 981 q 844 881 746 981 q 942 583 942 781 q 810 143 942 294 q 454 -8 678 -8 q 171 93 268 -8 q 74 392 74 194 q 119 673 74 538 q 269 894 164 808 q 558 981 375 981 m 547 875 q 294 756 389 875 q 200 404 200 638 q 465 97 200 97 q 718 218 622 97 q 814 569 814 339 q 547 875 814 875 m 692 1263 q 757 1246 757 1263 q 748 1226 757 1238 q 708 1183 739 1214 q 610 1083 676 1151 q 577 1065 597 1071 q 536 1058 557 1058 q 506 1071 506 1058 q 524 1110 506 1081 q 601 1226 542 1140 q 637 1254 615 1246 q 692 1263 658 1263 z "},"Ŏ":{"ha":1015,"x_min":74,"x_max":942,"o":"m 558 981 q 844 881 746 981 q 942 583 942 781 q 810 143 942 294 q 454 -8 678 -8 q 171 93 268 -8 q 74 392 74 194 q 119 673 74 538 q 269 894 164 808 q 558 981 375 981 m 547 875 q 294 756 389 875 q 200 404 200 638 q 465 97 200 97 q 718 218 622 97 q 814 569 814 339 q 547 875 814 875 m 763 1239 q 782 1222 782 1239 q 708 1099 782 1140 q 565 1058 635 1058 q 437 1094 494 1058 q 379 1201 379 1129 q 403 1239 379 1239 q 422 1230 421 1239 q 431 1204 424 1221 q 483 1163 443 1175 q 575 1150 524 1150 q 668 1163 625 1150 q 729 1204 711 1175 q 742 1230 739 1221 q 763 1239 744 1239 z "},"Ô":{"ha":1015,"x_min":74,"x_max":942,"o":"m 558 981 q 844 881 746 981 q 942 583 942 781 q 810 143 942 294 q 454 -8 678 -8 q 171 93 268 -8 q 74 392 74 194 q 119 673 74 538 q 269 894 164 808 q 558 981 375 981 m 547 875 q 294 756 389 875 q 200 404 200 638 q 465 97 200 97 q 718 218 622 97 q 814 569 814 339 q 547 875 814 875 m 593 1243 q 629 1235 613 1243 q 654 1213 646 1228 l 719 1090 q 726 1067 726 1079 q 690 1046 724 1046 l 688 1046 q 643 1064 661 1046 l 567 1167 l 471 1064 q 449 1050 460 1054 q 422 1046 438 1046 l 419 1046 q 390 1063 390 1046 q 400 1090 390 1075 l 492 1213 q 520 1235 503 1228 q 558 1243 538 1243 l 593 1243 z "},"Ố":{"ha":1015,"x_min":74,"x_max":942,"o":"m 558 981 q 844 881 746 981 q 942 583 942 781 q 810 143 942 294 q 454 -8 678 -8 q 171 93 268 -8 q 74 392 74 194 q 119 673 74 538 q 269 894 164 808 q 558 981 375 981 m 547 875 q 294 756 389 875 q 200 404 200 638 q 465 97 200 97 q 718 218 622 97 q 814 569 814 339 q 547 875 814 875 m 604 1243 q 632 1235 619 1243 q 651 1213 644 1228 l 710 1090 q 717 1067 717 1079 q 681 1046 714 1046 l 678 1046 q 652 1049 664 1046 q 633 1064 640 1053 l 578 1167 l 482 1064 q 460 1050 471 1054 q 433 1046 449 1046 l 431 1046 q 401 1063 401 1046 q 411 1090 401 1075 l 503 1213 q 531 1235 514 1228 q 569 1243 549 1243 l 604 1243 m 879 1335 q 924 1318 924 1335 q 902 1288 924 1313 q 796 1169 881 1263 q 773 1151 786 1157 q 743 1144 760 1144 q 713 1157 713 1144 q 726 1193 713 1165 q 789 1299 740 1221 q 823 1325 800 1315 q 879 1335 846 1335 z "},"Ộ":{"ha":1015,"x_min":74,"x_max":942,"o":"m 558 981 q 844 881 746 981 q 942 583 942 781 q 810 143 942 294 q 454 -8 678 -8 q 171 93 268 -8 q 74 392 74 194 q 119 673 74 538 q 269 894 164 808 q 558 981 375 981 m 547 875 q 294 756 389 875 q 200 404 200 638 q 465 97 200 97 q 718 218 622 97 q 814 569 814 339 q 547 875 814 875 m 593 1243 q 629 1235 613 1243 q 654 1213 646 1228 l 719 1090 q 726 1067 726 1079 q 690 1046 724 1046 l 688 1046 q 643 1064 661 1046 l 567 1167 l 471 1064 q 449 1050 460 1054 q 422 1046 438 1046 l 419 1046 q 390 1063 390 1046 q 400 1090 390 1075 l 492 1213 q 520 1235 503 1228 q 558 1243 538 1243 l 593 1243 z "},"Ồ":{"ha":1015,"x_min":74,"x_max":942,"o":"m 558 981 q 844 881 746 981 q 942 583 942 781 q 810 143 942 294 q 454 -8 678 -8 q 171 93 268 -8 q 74 392 74 194 q 119 673 74 538 q 269 894 164 808 q 558 981 375 981 m 547 875 q 294 756 389 875 q 200 404 200 638 q 465 97 200 97 q 718 218 622 97 q 814 569 814 339 q 547 875 814 875 m 604 1243 q 632 1235 619 1243 q 651 1213 644 1228 l 710 1090 q 717 1067 717 1079 q 681 1046 714 1046 l 678 1046 q 652 1049 664 1046 q 633 1064 640 1053 l 578 1167 l 482 1064 q 460 1050 471 1054 q 433 1046 449 1046 l 431 1046 q 401 1063 401 1046 q 411 1090 401 1075 l 503 1213 q 531 1235 514 1228 q 569 1243 549 1243 l 604 1243 m 704 1339 q 742 1332 722 1339 q 771 1303 763 1325 q 813 1196 803 1225 q 822 1157 822 1167 q 790 1144 822 1144 q 760 1151 774 1144 q 740 1169 747 1157 q 670 1282 686 1254 q 653 1322 654 1310 q 704 1339 653 1339 z "},"Ổ":{"ha":1015,"x_min":74,"x_max":942,"o":"m 558 981 q 844 881 746 981 q 942 583 942 781 q 810 143 942 294 q 454 -8 678 -8 q 171 93 268 -8 q 74 392 74 194 q 119 673 74 538 q 269 894 164 808 q 558 981 375 981 m 547 875 q 294 756 389 875 q 200 404 200 638 q 465 97 200 97 q 718 218 622 97 q 814 569 814 339 q 547 875 814 875 m 604 1243 q 632 1235 619 1243 q 651 1213 644 1228 l 710 1090 q 717 1067 717 1079 q 681 1046 714 1046 l 678 1046 q 652 1049 664 1046 q 633 1064 640 1053 l 578 1167 l 482 1064 q 460 1050 471 1054 q 433 1046 449 1046 l 431 1046 q 401 1063 401 1046 q 411 1090 401 1075 l 503 1213 q 531 1235 514 1228 q 569 1243 549 1243 l 604 1243 m 800 1256 q 753 1293 800 1293 q 706 1284 721 1293 q 686 1275 692 1275 q 668 1292 678 1275 q 658 1321 658 1310 q 697 1347 658 1335 q 771 1360 735 1360 q 844 1340 807 1360 q 881 1265 881 1319 q 860 1212 881 1233 q 822 1176 840 1190 q 788 1155 807 1164 q 761 1146 768 1146 q 714 1174 714 1146 q 751 1204 714 1185 q 800 1256 800 1229 z "},"Ỗ":{"ha":1015,"x_min":74,"x_max":942,"o":"m 558 981 q 844 881 746 981 q 942 583 942 781 q 810 143 942 294 q 454 -8 678 -8 q 171 93 268 -8 q 74 392 74 194 q 119 673 74 538 q 269 894 164 808 q 558 981 375 981 m 547 875 q 294 756 389 875 q 200 404 200 638 q 465 97 200 97 q 718 218 622 97 q 814 569 814 339 q 547 875 814 875 m 597 1210 q 632 1201 617 1210 q 658 1179 647 1192 l 722 1092 q 729 1068 729 1082 q 693 1047 726 1047 l 690 1047 q 666 1053 676 1047 q 646 1065 656 1058 l 571 1133 l 474 1065 q 451 1053 461 1058 q 425 1047 440 1047 l 422 1047 q 393 1064 393 1047 q 403 1092 393 1076 l 496 1179 q 526 1201 511 1192 q 563 1210 542 1210 l 597 1210 m 489 1400 q 604 1370 544 1400 q 708 1340 664 1340 q 738 1349 725 1340 q 764 1381 750 1358 q 782 1399 774 1396 q 801 1397 790 1403 l 811 1393 q 826 1380 824 1388 q 821 1357 828 1372 q 772 1284 800 1306 q 706 1263 743 1263 q 587 1292 647 1263 q 482 1322 526 1322 q 455 1313 467 1322 q 429 1281 443 1303 q 413 1262 419 1265 q 393 1264 406 1258 l 381 1269 q 368 1283 369 1275 q 372 1304 367 1290 q 422 1378 393 1357 q 489 1400 450 1400 z "},"Ö":{"ha":1015,"x_min":74,"x_max":942,"o":"m 558 981 q 844 881 746 981 q 942 583 942 781 q 810 143 942 294 q 454 -8 678 -8 q 171 93 268 -8 q 74 392 74 194 q 119 673 74 538 q 269 894 164 808 q 558 981 375 981 m 547 875 q 294 756 389 875 q 200 404 200 638 q 465 97 200 97 q 718 218 622 97 q 814 569 814 339 q 547 875 814 875 m 682 1221 q 735 1190 735 1221 l 728 1119 q 664 1089 724 1089 q 611 1119 611 1089 l 618 1190 q 682 1221 621 1221 m 482 1221 q 535 1190 535 1221 l 528 1119 q 464 1089 524 1089 q 411 1119 411 1089 l 418 1190 q 482 1221 422 1221 z "},"Ọ":{"ha":1015,"x_min":74,"x_max":942,"o":"m 558 981 q 844 881 746 981 q 942 583 942 781 q 810 143 942 294 q 454 -8 678 -8 q 171 93 268 -8 q 74 392 74 194 q 119 673 74 538 q 269 894 164 808 q 558 981 375 981 m 547 875 q 294 756 389 875 q 200 404 200 638 q 465 97 200 97 q 718 218 622 97 q 814 569 814 339 q 547 875 814 875 z "},"Ò":{"ha":1015,"x_min":74,"x_max":942,"o":"m 558 981 q 844 881 746 981 q 942 583 942 781 q 810 143 942 294 q 454 -8 678 -8 q 171 93 268 -8 q 74 392 74 194 q 119 673 74 538 q 269 894 164 808 q 558 981 375 981 m 547 875 q 294 756 389 875 q 200 404 200 638 q 465 97 200 97 q 718 218 622 97 q 814 569 814 339 q 547 875 814 875 m 460 1263 q 514 1254 493 1263 q 546 1226 535 1246 q 612 1110 597 1139 q 626 1071 626 1081 q 594 1058 626 1058 q 554 1065 574 1058 q 524 1083 535 1071 q 414 1209 435 1185 q 393 1246 393 1233 q 460 1263 394 1263 z "},"Ỏ":{"ha":1015,"x_min":74,"x_max":942,"o":"m 558 981 q 844 881 746 981 q 942 583 942 781 q 810 143 942 294 q 454 -8 678 -8 q 171 93 268 -8 q 74 392 74 194 q 119 673 74 538 q 269 894 164 808 q 558 981 375 981 m 547 875 q 294 756 389 875 q 200 404 200 638 q 465 97 200 97 q 718 218 622 97 q 814 569 814 339 q 547 875 814 875 m 619 1182 q 572 1217 619 1217 q 526 1208 540 1217 q 506 1199 511 1199 q 488 1217 497 1199 q 478 1244 478 1235 q 516 1273 478 1258 q 590 1288 554 1288 q 668 1267 625 1288 q 711 1190 711 1246 q 680 1105 711 1142 q 615 1048 649 1068 q 574 1028 581 1028 q 519 1051 519 1028 q 544 1087 519 1071 q 594 1124 569 1103 q 619 1182 619 1146 z "},"Ơ":{"ha":1015,"x_min":74,"x_max":942,"o":"m 558 981 q 844 881 746 981 q 942 583 942 781 q 810 143 942 294 q 454 -8 678 -8 q 171 93 268 -8 q 74 392 74 194 q 119 673 74 538 q 269 894 164 808 q 558 981 375 981 m 547 875 q 294 756 389 875 q 200 404 200 638 q 465 97 200 97 q 718 218 622 97 q 814 569 814 339 q 547 875 814 875 m 851 1124 q 868 1129 858 1129 q 904 1097 892 1129 q 917 1036 917 1065 q 873 942 917 983 q 747 901 829 901 l 699 947 l 747 947 q 829 1003 829 947 q 815 1047 829 1026 q 800 1079 800 1067 q 815 1101 800 1093 l 851 1124 z "},"Ớ":{"ha":1015,"x_min":74,"x_max":942,"o":"m 558 981 q 844 881 746 981 q 942 583 942 781 q 810 143 942 294 q 454 -8 678 -8 q 171 93 268 -8 q 74 392 74 194 q 119 673 74 538 q 269 894 164 808 q 558 981 375 981 m 547 875 q 294 756 389 875 q 200 404 200 638 q 465 97 200 97 q 718 218 622 97 q 814 569 814 339 q 547 875 814 875 m 851 1124 q 868 1129 858 1129 q 904 1097 892 1129 q 917 1036 917 1065 q 873 942 917 983 q 747 901 829 901 l 699 947 l 747 947 q 829 1003 829 947 q 815 1047 829 1026 q 800 1079 800 1067 q 815 1101 800 1093 l 851 1124 m 710 1265 q 775 1249 775 1265 q 766 1228 775 1240 q 726 1185 757 1217 q 628 1086 694 1154 q 595 1067 615 1074 q 554 1061 575 1061 q 524 1074 524 1061 q 542 1113 524 1083 q 619 1229 560 1143 q 655 1257 633 1249 q 710 1265 676 1265 z "},"Ợ":{"ha":1015,"x_min":74,"x_max":942,"o":"m 558 981 q 844 881 746 981 q 942 583 942 781 q 810 143 942 294 q 454 -8 678 -8 q 171 93 268 -8 q 74 392 74 194 q 119 673 74 538 q 269 894 164 808 q 558 981 375 981 m 547 875 q 294 756 389 875 q 200 404 200 638 q 465 97 200 97 q 718 218 622 97 q 814 569 814 339 q 547 875 814 875 m 851 1124 q 868 1129 858 1129 q 904 1097 892 1129 q 917 1036 917 1065 q 873 942 917 983 q 747 901 829 901 l 699 947 l 747 947 q 829 1003 829 947 q 815 1047 829 1026 q 800 1079 800 1067 q 815 1101 800 1093 l 851 1124 z "},"Ờ":{"ha":1015,"x_min":74,"x_max":942,"o":"m 558 981 q 844 881 746 981 q 942 583 942 781 q 810 143 942 294 q 454 -8 678 -8 q 171 93 268 -8 q 74 392 74 194 q 119 673 74 538 q 269 894 164 808 q 558 981 375 981 m 547 875 q 294 756 389 875 q 200 404 200 638 q 465 97 200 97 q 718 218 622 97 q 814 569 814 339 q 547 875 814 875 m 851 1124 q 868 1129 858 1129 q 904 1097 892 1129 q 917 1036 917 1065 q 873 942 917 983 q 747 901 829 901 l 699 947 l 747 947 q 829 1003 829 947 q 815 1047 829 1026 q 800 1079 800 1067 q 815 1101 800 1093 l 851 1124 m 478 1265 q 532 1257 511 1265 q 564 1229 553 1249 q 630 1113 615 1142 q 644 1074 644 1083 q 613 1061 644 1061 q 572 1067 592 1061 q 542 1086 553 1074 q 432 1212 453 1188 q 411 1249 411 1236 q 478 1265 413 1265 z "},"Ở":{"ha":1015,"x_min":74,"x_max":942,"o":"m 558 981 q 844 881 746 981 q 942 583 942 781 q 810 143 942 294 q 454 -8 678 -8 q 171 93 268 -8 q 74 392 74 194 q 119 673 74 538 q 269 894 164 808 q 558 981 375 981 m 547 875 q 294 756 389 875 q 200 404 200 638 q 465 97 200 97 q 718 218 622 97 q 814 569 814 339 q 547 875 814 875 m 851 1124 q 868 1129 858 1129 q 904 1097 892 1129 q 917 1036 917 1065 q 873 942 917 983 q 747 901 829 901 l 699 947 l 747 947 q 829 1003 829 947 q 815 1047 829 1026 q 800 1079 800 1067 q 815 1101 800 1093 l 851 1124 m 638 1185 q 590 1219 638 1219 q 544 1210 558 1219 q 524 1201 529 1201 q 506 1219 515 1201 q 496 1247 496 1238 q 534 1276 496 1261 q 608 1290 572 1290 q 686 1269 643 1290 q 729 1193 729 1249 q 698 1108 729 1144 q 633 1051 667 1071 q 592 1031 599 1031 q 538 1054 538 1031 q 563 1090 538 1074 q 613 1127 588 1106 q 638 1185 638 1149 z "},"Ỡ":{"ha":1015,"x_min":74,"x_max":942,"o":"m 558 981 q 844 881 746 981 q 942 583 942 781 q 810 143 942 294 q 454 -8 678 -8 q 171 93 268 -8 q 74 392 74 194 q 119 673 74 538 q 269 894 164 808 q 558 981 375 981 m 547 875 q 294 756 389 875 q 200 404 200 638 q 465 97 200 97 q 718 218 622 97 q 814 569 814 339 q 547 875 814 875 m 851 1124 q 868 1129 858 1129 q 904 1097 892 1129 q 917 1036 917 1065 q 873 942 917 983 q 747 901 829 901 l 699 947 l 747 947 q 829 1003 829 947 q 815 1047 829 1026 q 800 1079 800 1067 q 815 1101 800 1093 l 851 1124 z "},"Ő":{"ha":1015,"x_min":74,"x_max":942,"o":"m 558 981 q 844 881 746 981 q 942 583 942 781 q 810 143 942 294 q 454 -8 678 -8 q 171 93 268 -8 q 74 392 74 194 q 119 673 74 538 q 269 894 164 808 q 558 981 375 981 m 547 875 q 294 756 389 875 q 200 404 200 638 q 465 97 200 97 q 718 218 622 97 q 814 569 814 339 q 547 875 814 875 m 808 1263 q 874 1246 874 1263 q 865 1226 874 1238 q 824 1183 856 1214 q 726 1083 792 1151 q 694 1065 714 1071 q 653 1058 674 1058 q 622 1071 622 1058 q 640 1110 622 1081 q 718 1226 658 1140 q 753 1254 732 1246 q 808 1263 775 1263 m 606 1263 q 671 1246 671 1263 q 662 1226 671 1238 q 621 1183 653 1214 q 524 1083 589 1151 q 491 1065 511 1071 q 450 1058 471 1058 q 419 1071 419 1058 q 438 1110 419 1081 q 515 1226 456 1140 q 551 1254 529 1246 q 606 1263 572 1263 z "},"Ō":{"ha":1015,"x_min":74,"x_max":942,"o":"m 558 981 q 844 881 746 981 q 942 583 942 781 q 810 143 942 294 q 454 -8 678 -8 q 171 93 268 -8 q 74 392 74 194 q 119 673 74 538 q 269 894 164 808 q 558 981 375 981 m 547 875 q 294 756 389 875 q 200 404 200 638 q 465 97 200 97 q 718 218 622 97 q 814 569 814 339 q 547 875 814 875 m 721 1194 q 744 1158 744 1194 q 740 1122 744 1147 q 710 1096 735 1096 l 396 1096 q 372 1133 372 1096 q 377 1169 372 1144 q 407 1194 382 1194 l 721 1194 z "},"Ǫ":{"ha":1015,"x_min":74,"x_max":942,"o":"m 558 981 q 844 881 746 981 q 942 583 942 781 q 810 143 942 294 q 454 -8 678 -8 q 171 93 268 -8 q 74 392 74 194 q 119 673 74 538 q 269 894 164 808 q 558 981 375 981 m 547 875 q 294 756 389 875 q 200 404 200 638 q 465 97 200 97 q 718 218 622 97 q 814 569 814 339 q 547 875 814 875 m 538 19 q 560 3 560 19 q 547 -41 560 -14 q 533 -97 533 -68 q 563 -148 533 -139 q 614 -157 592 -157 q 669 -144 646 -157 q 703 -132 693 -132 q 711 -150 711 -132 q 672 -236 711 -218 q 588 -254 632 -254 q 463 -210 489 -254 q 438 -131 438 -165 q 446 -78 438 -114 q 476 -11 454 -42 q 538 19 497 19 z "},"Ø":{"ha":1015,"x_min":-1,"x_max":976,"o":"m 558 981 q 843 881 747 981 l 929 965 q 949 975 939 975 q 967 967 958 975 l 969 964 q 976 949 976 957 q 967 929 976 939 l 876 839 q 942 583 942 742 q 810 143 942 294 q 454 -8 678 -8 q 150 117 246 -8 l 46 13 q 26 1 35 1 q 10 10 18 1 l 7 13 q -1 29 -1 21 q 10 49 -1 38 l 122 161 q 74 392 74 254 q 119 673 74 538 q 269 894 164 808 q 558 981 375 981 m 781 744 l 243 208 q 465 97 308 97 q 718 218 622 97 q 814 569 814 339 q 781 744 814 675 m 547 875 q 294 756 389 875 q 200 404 200 638 q 221 260 200 319 l 753 789 q 547 875 683 875 z "},"Ǿ":{"ha":1015,"x_min":-1,"x_max":976,"o":"m 558 981 q 843 881 747 981 l 929 965 q 949 975 939 975 q 967 967 958 975 l 969 964 q 976 949 976 957 q 967 929 976 939 l 876 839 q 942 583 942 742 q 810 143 942 294 q 454 -8 678 -8 q 150 117 246 -8 l 46 13 q 26 1 35 1 q 10 10 18 1 l 7 13 q -1 29 -1 21 q 10 49 -1 38 l 122 161 q 74 392 74 254 q 119 673 74 538 q 269 894 164 808 q 558 981 375 981 m 781 744 l 243 208 q 465 97 308 97 q 718 218 622 97 q 814 569 814 339 q 781 744 814 675 m 547 875 q 294 756 389 875 q 200 404 200 638 q 221 260 200 319 l 753 789 q 547 875 683 875 m 642 1263 q 707 1246 707 1263 q 698 1226 707 1238 q 658 1183 689 1214 q 560 1083 626 1151 q 527 1065 547 1071 q 486 1058 507 1058 q 456 1071 456 1058 q 474 1110 456 1081 q 551 1226 492 1140 q 587 1254 565 1246 q 642 1263 608 1263 z "},"Õ":{"ha":1015,"x_min":74,"x_max":942,"o":"m 558 981 q 844 881 746 981 q 942 583 942 781 q 810 143 942 294 q 454 -8 678 -8 q 171 93 268 -8 q 74 392 74 194 q 119 673 74 538 q 269 894 164 808 q 558 981 375 981 m 547 875 q 294 756 389 875 q 200 404 200 638 q 465 97 200 97 q 718 218 622 97 q 814 569 814 339 q 547 875 814 875 z "},"Œ":{"ha":1418,"x_min":74,"x_max":1418,"o":"m 558 981 q 872 850 771 981 l 844 821 l 858 931 q 904 972 863 972 l 1394 972 q 1418 942 1418 972 q 1414 892 1418 918 q 1383 867 1410 867 l 974 867 l 940 550 l 1307 550 q 1331 519 1331 550 q 1326 470 1331 496 q 1296 444 1322 444 l 929 444 l 894 106 l 1306 106 q 1329 75 1329 106 q 1325 26 1329 51 q 1294 0 1321 0 l 803 0 q 765 33 765 0 q 766 46 765 35 q 772 101 767 57 q 454 -8 650 -8 q 171 93 268 -8 q 74 392 74 194 q 204 832 74 683 q 558 981 335 981 m 547 875 q 294 756 389 875 q 200 404 200 638 q 465 97 200 97 q 718 218 622 97 q 814 569 814 339 q 547 875 814 875 z "},"P":{"ha":792,"x_min":69,"x_max":776,"o":"m 492 972 q 614 956 547 972 q 728 889 681 939 q 776 740 776 839 q 736 565 776 631 q 639 467 696 500 q 528 424 582 435 q 447 414 475 414 l 232 414 l 192 28 q 133 -3 188 -3 l 122 -3 q 69 28 69 -3 l 164 931 q 210 972 168 972 l 492 972 m 476 867 l 279 867 l 243 519 l 460 519 q 531 535 486 519 q 613 594 576 550 q 649 724 649 638 q 591 839 649 811 q 476 867 533 867 z "},"Þ":{"ha":788,"x_min":69,"x_max":758,"o":"m 235 975 q 288 944 288 975 l 272 803 l 474 803 q 597 786 531 803 q 710 719 663 769 q 758 571 758 669 q 721 396 758 461 q 628 298 683 331 q 519 255 574 265 q 429 244 464 244 l 214 244 l 192 28 q 133 -3 188 -3 l 122 -3 q 69 28 69 -3 l 165 944 q 224 975 169 975 l 235 975 m 458 697 l 261 697 l 225 350 l 442 350 q 514 365 469 350 q 594 424 558 381 q 631 554 631 468 q 573 669 631 642 q 458 697 515 697 z "},"Q":{"ha":1015,"x_min":83,"x_max":951,"o":"m 569 981 q 951 579 951 981 q 860 193 951 339 q 617 7 769 47 l 617 1 l 886 -86 q 903 -114 903 -93 q 894 -200 903 -182 q 874 -218 885 -218 q 810 -197 867 -218 q 674 -143 754 -175 q 514 -78 594 -111 q 374 -22 433 -46 q 301 8 314 3 q 83 386 83 93 q 143 713 83 581 q 312 913 203 844 q 569 981 421 981 m 558 875 q 308 753 404 875 q 211 403 211 631 q 476 93 211 93 q 728 214 632 93 q 824 561 824 335 q 558 875 824 875 z "},"R":{"ha":847,"x_min":69,"x_max":757,"o":"m 443 972 q 674 923 594 972 q 754 761 754 874 q 702 590 754 657 q 568 492 650 522 l 568 486 q 631 426 608 472 q 674 313 653 381 l 754 39 q 757 24 757 28 q 696 -3 757 -3 l 682 -3 q 628 19 633 -3 l 551 292 q 483 400 528 372 q 358 428 439 428 l 233 428 l 192 28 q 133 -3 188 -3 l 122 -3 q 69 28 69 -3 l 164 931 q 210 972 168 972 l 443 972 m 453 867 l 279 867 l 244 533 l 428 533 q 568 593 511 533 q 625 729 625 653 q 578 833 625 800 q 453 867 531 867 z "},"Ŕ":{"ha":847,"x_min":69,"x_max":757,"o":"m 443 972 q 674 923 594 972 q 754 761 754 874 q 702 590 754 657 q 568 492 650 522 l 568 486 q 631 426 608 472 q 674 313 653 381 l 754 39 q 757 24 757 28 q 696 -3 757 -3 l 682 -3 q 628 19 633 -3 l 551 292 q 483 400 528 372 q 358 428 439 428 l 233 428 l 192 28 q 133 -3 188 -3 l 122 -3 q 69 28 69 -3 l 164 931 q 210 972 168 972 l 443 972 m 453 867 l 279 867 l 244 533 l 428 533 q 568 593 511 533 q 625 729 625 653 q 578 833 625 800 q 453 867 531 867 m 557 1263 q 622 1246 622 1263 q 613 1226 622 1238 q 573 1183 604 1214 q 475 1083 542 1151 q 442 1065 463 1071 q 401 1058 422 1058 q 371 1071 371 1058 q 389 1110 371 1081 q 467 1226 407 1140 q 502 1254 481 1246 q 557 1263 524 1263 z "},"Ř":{"ha":847,"x_min":69,"x_max":757,"o":"m 443 972 q 674 923 594 972 q 754 761 754 874 q 702 590 754 657 q 568 492 650 522 l 568 486 q 631 426 608 472 q 674 313 653 381 l 754 39 q 757 24 757 28 q 696 -3 757 -3 l 682 -3 q 628 19 633 -3 l 551 292 q 483 400 528 372 q 358 428 439 428 l 233 428 l 192 28 q 133 -3 188 -3 l 122 -3 q 69 28 69 -3 l 164 931 q 210 972 168 972 l 443 972 m 453 867 l 279 867 l 244 533 l 428 533 q 568 593 511 533 q 625 729 625 653 q 578 833 625 800 q 453 867 531 867 m 588 1251 q 618 1232 618 1251 q 608 1207 618 1221 l 515 1085 q 487 1062 504 1069 q 449 1054 469 1054 l 414 1054 q 378 1062 394 1054 q 353 1085 361 1069 l 289 1207 q 282 1232 282 1219 q 317 1251 285 1251 l 319 1251 q 365 1233 347 1251 l 439 1131 l 538 1233 q 560 1247 549 1243 q 585 1251 571 1251 l 588 1251 z "},"Ŗ":{"ha":847,"x_min":69,"x_max":757,"o":"m 443 972 q 674 923 594 972 q 754 761 754 874 q 702 590 754 657 q 568 492 650 522 l 568 486 q 631 426 608 472 q 674 313 653 381 l 754 39 q 757 24 757 28 q 696 -3 757 -3 l 682 -3 q 628 19 633 -3 l 551 292 q 483 400 528 372 q 358 428 439 428 l 233 428 l 192 28 q 133 -3 188 -3 l 122 -3 q 69 28 69 -3 l 164 931 q 210 972 168 972 l 443 972 m 453 867 l 279 867 l 244 533 l 428 533 q 568 593 511 533 q 625 729 625 653 q 578 833 625 800 q 453 867 531 867 m 386 -71 q 425 -81 413 -71 q 438 -110 438 -92 q 406 -201 438 -150 q 334 -289 374 -251 q 271 -326 294 -326 q 247 -322 260 -326 q 233 -306 233 -318 q 273 -228 233 -274 q 313 -115 313 -182 q 374 -71 313 -71 l 386 -71 z "},"Ṛ":{"ha":847,"x_min":69,"x_max":757,"o":"m 443 972 q 674 923 594 972 q 754 761 754 874 q 702 590 754 657 q 568 492 650 522 l 568 486 q 631 426 608 472 q 674 313 653 381 l 754 39 q 757 24 757 28 q 696 -3 757 -3 l 682 -3 q 628 19 633 -3 l 551 292 q 483 400 528 372 q 358 428 439 428 l 233 428 l 192 28 q 133 -3 188 -3 l 122 -3 q 69 28 69 -3 l 164 931 q 210 972 168 972 l 443 972 m 453 867 l 279 867 l 244 533 l 428 533 q 568 593 511 533 q 625 729 625 653 q 578 833 625 800 q 453 867 531 867 z "},"S":{"ha":694,"x_min":50,"x_max":644,"o":"m 417 981 q 572 956 499 981 q 644 899 644 931 q 625 852 644 882 q 590 822 606 822 q 567 832 585 822 q 510 859 547 843 q 417 875 472 875 q 278 835 338 875 q 218 713 218 794 q 267 601 218 638 q 378 536 317 564 q 545 443 465 497 q 625 269 625 389 q 588 133 625 197 q 472 31 550 69 q 274 -8 394 -8 q 171 1 222 -8 q 85 35 119 11 q 50 103 50 58 q 56 142 50 117 q 76 168 61 168 q 93 162 83 168 q 113 150 103 156 q 197 113 149 128 q 297 97 244 97 q 444 143 389 97 q 499 258 499 189 q 442 369 499 333 q 328 432 386 406 q 172 523 251 465 q 93 703 93 581 q 136 851 93 789 q 253 947 179 913 q 417 981 326 981 z "},"Ś":{"ha":694,"x_min":50,"x_max":644,"o":"m 417 981 q 572 956 499 981 q 644 899 644 931 q 625 852 644 882 q 590 822 606 822 q 567 832 585 822 q 510 859 547 843 q 417 875 472 875 q 278 835 338 875 q 218 713 218 794 q 267 601 218 638 q 378 536 317 564 q 545 443 465 497 q 625 269 625 389 q 588 133 625 197 q 472 31 550 69 q 274 -8 394 -8 q 171 1 222 -8 q 85 35 119 11 q 50 103 50 58 q 56 142 50 117 q 76 168 61 168 q 93 162 83 168 q 113 150 103 156 q 197 113 149 128 q 297 97 244 97 q 444 143 389 97 q 499 258 499 189 q 442 369 499 333 q 328 432 386 406 q 172 523 251 465 q 93 703 93 581 q 136 851 93 789 q 253 947 179 913 q 417 981 326 981 m 550 1263 q 615 1246 615 1263 q 606 1226 615 1238 q 566 1183 597 1214 q 468 1083 535 1151 q 435 1065 456 1071 q 394 1058 415 1058 q 364 1071 364 1058 q 382 1110 364 1081 q 460 1226 400 1140 q 495 1254 474 1246 q 550 1263 517 1263 z "},"Š":{"ha":694,"x_min":50,"x_max":644,"o":"m 417 981 q 572 956 499 981 q 644 899 644 931 q 625 852 644 882 q 590 822 606 822 q 567 832 585 822 q 510 859 547 843 q 417 875 472 875 q 278 835 338 875 q 218 713 218 794 q 267 601 218 638 q 378 536 317 564 q 545 443 465 497 q 625 269 625 389 q 588 133 625 197 q 472 31 550 69 q 274 -8 394 -8 q 171 1 222 -8 q 85 35 119 11 q 50 103 50 58 q 56 142 50 117 q 76 168 61 168 q 93 162 83 168 q 113 150 103 156 q 197 113 149 128 q 297 97 244 97 q 444 143 389 97 q 499 258 499 189 q 442 369 499 333 q 328 432 386 406 q 172 523 251 465 q 93 703 93 581 q 136 851 93 789 q 253 947 179 913 q 417 981 326 981 m 581 1251 q 611 1232 611 1251 q 601 1207 611 1221 l 508 1085 q 480 1062 497 1069 q 442 1054 463 1054 l 407 1054 q 371 1062 388 1054 q 346 1085 354 1069 l 282 1207 q 275 1232 275 1219 q 310 1251 278 1251 l 313 1251 q 358 1233 340 1251 l 432 1131 l 531 1233 q 553 1247 542 1243 q 578 1251 564 1251 l 581 1251 z "},"Ş":{"ha":694,"x_min":50,"x_max":644,"o":"m 417 981 q 572 956 499 981 q 644 899 644 931 q 625 852 644 882 q 590 822 606 822 q 567 832 585 822 q 510 859 547 843 q 417 875 472 875 q 278 835 338 875 q 218 713 218 794 q 267 601 218 638 q 378 536 317 564 q 545 443 465 497 q 625 269 625 389 q 588 133 625 197 q 472 31 550 69 q 274 -8 394 -8 q 171 1 222 -8 q 85 35 119 11 q 50 103 50 58 q 56 142 50 117 q 76 168 61 168 q 93 162 83 168 q 113 150 103 156 q 197 113 149 128 q 297 97 244 97 q 444 143 389 97 q 499 258 499 189 q 442 369 499 333 q 328 432 386 406 q 172 523 251 465 q 93 703 93 581 q 136 851 93 789 q 253 947 179 913 q 417 981 326 981 m 336 0 l 301 -86 l 288 -68 l 314 -68 q 379 -82 336 -68 q 422 -154 422 -96 q 361 -268 422 -244 q 249 -292 300 -292 q 169 -282 224 -292 q 114 -235 114 -272 q 119 -194 114 -200 q 131 -189 125 -189 q 163 -206 135 -189 q 239 -224 190 -224 q 294 -215 265 -224 q 322 -168 322 -206 q 301 -133 322 -142 q 260 -119 281 -125 q 239 -96 239 -114 q 247 -74 239 -96 q 276 0 254 -53 l 336 0 z "},"Ŝ":{"ha":694,"x_min":50,"x_max":644,"o":"m 417 981 q 572 956 499 981 q 644 899 644 931 q 625 852 644 882 q 590 822 606 822 q 567 832 585 822 q 510 859 547 843 q 417 875 472 875 q 278 835 338 875 q 218 713 218 794 q 267 601 218 638 q 378 536 317 564 q 545 443 465 497 q 625 269 625 389 q 588 133 625 197 q 472 31 550 69 q 274 -8 394 -8 q 171 1 222 -8 q 85 35 119 11 q 50 103 50 58 q 56 142 50 117 q 76 168 61 168 q 93 162 83 168 q 113 150 103 156 q 197 113 149 128 q 297 97 244 97 q 444 143 389 97 q 499 258 499 189 q 442 369 499 333 q 328 432 386 406 q 172 523 251 465 q 93 703 93 581 q 136 851 93 789 q 253 947 179 913 q 417 981 326 981 m 451 1243 q 488 1235 471 1243 q 513 1213 504 1228 l 578 1090 q 585 1067 585 1079 q 549 1046 582 1046 l 546 1046 q 501 1064 519 1046 l 425 1167 l 329 1064 q 307 1050 318 1054 q 281 1046 296 1046 l 278 1046 q 249 1063 249 1046 q 258 1090 249 1075 l 350 1213 q 378 1235 361 1228 q 417 1243 396 1243 l 451 1243 z "},"Ș":{"ha":694,"x_min":50,"x_max":644,"o":"m 417 981 q 572 956 499 981 q 644 899 644 931 q 625 852 644 882 q 590 822 606 822 q 567 832 585 822 q 510 859 547 843 q 417 875 472 875 q 278 835 338 875 q 218 713 218 794 q 267 601 218 638 q 378 536 317 564 q 545 443 465 497 q 625 269 625 389 q 588 133 625 197 q 472 31 550 69 q 274 -8 394 -8 q 171 1 222 -8 q 85 35 119 11 q 50 103 50 58 q 56 142 50 117 q 76 168 61 168 q 93 162 83 168 q 113 150 103 156 q 197 113 149 128 q 297 97 244 97 q 444 143 389 97 q 499 258 499 189 q 442 369 499 333 q 328 432 386 406 q 172 523 251 465 q 93 703 93 581 q 136 851 93 789 q 253 947 179 913 q 417 981 326 981 m 310 -71 q 349 -81 336 -71 q 361 -110 361 -92 q 329 -201 361 -150 q 258 -289 297 -251 q 194 -326 218 -326 q 170 -322 183 -326 q 157 -306 157 -318 q 197 -228 157 -274 q 236 -115 236 -182 q 297 -71 236 -71 l 310 -71 z "},"Ṣ":{"ha":694,"x_min":50,"x_max":644,"o":"m 417 981 q 572 956 499 981 q 644 899 644 931 q 625 852 644 882 q 590 822 606 822 q 567 832 585 822 q 510 859 547 843 q 417 875 472 875 q 278 835 338 875 q 218 713 218 794 q 267 601 218 638 q 378 536 317 564 q 545 443 465 497 q 625 269 625 389 q 588 133 625 197 q 472 31 550 69 q 274 -8 394 -8 q 171 1 222 -8 q 85 35 119 11 q 50 103 50 58 q 56 142 50 117 q 76 168 61 168 q 93 162 83 168 q 113 150 103 156 q 197 113 149 128 q 297 97 244 97 q 444 143 389 97 q 499 258 499 189 q 442 369 499 333 q 328 432 386 406 q 172 523 251 465 q 93 703 93 581 q 136 851 93 789 q 253 947 179 913 q 417 981 326 981 z "},"ẞ":{"ha":972,"x_min":86,"x_max":917,"o":"m 572 981 q 764 967 686 981 q 889 936 842 954 q 906 907 894 933 q 917 869 917 881 q 910 846 917 856 l 674 551 q 854 469 804 525 q 904 317 904 413 q 850 126 904 197 q 720 23 796 54 q 576 -8 644 -8 q 506 -3 558 -8 q 406 16 453 1 q 357 61 358 31 q 364 130 357 117 q 378 143 371 143 q 434 117 382 143 q 576 92 486 92 q 711 137 639 92 q 783 317 783 182 q 727 433 783 401 q 579 464 671 464 l 543 464 q 525 492 533 464 q 517 531 517 519 q 524 554 517 544 l 767 856 q 677 869 731 863 q 551 875 624 875 q 346 797 413 875 q 268 603 279 719 l 208 28 q 150 -3 206 -3 l 139 -3 q 97 6 108 -3 q 86 28 86 14 l 146 597 q 257 868 161 756 q 572 981 353 981 z "},"Ə":{"ha":933,"x_min":96,"x_max":850,"o":"m 481 981 q 647 956 561 981 q 791 853 732 931 q 850 617 850 775 q 804 308 850 450 q 658 81 758 167 q 399 -6 558 -6 q 220 40 286 -6 q 125 148 154 85 q 96 263 96 211 q 160 465 96 392 q 326 569 225 539 q 540 600 428 600 q 649 597 600 600 q 729 590 697 594 q 659 823 729 765 q 471 881 589 881 q 322 857 383 881 q 223 809 260 833 q 172 785 186 785 q 163 801 163 785 q 164 823 163 804 q 169 864 165 842 q 240 931 181 906 q 369 969 299 957 q 481 981 439 981 m 722 500 l 554 500 q 480 496 533 500 q 365 472 426 492 q 260 405 304 451 q 217 274 217 358 q 269 149 217 204 q 411 94 321 94 q 580 151 517 94 q 676 301 643 208 q 722 500 710 394 z "},"T":{"ha":763,"x_min":67,"x_max":781,"o":"m 757 972 q 781 942 781 972 q 776 892 781 918 q 746 867 772 867 l 482 867 l 394 28 q 336 -3 390 -3 l 325 -3 q 283 6 294 -3 q 272 28 272 14 l 360 867 l 90 867 q 67 897 67 867 q 71 947 67 921 q 101 972 75 972 l 757 972 z "},"Ŧ":{"ha":763,"x_min":67,"x_max":781,"o":"m 757 972 q 781 942 781 972 q 776 892 781 918 q 746 867 772 867 l 482 867 l 394 28 q 336 -3 390 -3 l 325 -3 q 283 6 294 -3 q 272 28 272 14 l 360 867 l 90 867 q 67 897 67 867 q 71 947 67 921 q 101 972 75 972 l 757 972 m 635 540 q 658 504 658 540 q 653 467 658 493 q 624 442 649 442 l 115 442 q 92 479 92 442 q 97 515 92 490 q 126 540 101 540 l 635 540 z "},"Ť":{"ha":763,"x_min":67,"x_max":781,"o":"m 757 972 q 781 942 781 972 q 776 892 781 918 q 746 867 772 867 l 482 867 l 394 28 q 336 -3 390 -3 l 325 -3 q 283 6 294 -3 q 272 28 272 14 l 360 867 l 90 867 q 67 897 67 867 q 71 947 67 921 q 101 972 75 972 l 757 972 m 588 1251 q 618 1232 618 1251 q 608 1207 618 1221 l 515 1085 q 487 1062 504 1069 q 449 1054 469 1054 l 414 1054 q 378 1062 394 1054 q 353 1085 361 1069 l 289 1207 q 282 1232 282 1219 q 317 1251 285 1251 l 319 1251 q 365 1233 347 1251 l 439 1131 l 538 1233 q 560 1247 549 1243 q 585 1251 571 1251 l 588 1251 z "},"Ţ":{"ha":763,"x_min":67,"x_max":781,"o":"m 757 972 q 781 942 781 972 q 776 892 781 918 q 746 867 772 867 l 482 867 l 394 28 q 336 -3 390 -3 l 325 -3 q 283 6 294 -3 q 272 28 272 14 l 360 867 l 90 867 q 67 897 67 867 q 71 947 67 921 q 101 972 75 972 l 757 972 m 346 -3 l 311 -89 l 297 -71 l 324 -71 q 389 -85 346 -71 q 432 -157 432 -99 q 371 -271 432 -247 q 258 -294 310 -294 q 178 -285 233 -294 q 124 -237 124 -275 q 129 -197 124 -203 q 140 -192 135 -192 q 172 -209 144 -192 q 249 -226 200 -226 q 303 -217 275 -226 q 332 -171 332 -208 q 311 -136 332 -144 q 269 -122 290 -128 q 249 -99 249 -117 q 256 -77 249 -99 q 286 -3 264 -56 l 346 -3 z "},"Ț":{"ha":763,"x_min":67,"x_max":781,"o":"m 757 972 q 781 942 781 972 q 776 892 781 918 q 746 867 772 867 l 482 867 l 394 28 q 336 -3 390 -3 l 325 -3 q 283 6 294 -3 q 272 28 272 14 l 360 867 l 90 867 q 67 897 67 867 q 71 947 67 921 q 101 972 75 972 l 757 972 m 319 -74 q 358 -84 346 -74 q 371 -112 371 -94 q 339 -203 371 -153 q 267 -292 307 -254 q 204 -329 228 -329 q 180 -325 193 -329 q 167 -308 167 -321 q 206 -231 167 -276 q 246 -118 246 -185 q 307 -74 246 -74 l 319 -74 z "},"Ṭ":{"ha":763,"x_min":67,"x_max":781,"o":"m 757 972 q 781 942 781 972 q 776 892 781 918 q 746 867 772 867 l 482 867 l 394 28 q 336 -3 390 -3 l 325 -3 q 283 6 294 -3 q 272 28 272 14 l 360 867 l 90 867 q 67 897 67 867 q 71 947 67 921 q 101 972 75 972 l 757 972 z "},"U":{"ha":989,"x_min":89,"x_max":917,"o":"m 865 975 q 906 967 896 975 q 917 944 917 958 l 850 311 q 728 76 835 161 q 438 -8 621 -8 q 178 65 267 -8 q 89 268 89 138 q 90 290 89 274 q 98 368 92 307 q 119 565 104 429 q 158 944 133 701 q 218 975 161 975 l 229 975 q 270 967 260 975 q 281 944 281 958 q 241 569 256 703 q 221 376 226 435 q 214 303 215 317 q 213 286 213 289 q 272 149 213 201 q 449 97 332 97 q 639 156 560 97 q 728 307 718 215 l 794 944 q 854 975 797 975 l 865 975 z "},"Ú":{"ha":989,"x_min":89,"x_max":917,"o":"m 865 975 q 906 967 896 975 q 917 944 917 958 l 850 311 q 728 76 835 161 q 438 -8 621 -8 q 178 65 267 -8 q 89 268 89 138 q 90 290 89 274 q 98 368 92 307 q 119 565 104 429 q 158 944 133 701 q 218 975 161 975 l 229 975 q 270 967 260 975 q 281 944 281 958 q 241 569 256 703 q 221 376 226 435 q 214 303 215 317 q 213 286 213 289 q 272 149 213 201 q 449 97 332 97 q 639 156 560 97 q 728 307 718 215 l 794 944 q 854 975 797 975 l 865 975 m 669 1263 q 735 1246 735 1263 q 726 1226 735 1238 q 685 1183 717 1214 q 588 1083 654 1151 q 555 1065 575 1071 q 514 1058 535 1058 q 483 1071 483 1058 q 501 1110 483 1081 q 579 1226 519 1140 q 615 1254 593 1246 q 669 1263 636 1263 z "},"Ŭ":{"ha":989,"x_min":89,"x_max":917,"o":"m 865 975 q 906 967 896 975 q 917 944 917 958 l 850 311 q 728 76 835 161 q 438 -8 621 -8 q 178 65 267 -8 q 89 268 89 138 q 90 290 89 274 q 98 368 92 307 q 119 565 104 429 q 158 944 133 701 q 218 975 161 975 l 229 975 q 270 967 260 975 q 281 944 281 958 q 241 569 256 703 q 221 376 226 435 q 214 303 215 317 q 213 286 213 289 q 272 149 213 201 q 449 97 332 97 q 639 156 560 97 q 728 307 718 215 l 794 944 q 854 975 797 975 l 865 975 m 740 1239 q 760 1222 760 1239 q 686 1099 760 1140 q 543 1058 613 1058 q 415 1094 472 1058 q 357 1201 357 1129 q 381 1239 357 1239 q 400 1230 399 1239 q 408 1204 401 1221 q 461 1163 421 1175 q 553 1150 501 1150 q 646 1163 603 1150 q 707 1204 689 1175 q 719 1230 717 1221 q 740 1239 722 1239 z "},"Û":{"ha":989,"x_min":89,"x_max":917,"o":"m 865 975 q 906 967 896 975 q 917 944 917 958 l 850 311 q 728 76 835 161 q 438 -8 621 -8 q 178 65 267 -8 q 89 268 89 138 q 90 290 89 274 q 98 368 92 307 q 119 565 104 429 q 158 944 133 701 q 218 975 161 975 l 229 975 q 270 967 260 975 q 281 944 281 958 q 241 569 256 703 q 221 376 226 435 q 214 303 215 317 q 213 286 213 289 q 272 149 213 201 q 449 97 332 97 q 639 156 560 97 q 728 307 718 215 l 794 944 q 854 975 797 975 l 865 975 m 571 1243 q 607 1235 590 1243 q 632 1213 624 1228 l 697 1090 q 704 1067 704 1079 q 668 1046 701 1046 l 665 1046 q 621 1064 639 1046 l 544 1167 l 449 1064 q 426 1050 438 1054 q 400 1046 415 1046 l 397 1046 q 368 1063 368 1046 q 378 1090 368 1075 l 469 1213 q 498 1235 481 1228 q 536 1243 515 1243 l 571 1243 z "},"Ü":{"ha":989,"x_min":89,"x_max":917,"o":"m 865 975 q 906 967 896 975 q 917 944 917 958 l 850 311 q 728 76 835 161 q 438 -8 621 -8 q 178 65 267 -8 q 89 268 89 138 q 90 290 89 274 q 98 368 92 307 q 119 565 104 429 q 158 944 133 701 q 218 975 161 975 l 229 975 q 270 967 260 975 q 281 944 281 958 q 241 569 256 703 q 221 376 226 435 q 214 303 215 317 q 213 286 213 289 q 272 149 213 201 q 449 97 332 97 q 639 156 560 97 q 728 307 718 215 l 794 944 q 854 975 797 975 l 865 975 m 660 1221 q 713 1190 713 1221 l 706 1119 q 642 1089 701 1089 q 589 1119 589 1089 l 596 1190 q 660 1221 599 1221 m 460 1221 q 513 1190 513 1221 l 506 1119 q 442 1089 501 1089 q 389 1119 389 1089 l 396 1190 q 460 1221 400 1221 z "},"Ụ":{"ha":989,"x_min":89,"x_max":917,"o":"m 865 975 q 906 967 896 975 q 917 944 917 958 l 850 311 q 728 76 835 161 q 438 -8 621 -8 q 178 65 267 -8 q 89 268 89 138 q 90 290 89 274 q 98 368 92 307 q 119 565 104 429 q 158 944 133 701 q 218 975 161 975 l 229 975 q 270 967 260 975 q 281 944 281 958 q 241 569 256 703 q 221 376 226 435 q 214 303 215 317 q 213 286 213 289 q 272 149 213 201 q 449 97 332 97 q 639 156 560 97 q 728 307 718 215 l 794 944 q 854 975 797 975 l 865 975 z "},"Ù":{"ha":989,"x_min":89,"x_max":917,"o":"m 865 975 q 906 967 896 975 q 917 944 917 958 l 850 311 q 728 76 835 161 q 438 -8 621 -8 q 178 65 267 -8 q 89 268 89 138 q 90 290 89 274 q 98 368 92 307 q 119 565 104 429 q 158 944 133 701 q 218 975 161 975 l 229 975 q 270 967 260 975 q 281 944 281 958 q 241 569 256 703 q 221 376 226 435 q 214 303 215 317 q 213 286 213 289 q 272 149 213 201 q 449 97 332 97 q 639 156 560 97 q 728 307 718 215 l 794 944 q 854 975 797 975 l 865 975 m 438 1263 q 492 1254 471 1263 q 524 1226 513 1246 q 590 1110 575 1139 q 604 1071 604 1081 q 572 1058 604 1058 q 532 1065 551 1058 q 501 1083 513 1071 q 392 1209 413 1185 q 371 1246 371 1233 q 438 1263 372 1263 z "},"Ủ":{"ha":989,"x_min":89,"x_max":917,"o":"m 865 975 q 906 967 896 975 q 917 944 917 958 l 850 311 q 728 76 835 161 q 438 -8 621 -8 q 178 65 267 -8 q 89 268 89 138 q 90 290 89 274 q 98 368 92 307 q 119 565 104 429 q 158 944 133 701 q 218 975 161 975 l 229 975 q 270 967 260 975 q 281 944 281 958 q 241 569 256 703 q 221 376 226 435 q 214 303 215 317 q 213 286 213 289 q 272 149 213 201 q 449 97 332 97 q 639 156 560 97 q 728 307 718 215 l 794 944 q 854 975 797 975 l 865 975 m 597 1182 q 550 1217 597 1217 q 503 1208 518 1217 q 483 1199 489 1199 q 465 1217 475 1199 q 456 1244 456 1235 q 494 1273 456 1258 q 568 1288 532 1288 q 646 1267 603 1288 q 689 1190 689 1246 q 658 1105 689 1142 q 592 1048 626 1068 q 551 1028 558 1028 q 497 1051 497 1028 q 522 1087 497 1071 q 572 1124 547 1103 q 597 1182 597 1146 z "},"Ư":{"ha":989,"x_min":89,"x_max":1072,"o":"m 865 975 q 906 967 896 975 q 917 944 917 958 l 850 311 q 728 76 835 161 q 438 -8 621 -8 q 178 65 267 -8 q 89 268 89 138 q 90 290 89 274 q 98 368 92 307 q 119 565 104 429 q 158 944 133 701 q 218 975 161 975 l 229 975 q 270 967 260 975 q 281 944 281 958 q 241 569 256 703 q 221 376 226 435 q 214 303 215 317 q 213 286 213 289 q 272 149 213 201 q 449 97 332 97 q 639 156 560 97 q 728 307 718 215 l 794 944 q 854 975 797 975 l 865 975 m 1007 1151 q 1024 1157 1014 1157 q 1060 1125 1047 1157 q 1072 1064 1072 1093 q 1028 970 1072 1011 q 903 929 985 929 l 854 975 l 903 975 q 985 1031 985 975 q 970 1074 985 1054 q 956 1107 956 1094 q 971 1129 956 1121 l 1007 1151 z "},"Ứ":{"ha":989,"x_min":89,"x_max":1072,"o":"m 865 975 q 906 967 896 975 q 917 944 917 958 l 850 311 q 728 76 835 161 q 438 -8 621 -8 q 178 65 267 -8 q 89 268 89 138 q 90 290 89 274 q 98 368 92 307 q 119 565 104 429 q 158 944 133 701 q 218 975 161 975 l 229 975 q 270 967 260 975 q 281 944 281 958 q 241 569 256 703 q 221 376 226 435 q 214 303 215 317 q 213 286 213 289 q 272 149 213 201 q 449 97 332 97 q 639 156 560 97 q 728 307 718 215 l 794 944 q 854 975 797 975 l 865 975 m 669 1263 q 735 1246 735 1263 q 726 1226 735 1238 q 685 1183 717 1214 q 588 1083 654 1151 q 555 1065 575 1071 q 514 1058 535 1058 q 483 1071 483 1058 q 501 1110 483 1081 q 579 1226 519 1140 q 615 1254 593 1246 q 669 1263 636 1263 m 1007 1151 q 1024 1157 1014 1157 q 1060 1125 1047 1157 q 1072 1064 1072 1093 q 1028 970 1072 1011 q 903 929 985 929 l 854 975 l 903 975 q 985 1031 985 975 q 970 1074 985 1054 q 956 1107 956 1094 q 971 1129 956 1121 l 1007 1151 z "},"Ự":{"ha":989,"x_min":89,"x_max":1072,"o":"m 865 975 q 906 967 896 975 q 917 944 917 958 l 850 311 q 728 76 835 161 q 438 -8 621 -8 q 178 65 267 -8 q 89 268 89 138 q 90 290 89 274 q 98 368 92 307 q 119 565 104 429 q 158 944 133 701 q 218 975 161 975 l 229 975 q 270 967 260 975 q 281 944 281 958 q 241 569 256 703 q 221 376 226 435 q 214 303 215 317 q 213 286 213 289 q 272 149 213 201 q 449 97 332 97 q 639 156 560 97 q 728 307 718 215 l 794 944 q 854 975 797 975 l 865 975 m 1007 1151 q 1024 1157 1014 1157 q 1060 1125 1047 1157 q 1072 1064 1072 1093 q 1028 970 1072 1011 q 903 929 985 929 l 854 975 l 903 975 q 985 1031 985 975 q 970 1074 985 1054 q 956 1107 956 1094 q 971 1129 956 1121 l 1007 1151 z "},"Ừ":{"ha":989,"x_min":89,"x_max":1072,"o":"m 865 975 q 906 967 896 975 q 917 944 917 958 l 850 311 q 728 76 835 161 q 438 -8 621 -8 q 178 65 267 -8 q 89 268 89 138 q 90 290 89 274 q 98 368 92 307 q 119 565 104 429 q 158 944 133 701 q 218 975 161 975 l 229 975 q 270 967 260 975 q 281 944 281 958 q 241 569 256 703 q 221 376 226 435 q 214 303 215 317 q 213 286 213 289 q 272 149 213 201 q 449 97 332 97 q 639 156 560 97 q 728 307 718 215 l 794 944 q 854 975 797 975 l 865 975 m 438 1263 q 492 1254 471 1263 q 524 1226 513 1246 q 590 1110 575 1139 q 604 1071 604 1081 q 572 1058 604 1058 q 532 1065 551 1058 q 501 1083 513 1071 q 392 1209 413 1185 q 371 1246 371 1233 q 438 1263 372 1263 m 1007 1151 q 1024 1157 1014 1157 q 1060 1125 1047 1157 q 1072 1064 1072 1093 q 1028 970 1072 1011 q 903 929 985 929 l 854 975 l 903 975 q 985 1031 985 975 q 970 1074 985 1054 q 956 1107 956 1094 q 971 1129 956 1121 l 1007 1151 z "},"Ử":{"ha":989,"x_min":89,"x_max":1072,"o":"m 865 975 q 906 967 896 975 q 917 944 917 958 l 850 311 q 728 76 835 161 q 438 -8 621 -8 q 178 65 267 -8 q 89 268 89 138 q 90 290 89 274 q 98 368 92 307 q 119 565 104 429 q 158 944 133 701 q 218 975 161 975 l 229 975 q 270 967 260 975 q 281 944 281 958 q 241 569 256 703 q 221 376 226 435 q 214 303 215 317 q 213 286 213 289 q 272 149 213 201 q 449 97 332 97 q 639 156 560 97 q 728 307 718 215 l 794 944 q 854 975 797 975 l 865 975 m 597 1182 q 550 1217 597 1217 q 503 1208 518 1217 q 483 1199 489 1199 q 465 1217 475 1199 q 456 1244 456 1235 q 494 1273 456 1258 q 568 1288 532 1288 q 646 1267 603 1288 q 689 1190 689 1246 q 658 1105 689 1142 q 592 1048 626 1068 q 551 1028 558 1028 q 497 1051 497 1028 q 522 1087 497 1071 q 572 1124 547 1103 q 597 1182 597 1146 m 1007 1151 q 1024 1157 1014 1157 q 1060 1125 1047 1157 q 1072 1064 1072 1093 q 1028 970 1072 1011 q 903 929 985 929 l 854 975 l 903 975 q 985 1031 985 975 q 970 1074 985 1054 q 956 1107 956 1094 q 971 1129 956 1121 l 1007 1151 z "},"Ữ":{"ha":989,"x_min":89,"x_max":1072,"o":"m 865 975 q 906 967 896 975 q 917 944 917 958 l 850 311 q 728 76 835 161 q 438 -8 621 -8 q 178 65 267 -8 q 89 268 89 138 q 90 290 89 274 q 98 368 92 307 q 119 565 104 429 q 158 944 133 701 q 218 975 161 975 l 229 975 q 270 967 260 975 q 281 944 281 958 q 241 569 256 703 q 221 376 226 435 q 214 303 215 317 q 213 286 213 289 q 272 149 213 201 q 449 97 332 97 q 639 156 560 97 q 728 307 718 215 l 794 944 q 854 975 797 975 l 865 975 m 1007 1151 q 1024 1157 1014 1157 q 1060 1125 1047 1157 q 1072 1064 1072 1093 q 1028 970 1072 1011 q 903 929 985 929 l 854 975 l 903 975 q 985 1031 985 975 q 970 1074 985 1054 q 956 1107 956 1094 q 971 1129 956 1121 l 1007 1151 z "},"Ű":{"ha":989,"x_min":89,"x_max":917,"o":"m 865 975 q 906 967 896 975 q 917 944 917 958 l 850 311 q 728 76 835 161 q 438 -8 621 -8 q 178 65 267 -8 q 89 268 89 138 q 90 290 89 274 q 98 368 92 307 q 119 565 104 429 q 158 944 133 701 q 218 975 161 975 l 229 975 q 270 967 260 975 q 281 944 281 958 q 241 569 256 703 q 221 376 226 435 q 214 303 215 317 q 213 286 213 289 q 272 149 213 201 q 449 97 332 97 q 639 156 560 97 q 728 307 718 215 l 794 944 q 854 975 797 975 l 865 975 m 786 1263 q 851 1246 851 1263 q 842 1226 851 1238 q 801 1183 833 1214 q 704 1083 769 1151 q 672 1065 692 1071 q 631 1058 651 1058 q 600 1071 600 1058 q 618 1110 600 1081 q 696 1226 636 1140 q 731 1254 710 1246 q 786 1263 753 1263 m 583 1263 q 649 1246 649 1263 q 640 1226 649 1238 q 599 1183 631 1214 q 501 1083 567 1151 q 469 1065 489 1071 q 428 1058 449 1058 q 397 1071 397 1058 q 415 1110 397 1081 q 493 1226 433 1140 q 528 1254 507 1246 q 583 1263 550 1263 z "},"Ū":{"ha":989,"x_min":89,"x_max":917,"o":"m 865 975 q 906 967 896 975 q 917 944 917 958 l 850 311 q 728 76 835 161 q 438 -8 621 -8 q 178 65 267 -8 q 89 268 89 138 q 90 290 89 274 q 98 368 92 307 q 119 565 104 429 q 158 944 133 701 q 218 975 161 975 l 229 975 q 270 967 260 975 q 281 944 281 958 q 241 569 256 703 q 221 376 226 435 q 214 303 215 317 q 213 286 213 289 q 272 149 213 201 q 449 97 332 97 q 639 156 560 97 q 728 307 718 215 l 794 944 q 854 975 797 975 l 865 975 m 699 1194 q 722 1158 722 1194 q 717 1122 722 1147 q 688 1096 713 1096 l 374 1096 q 350 1133 350 1096 q 355 1169 350 1144 q 385 1194 360 1194 l 699 1194 z "},"Ų":{"ha":989,"x_min":89,"x_max":917,"o":"m 865 975 q 906 967 896 975 q 917 944 917 958 l 850 311 q 728 76 835 161 q 438 -8 621 -8 q 178 65 267 -8 q 89 268 89 138 q 90 290 89 274 q 98 368 92 307 q 119 565 104 429 q 158 944 133 701 q 218 975 161 975 l 229 975 q 270 967 260 975 q 281 944 281 958 q 241 569 256 703 q 221 376 226 435 q 214 303 215 317 q 213 286 213 289 q 272 149 213 201 q 449 97 332 97 q 639 156 560 97 q 728 307 718 215 l 794 944 q 854 975 797 975 l 865 975 m 533 19 q 556 3 556 19 q 542 -41 556 -14 q 529 -97 529 -68 q 558 -148 529 -139 q 610 -157 588 -157 q 665 -144 642 -157 q 699 -132 689 -132 q 707 -150 707 -132 q 667 -236 707 -218 q 583 -254 628 -254 q 459 -210 485 -254 q 433 -131 433 -165 q 442 -78 433 -114 q 472 -11 450 -42 q 533 19 493 19 z "},"Ů":{"ha":989,"x_min":89,"x_max":917,"o":"m 865 975 q 906 967 896 975 q 917 944 917 958 l 850 311 q 728 76 835 161 q 438 -8 621 -8 q 178 65 267 -8 q 89 268 89 138 q 90 290 89 274 q 98 368 92 307 q 119 565 104 429 q 158 944 133 701 q 218 975 161 975 l 229 975 q 270 967 260 975 q 281 944 281 958 q 241 569 256 703 q 221 376 226 435 q 214 303 215 317 q 213 286 213 289 q 272 149 213 201 q 449 97 332 97 q 639 156 560 97 q 728 307 718 215 l 794 944 q 854 975 797 975 l 865 975 m 549 1264 q 624 1233 594 1264 q 654 1158 654 1203 q 615 1067 654 1106 q 525 1029 576 1029 q 449 1060 478 1029 q 419 1135 419 1090 q 458 1226 419 1188 q 549 1264 497 1264 m 544 1215 q 491 1193 514 1215 q 468 1140 468 1171 q 529 1078 468 1078 q 583 1100 561 1078 q 606 1154 606 1122 q 544 1215 606 1215 z "},"Ũ":{"ha":989,"x_min":89,"x_max":917,"o":"m 865 975 q 906 967 896 975 q 917 944 917 958 l 850 311 q 728 76 835 161 q 438 -8 621 -8 q 178 65 267 -8 q 89 268 89 138 q 90 290 89 274 q 98 368 92 307 q 119 565 104 429 q 158 944 133 701 q 218 975 161 975 l 229 975 q 270 967 260 975 q 281 944 281 958 q 241 569 256 703 q 221 376 226 435 q 214 303 215 317 q 213 286 213 289 q 272 149 213 201 q 449 97 332 97 q 639 156 560 97 q 728 307 718 215 l 794 944 q 854 975 797 975 l 865 975 z "},"V":{"ha":857,"x_min":76,"x_max":876,"o":"m 818 975 q 863 969 849 975 q 876 953 876 964 q 869 932 876 946 l 456 19 q 399 -3 446 -3 l 356 -3 q 301 19 307 -3 q 172 553 218 364 q 105 826 125 743 q 81 926 85 908 q 76 946 76 944 q 90 967 76 958 q 139 975 103 975 l 151 975 q 206 953 200 975 l 385 211 l 392 139 l 396 139 l 418 213 l 753 953 q 810 975 763 975 l 818 975 z "},"W":{"ha":1225,"x_min":68,"x_max":1253,"o":"m 1194 975 q 1253 953 1253 975 q 1249 942 1253 951 q 1230 888 1246 932 q 1178 746 1214 844 q 1076 472 1142 647 q 910 19 1011 296 q 890 2 906 7 q 853 -3 874 -3 l 796 -3 q 742 19 746 -3 l 650 585 l 640 765 l 592 585 l 382 19 q 325 -3 372 -3 l 268 -3 q 214 19 218 -3 l 68 947 q 88 971 68 967 q 131 975 107 975 l 143 975 q 197 953 193 975 l 303 269 q 310 192 307 242 q 314 140 314 143 l 363 276 l 601 951 q 657 975 608 975 l 679 975 q 732 951 728 975 l 832 268 q 840 186 838 232 q 842 140 842 140 l 890 279 l 1129 953 q 1186 975 1136 975 l 1194 975 z "},"Ẃ":{"ha":1225,"x_min":68,"x_max":1253,"o":"m 1194 975 q 1253 953 1253 975 q 1249 942 1253 951 q 1230 888 1246 932 q 1178 746 1214 844 q 1076 472 1142 647 q 910 19 1011 296 q 890 2 906 7 q 853 -3 874 -3 l 796 -3 q 742 19 746 -3 l 650 585 l 640 765 l 592 585 l 382 19 q 325 -3 372 -3 l 268 -3 q 214 19 218 -3 l 68 947 q 88 971 68 967 q 131 975 107 975 l 143 975 q 197 953 193 975 l 303 269 q 310 192 307 242 q 314 140 314 143 l 363 276 l 601 951 q 657 975 608 975 l 679 975 q 732 951 728 975 l 832 268 q 840 186 838 232 q 842 140 842 140 l 890 279 l 1129 953 q 1186 975 1136 975 l 1194 975 m 801 1263 q 867 1246 867 1263 q 858 1226 867 1238 q 817 1183 849 1214 q 719 1083 786 1151 q 687 1065 707 1071 q 646 1058 667 1058 q 615 1071 615 1058 q 633 1110 615 1081 q 711 1226 651 1140 q 747 1254 725 1246 q 801 1263 768 1263 z "},"Ŵ":{"ha":1225,"x_min":68,"x_max":1253,"o":"m 1194 975 q 1253 953 1253 975 q 1249 942 1253 951 q 1230 888 1246 932 q 1178 746 1214 844 q 1076 472 1142 647 q 910 19 1011 296 q 890 2 906 7 q 853 -3 874 -3 l 796 -3 q 742 19 746 -3 l 650 585 l 640 765 l 592 585 l 382 19 q 325 -3 372 -3 l 268 -3 q 214 19 218 -3 l 68 947 q 88 971 68 967 q 131 975 107 975 l 143 975 q 197 953 193 975 l 303 269 q 310 192 307 242 q 314 140 314 143 l 363 276 l 601 951 q 657 975 608 975 l 679 975 q 732 951 728 975 l 832 268 q 840 186 838 232 q 842 140 842 140 l 890 279 l 1129 953 q 1186 975 1136 975 l 1194 975 m 703 1243 q 739 1235 722 1243 q 764 1213 756 1228 l 829 1090 q 836 1067 836 1079 q 800 1046 833 1046 l 797 1046 q 753 1064 771 1046 l 676 1167 l 581 1064 q 558 1050 569 1054 q 532 1046 547 1046 l 529 1046 q 500 1063 500 1046 q 510 1090 500 1075 l 601 1213 q 630 1235 613 1228 q 668 1243 647 1243 l 703 1243 z "},"Ẅ":{"ha":1225,"x_min":68,"x_max":1253,"o":"m 1194 975 q 1253 953 1253 975 q 1249 942 1253 951 q 1230 888 1246 932 q 1178 746 1214 844 q 1076 472 1142 647 q 910 19 1011 296 q 890 2 906 7 q 853 -3 874 -3 l 796 -3 q 742 19 746 -3 l 650 585 l 640 765 l 592 585 l 382 19 q 325 -3 372 -3 l 268 -3 q 214 19 218 -3 l 68 947 q 88 971 68 967 q 131 975 107 975 l 143 975 q 197 953 193 975 l 303 269 q 310 192 307 242 q 314 140 314 143 l 363 276 l 601 951 q 657 975 608 975 l 679 975 q 732 951 728 975 l 832 268 q 840 186 838 232 q 842 140 842 140 l 890 279 l 1129 953 q 1186 975 1136 975 l 1194 975 m 792 1221 q 844 1190 844 1221 l 838 1119 q 774 1089 833 1089 q 721 1119 721 1089 l 728 1190 q 792 1221 731 1221 m 592 1221 q 644 1190 644 1221 l 638 1119 q 574 1089 633 1089 q 521 1119 521 1089 l 528 1190 q 592 1221 532 1221 z "},"Ẁ":{"ha":1225,"x_min":68,"x_max":1253,"o":"m 1194 975 q 1253 953 1253 975 q 1249 942 1253 951 q 1230 888 1246 932 q 1178 746 1214 844 q 1076 472 1142 647 q 910 19 1011 296 q 890 2 906 7 q 853 -3 874 -3 l 796 -3 q 742 19 746 -3 l 650 585 l 640 765 l 592 585 l 382 19 q 325 -3 372 -3 l 268 -3 q 214 19 218 -3 l 68 947 q 88 971 68 967 q 131 975 107 975 l 143 975 q 197 953 193 975 l 303 269 q 310 192 307 242 q 314 140 314 143 l 363 276 l 601 951 q 657 975 608 975 l 679 975 q 732 951 728 975 l 832 268 q 840 186 838 232 q 842 140 842 140 l 890 279 l 1129 953 q 1186 975 1136 975 l 1194 975 m 569 1263 q 624 1254 603 1263 q 656 1226 644 1246 q 722 1110 707 1139 q 736 1071 736 1081 q 704 1058 736 1058 q 664 1065 683 1058 q 633 1083 644 1071 q 524 1209 544 1185 q 503 1246 503 1233 q 569 1263 504 1263 z "},"X":{"ha":849,"x_min":-24,"x_max":833,"o":"m 771 975 q 819 969 804 975 q 833 953 833 964 q 819 926 833 946 l 499 514 l 761 46 q 769 24 769 29 q 756 4 769 11 q 704 -3 742 -3 l 682 -3 q 624 18 636 -3 l 408 400 l 110 17 q 84 1 101 6 q 49 -3 67 -3 l 38 -3 q -9 3 6 -3 q -24 19 -24 8 q -10 46 -24 29 l 349 507 l 115 926 q 107 949 107 939 q 121 968 107 961 q 172 975 135 975 l 192 975 q 250 954 238 975 l 438 619 l 701 956 q 727 971 710 967 q 763 975 744 975 l 771 975 z "},"Y":{"ha":776,"x_min":74,"x_max":800,"o":"m 738 975 l 750 975 q 788 969 776 974 q 800 953 800 964 q 786 926 800 946 l 449 494 l 400 28 q 342 -3 396 -3 l 331 -3 q 278 28 278 -3 l 326 499 l 82 926 q 74 949 74 939 q 88 968 74 961 q 139 975 101 975 l 154 975 q 213 954 200 975 l 404 613 l 674 956 q 738 975 688 975 z "},"Ý":{"ha":776,"x_min":74,"x_max":800,"o":"m 738 975 l 750 975 q 788 969 776 974 q 800 953 800 964 q 786 926 800 946 l 449 494 l 400 28 q 342 -3 396 -3 l 331 -3 q 278 28 278 -3 l 326 499 l 82 926 q 74 949 74 939 q 88 968 74 961 q 139 975 101 975 l 154 975 q 213 954 200 975 l 404 613 l 674 956 q 738 975 688 975 m 578 1263 q 643 1246 643 1263 q 634 1226 643 1238 q 594 1183 625 1214 q 496 1083 563 1151 q 463 1065 483 1071 q 422 1058 443 1058 q 392 1071 392 1058 q 410 1110 392 1081 q 488 1226 428 1140 q 523 1254 501 1246 q 578 1263 544 1263 z "},"Ŷ":{"ha":776,"x_min":74,"x_max":800,"o":"m 738 975 l 750 975 q 788 969 776 974 q 800 953 800 964 q 786 926 800 946 l 449 494 l 400 28 q 342 -3 396 -3 l 331 -3 q 278 28 278 -3 l 326 499 l 82 926 q 74 949 74 939 q 88 968 74 961 q 139 975 101 975 l 154 975 q 213 954 200 975 l 404 613 l 674 956 q 738 975 688 975 m 479 1243 q 515 1235 499 1243 q 540 1213 532 1228 l 606 1090 q 613 1067 613 1079 q 576 1046 610 1046 l 574 1046 q 529 1064 547 1046 l 453 1167 l 357 1064 q 335 1050 346 1054 q 308 1046 324 1046 l 306 1046 q 276 1063 276 1046 q 286 1090 276 1075 l 378 1213 q 406 1235 389 1228 q 444 1243 424 1243 l 479 1243 z "},"Ÿ":{"ha":776,"x_min":74,"x_max":800,"o":"m 738 975 l 750 975 q 788 969 776 974 q 800 953 800 964 q 786 926 800 946 l 449 494 l 400 28 q 342 -3 396 -3 l 331 -3 q 278 28 278 -3 l 326 499 l 82 926 q 74 949 74 939 q 88 968 74 961 q 139 975 101 975 l 154 975 q 213 954 200 975 l 404 613 l 674 956 q 738 975 688 975 m 568 1221 q 621 1190 621 1221 l 614 1119 q 550 1089 610 1089 q 497 1119 497 1089 l 504 1190 q 568 1221 507 1221 m 368 1221 q 421 1190 421 1221 l 414 1119 q 350 1089 410 1089 q 297 1119 297 1089 l 304 1190 q 368 1221 308 1221 z "},"Ỵ":{"ha":776,"x_min":74,"x_max":800,"o":"m 738 975 l 750 975 q 788 969 776 974 q 800 953 800 964 q 786 926 800 946 l 449 494 l 400 28 q 342 -3 396 -3 l 331 -3 q 278 28 278 -3 l 326 499 l 82 926 q 74 949 74 939 q 88 968 74 961 q 139 975 101 975 l 154 975 q 213 954 200 975 l 404 613 l 674 956 q 738 975 688 975 z "},"Ỳ":{"ha":776,"x_min":74,"x_max":800,"o":"m 738 975 l 750 975 q 788 969 776 974 q 800 953 800 964 q 786 926 800 946 l 449 494 l 400 28 q 342 -3 396 -3 l 331 -3 q 278 28 278 -3 l 326 499 l 82 926 q 74 949 74 939 q 88 968 74 961 q 139 975 101 975 l 154 975 q 213 954 200 975 l 404 613 l 674 956 q 738 975 688 975 m 346 1263 q 400 1254 379 1263 q 432 1226 421 1246 q 498 1110 483 1139 q 513 1071 513 1081 q 481 1058 513 1058 q 440 1065 460 1058 q 410 1083 421 1071 q 300 1209 321 1185 q 279 1246 279 1233 q 346 1263 281 1263 z "},"Ỷ":{"ha":776,"x_min":74,"x_max":800,"o":"m 738 975 l 750 975 q 788 969 776 974 q 800 953 800 964 q 786 926 800 946 l 449 494 l 400 28 q 342 -3 396 -3 l 331 -3 q 278 28 278 -3 l 326 499 l 82 926 q 74 949 74 939 q 88 968 74 961 q 139 975 101 975 l 154 975 q 213 954 200 975 l 404 613 l 674 956 q 738 975 688 975 m 506 1182 q 458 1217 506 1217 q 412 1208 426 1217 q 392 1199 397 1199 q 374 1217 383 1199 q 364 1244 364 1235 q 402 1273 364 1258 q 476 1288 440 1288 q 554 1267 511 1288 q 597 1190 597 1246 q 566 1105 597 1142 q 501 1048 535 1068 q 460 1028 467 1028 q 406 1051 406 1028 q 431 1087 406 1071 q 481 1124 456 1103 q 506 1182 506 1146 z "},"Ỹ":{"ha":776,"x_min":74,"x_max":800,"o":"m 738 975 l 750 975 q 788 969 776 974 q 800 953 800 964 q 786 926 800 946 l 449 494 l 400 28 q 342 -3 396 -3 l 331 -3 q 278 28 278 -3 l 326 499 l 82 926 q 74 949 74 939 q 88 968 74 961 q 139 975 101 975 l 154 975 q 213 954 200 975 l 404 613 l 674 956 q 738 975 688 975 z "},"Z":{"ha":856,"x_min":8,"x_max":836,"o":"m 813 972 q 828 950 819 972 q 836 906 836 928 q 829 882 836 889 l 179 106 l 724 106 q 747 75 747 106 q 743 26 747 51 q 713 0 739 0 l 35 0 q 17 23 25 0 q 8 67 8 46 q 15 90 8 83 l 665 867 l 164 867 q 140 897 140 867 q 144 947 140 921 q 175 972 149 972 l 813 972 z "},"Ź":{"ha":856,"x_min":8,"x_max":836,"o":"m 813 972 q 828 950 819 972 q 836 906 836 928 q 829 882 836 889 l 179 106 l 724 106 q 747 75 747 106 q 743 26 747 51 q 713 0 739 0 l 35 0 q 17 23 25 0 q 8 67 8 46 q 15 90 8 83 l 665 867 l 164 867 q 140 897 140 867 q 144 947 140 921 q 175 972 149 972 l 813 972 m 603 1263 q 668 1246 668 1263 q 659 1226 668 1238 q 619 1183 650 1214 q 521 1083 588 1151 q 488 1065 508 1071 q 447 1058 468 1058 q 417 1071 417 1058 q 435 1110 417 1081 q 513 1226 453 1140 q 548 1254 526 1246 q 603 1263 569 1263 z "},"Ž":{"ha":856,"x_min":8,"x_max":836,"o":"m 813 972 q 828 950 819 972 q 836 906 836 928 q 829 882 836 889 l 179 106 l 724 106 q 747 75 747 106 q 743 26 747 51 q 713 0 739 0 l 35 0 q 17 23 25 0 q 8 67 8 46 q 15 90 8 83 l 665 867 l 164 867 q 140 897 140 867 q 144 947 140 921 q 175 972 149 972 l 813 972 m 633 1251 q 664 1232 664 1251 q 654 1207 664 1221 l 561 1085 q 533 1062 550 1069 q 494 1054 515 1054 l 460 1054 q 424 1062 440 1054 q 399 1085 407 1069 l 335 1207 q 328 1232 328 1219 q 363 1251 331 1251 l 365 1251 q 411 1233 393 1251 l 485 1131 l 583 1233 q 606 1247 594 1243 q 631 1251 617 1251 l 633 1251 z "},"Ż":{"ha":856,"x_min":8,"x_max":836,"o":"m 813 972 q 828 950 819 972 q 836 906 836 928 q 829 882 836 889 l 179 106 l 724 106 q 747 75 747 106 q 743 26 747 51 q 713 0 739 0 l 35 0 q 17 23 25 0 q 8 67 8 46 q 15 90 8 83 l 665 867 l 164 867 q 140 897 140 867 q 144 947 140 921 q 175 972 149 972 l 813 972 m 493 1221 q 546 1190 546 1221 l 539 1119 q 475 1089 535 1089 q 422 1119 422 1089 l 429 1190 q 493 1221 433 1221 z "},"Ẓ":{"ha":856,"x_min":8,"x_max":836,"o":"m 813 972 q 828 950 819 972 q 836 906 836 928 q 829 882 836 889 l 179 106 l 724 106 q 747 75 747 106 q 743 26 747 51 q 713 0 739 0 l 35 0 q 17 23 25 0 q 8 67 8 46 q 15 90 8 83 l 665 867 l 164 867 q 140 897 140 867 q 144 947 140 921 q 175 972 149 972 l 813 972 z "},"a":{"ha":757,"x_min":56,"x_max":718,"o":"m 396 735 q 506 708 461 735 q 572 660 550 682 q 594 710 583 690 q 635 729 606 729 l 643 729 q 678 700 678 729 q 672 648 678 700 q 658 517 667 596 q 642 358 650 439 q 628 219 633 278 q 622 149 622 160 q 639 99 622 106 q 672 92 656 92 q 694 95 685 92 q 710 99 703 99 q 718 89 718 99 q 717 74 718 88 q 713 38 717 61 q 677 1 707 11 q 629 -8 647 -8 q 537 24 569 -8 q 504 128 504 57 l 504 196 l 525 188 q 419 36 482 81 q 288 -8 356 -8 q 188 17 242 -8 q 94 106 133 42 q 56 292 56 171 q 148 610 56 486 q 396 735 240 735 m 407 633 q 265 585 314 633 q 196 460 215 536 q 176 300 176 383 q 217 137 176 181 q 314 93 258 93 q 419 142 360 93 q 522 328 479 190 q 534 453 528 397 q 540 510 540 510 q 545 545 542 528 q 551 579 549 563 q 495 614 532 594 q 407 633 458 633 z "},"á":{"ha":757,"x_min":56,"x_max":718,"o":"m 396 735 q 506 708 461 735 q 572 660 550 682 q 594 710 583 690 q 635 729 606 729 l 643 729 q 678 700 678 729 q 672 648 678 700 q 658 517 667 596 q 642 358 650 439 q 628 219 633 278 q 622 149 622 160 q 639 99 622 106 q 672 92 656 92 q 694 95 685 92 q 710 99 703 99 q 718 89 718 99 q 717 74 718 88 q 713 38 717 61 q 677 1 707 11 q 629 -8 647 -8 q 537 24 569 -8 q 504 128 504 57 l 504 196 l 525 188 q 419 36 482 81 q 288 -8 356 -8 q 188 17 242 -8 q 94 106 133 42 q 56 292 56 171 q 148 610 56 486 q 396 735 240 735 m 407 633 q 265 585 314 633 q 196 460 215 536 q 176 300 176 383 q 217 137 176 181 q 314 93 258 93 q 419 142 360 93 q 522 328 479 190 q 534 453 528 397 q 540 510 540 510 q 545 545 542 528 q 551 579 549 563 q 495 614 532 594 q 407 633 458 633 m 526 1017 q 592 1000 592 1017 q 583 980 592 992 q 542 937 574 968 q 444 838 511 906 q 412 819 432 825 q 371 813 392 813 q 340 825 340 813 q 358 865 340 835 q 436 981 376 894 q 472 1008 450 1000 q 526 1017 493 1017 z "},"ă":{"ha":757,"x_min":56,"x_max":718,"o":"m 396 735 q 506 708 461 735 q 572 660 550 682 q 594 710 583 690 q 635 729 606 729 l 643 729 q 678 700 678 729 q 672 648 678 700 q 658 517 667 596 q 642 358 650 439 q 628 219 633 278 q 622 149 622 160 q 639 99 622 106 q 672 92 656 92 q 694 95 685 92 q 710 99 703 99 q 718 89 718 99 q 717 74 718 88 q 713 38 717 61 q 677 1 707 11 q 629 -8 647 -8 q 537 24 569 -8 q 504 128 504 57 l 504 196 l 525 188 q 419 36 482 81 q 288 -8 356 -8 q 188 17 242 -8 q 94 106 133 42 q 56 292 56 171 q 148 610 56 486 q 396 735 240 735 m 407 633 q 265 585 314 633 q 196 460 215 536 q 176 300 176 383 q 217 137 176 181 q 314 93 258 93 q 419 142 360 93 q 522 328 479 190 q 534 453 528 397 q 540 510 540 510 q 545 545 542 528 q 551 579 549 563 q 495 614 532 594 q 407 633 458 633 m 597 993 q 617 976 617 993 q 543 853 617 894 q 400 813 469 813 q 272 848 329 813 q 214 956 214 883 q 238 993 214 993 q 257 984 256 993 q 265 958 258 975 q 318 917 278 929 q 410 904 358 904 q 503 917 460 904 q 564 958 546 929 q 576 984 574 975 q 597 993 579 993 z "},"ắ":{"ha":757,"x_min":56,"x_max":718,"o":"m 396 735 q 506 708 461 735 q 572 660 550 682 q 594 710 583 690 q 635 729 606 729 l 643 729 q 678 700 678 729 q 672 648 678 700 q 658 517 667 596 q 642 358 650 439 q 628 219 633 278 q 622 149 622 160 q 639 99 622 106 q 672 92 656 92 q 694 95 685 92 q 710 99 703 99 q 718 89 718 99 q 717 74 718 88 q 713 38 717 61 q 677 1 707 11 q 629 -8 647 -8 q 537 24 569 -8 q 504 128 504 57 l 504 196 l 525 188 q 419 36 482 81 q 288 -8 356 -8 q 188 17 242 -8 q 94 106 133 42 q 56 292 56 171 q 148 610 56 486 q 396 735 240 735 m 407 633 q 265 585 314 633 q 196 460 215 536 q 176 300 176 383 q 217 137 176 181 q 314 93 258 93 q 419 142 360 93 q 522 328 479 190 q 534 453 528 397 q 540 510 540 510 q 545 545 542 528 q 551 579 549 563 q 495 614 532 594 q 407 633 458 633 m 597 993 q 617 976 617 993 q 543 853 617 894 q 400 813 469 813 q 272 848 329 813 q 214 956 214 883 q 238 993 214 993 q 257 984 256 993 q 265 958 258 975 q 318 917 278 929 q 410 904 358 904 q 503 917 460 904 q 564 958 546 929 q 576 984 574 975 q 597 993 579 993 m 553 1222 q 618 1206 618 1222 q 609 1185 618 1197 q 569 1142 600 1174 q 471 1043 538 1111 q 438 1024 458 1031 q 397 1018 418 1018 q 367 1031 367 1018 q 385 1070 367 1040 q 463 1186 403 1100 q 498 1214 476 1206 q 553 1222 519 1222 z "},"ặ":{"ha":757,"x_min":56,"x_max":718,"o":"m 396 735 q 506 708 461 735 q 572 660 550 682 q 594 710 583 690 q 635 729 606 729 l 643 729 q 678 700 678 729 q 672 648 678 700 q 658 517 667 596 q 642 358 650 439 q 628 219 633 278 q 622 149 622 160 q 639 99 622 106 q 672 92 656 92 q 694 95 685 92 q 710 99 703 99 q 718 89 718 99 q 717 74 718 88 q 713 38 717 61 q 677 1 707 11 q 629 -8 647 -8 q 537 24 569 -8 q 504 128 504 57 l 504 196 l 525 188 q 419 36 482 81 q 288 -8 356 -8 q 188 17 242 -8 q 94 106 133 42 q 56 292 56 171 q 148 610 56 486 q 396 735 240 735 m 407 633 q 265 585 314 633 q 196 460 215 536 q 176 300 176 383 q 217 137 176 181 q 314 93 258 93 q 419 142 360 93 q 522 328 479 190 q 534 453 528 397 q 540 510 540 510 q 545 545 542 528 q 551 579 549 563 q 495 614 532 594 q 407 633 458 633 m 597 993 q 617 976 617 993 q 543 853 617 894 q 400 813 469 813 q 272 848 329 813 q 214 956 214 883 q 238 993 214 993 q 257 984 256 993 q 265 958 258 975 q 318 917 278 929 q 410 904 358 904 q 503 917 460 904 q 564 958 546 929 q 576 984 574 975 q 597 993 579 993 z "},"ằ":{"ha":757,"x_min":56,"x_max":718,"o":"m 396 735 q 506 708 461 735 q 572 660 550 682 q 594 710 583 690 q 635 729 606 729 l 643 729 q 678 700 678 729 q 672 648 678 700 q 658 517 667 596 q 642 358 650 439 q 628 219 633 278 q 622 149 622 160 q 639 99 622 106 q 672 92 656 92 q 694 95 685 92 q 710 99 703 99 q 718 89 718 99 q 717 74 718 88 q 713 38 717 61 q 677 1 707 11 q 629 -8 647 -8 q 537 24 569 -8 q 504 128 504 57 l 504 196 l 525 188 q 419 36 482 81 q 288 -8 356 -8 q 188 17 242 -8 q 94 106 133 42 q 56 292 56 171 q 148 610 56 486 q 396 735 240 735 m 407 633 q 265 585 314 633 q 196 460 215 536 q 176 300 176 383 q 217 137 176 181 q 314 93 258 93 q 419 142 360 93 q 522 328 479 190 q 534 453 528 397 q 540 510 540 510 q 545 545 542 528 q 551 579 549 563 q 495 614 532 594 q 407 633 458 633 m 597 993 q 617 976 617 993 q 543 853 617 894 q 400 813 469 813 q 272 848 329 813 q 214 956 214 883 q 238 993 214 993 q 257 984 256 993 q 265 958 258 975 q 318 917 278 929 q 410 904 358 904 q 503 917 460 904 q 564 958 546 929 q 576 984 574 975 q 597 993 579 993 m 321 1222 q 375 1214 354 1222 q 407 1186 396 1206 q 473 1069 458 1099 q 488 1031 488 1040 q 456 1018 488 1018 q 415 1024 435 1018 q 385 1043 396 1031 q 275 1169 296 1144 q 254 1206 254 1193 q 321 1222 256 1222 z "},"ẳ":{"ha":757,"x_min":56,"x_max":718,"o":"m 396 735 q 506 708 461 735 q 572 660 550 682 q 594 710 583 690 q 635 729 606 729 l 643 729 q 678 700 678 729 q 672 648 678 700 q 658 517 667 596 q 642 358 650 439 q 628 219 633 278 q 622 149 622 160 q 639 99 622 106 q 672 92 656 92 q 694 95 685 92 q 710 99 703 99 q 718 89 718 99 q 717 74 718 88 q 713 38 717 61 q 677 1 707 11 q 629 -8 647 -8 q 537 24 569 -8 q 504 128 504 57 l 504 196 l 525 188 q 419 36 482 81 q 288 -8 356 -8 q 188 17 242 -8 q 94 106 133 42 q 56 292 56 171 q 148 610 56 486 q 396 735 240 735 m 407 633 q 265 585 314 633 q 196 460 215 536 q 176 300 176 383 q 217 137 176 181 q 314 93 258 93 q 419 142 360 93 q 522 328 479 190 q 534 453 528 397 q 540 510 540 510 q 545 545 542 528 q 551 579 549 563 q 495 614 532 594 q 407 633 458 633 m 597 993 q 617 976 617 993 q 543 853 617 894 q 400 813 469 813 q 272 848 329 813 q 214 956 214 883 q 238 993 214 993 q 257 984 256 993 q 265 958 258 975 q 318 917 278 929 q 410 904 358 904 q 503 917 460 904 q 564 958 546 929 q 576 984 574 975 q 597 993 579 993 m 481 1142 q 433 1176 481 1176 q 387 1167 401 1176 q 367 1158 372 1158 q 349 1176 358 1158 q 339 1204 339 1194 q 377 1233 339 1218 q 451 1247 415 1247 q 529 1226 486 1247 q 572 1150 572 1206 q 541 1065 572 1101 q 476 1008 510 1028 q 435 988 442 988 q 381 1011 381 988 q 406 1047 381 1031 q 456 1084 431 1063 q 481 1142 481 1106 z "},"ẵ":{"ha":757,"x_min":56,"x_max":718,"o":"m 396 735 q 506 708 461 735 q 572 660 550 682 q 594 710 583 690 q 635 729 606 729 l 643 729 q 678 700 678 729 q 672 648 678 700 q 658 517 667 596 q 642 358 650 439 q 628 219 633 278 q 622 149 622 160 q 639 99 622 106 q 672 92 656 92 q 694 95 685 92 q 710 99 703 99 q 718 89 718 99 q 717 74 718 88 q 713 38 717 61 q 677 1 707 11 q 629 -8 647 -8 q 537 24 569 -8 q 504 128 504 57 l 504 196 l 525 188 q 419 36 482 81 q 288 -8 356 -8 q 188 17 242 -8 q 94 106 133 42 q 56 292 56 171 q 148 610 56 486 q 396 735 240 735 m 407 633 q 265 585 314 633 q 196 460 215 536 q 176 300 176 383 q 217 137 176 181 q 314 93 258 93 q 419 142 360 93 q 522 328 479 190 q 534 453 528 397 q 540 510 540 510 q 545 545 542 528 q 551 579 549 563 q 495 614 532 594 q 407 633 458 633 m 597 993 q 617 976 617 993 q 543 853 617 894 q 400 813 469 813 q 272 848 329 813 q 214 956 214 883 q 238 993 214 993 q 257 984 256 993 q 265 958 258 975 q 318 917 278 929 q 410 904 358 904 q 503 917 460 904 q 564 958 546 929 q 576 984 574 975 q 597 993 579 993 m 326 1231 q 442 1201 382 1231 q 546 1171 501 1171 q 575 1180 563 1171 q 601 1211 588 1189 q 619 1230 611 1226 q 639 1228 628 1233 l 649 1224 q 663 1210 661 1218 q 658 1188 665 1203 q 609 1115 638 1136 q 543 1093 581 1093 q 424 1123 485 1093 q 319 1153 364 1153 q 292 1143 304 1153 q 267 1111 281 1133 q 250 1092 257 1096 q 231 1094 243 1089 l 218 1100 q 206 1113 207 1106 q 210 1135 204 1121 q 259 1209 231 1188 q 326 1231 288 1231 z "},"â":{"ha":757,"x_min":56,"x_max":718,"o":"m 396 735 q 506 708 461 735 q 572 660 550 682 q 594 710 583 690 q 635 729 606 729 l 643 729 q 678 700 678 729 q 672 648 678 700 q 658 517 667 596 q 642 358 650 439 q 628 219 633 278 q 622 149 622 160 q 639 99 622 106 q 672 92 656 92 q 694 95 685 92 q 710 99 703 99 q 718 89 718 99 q 717 74 718 88 q 713 38 717 61 q 677 1 707 11 q 629 -8 647 -8 q 537 24 569 -8 q 504 128 504 57 l 504 196 l 525 188 q 419 36 482 81 q 288 -8 356 -8 q 188 17 242 -8 q 94 106 133 42 q 56 292 56 171 q 148 610 56 486 q 396 735 240 735 m 407 633 q 265 585 314 633 q 196 460 215 536 q 176 300 176 383 q 217 137 176 181 q 314 93 258 93 q 419 142 360 93 q 522 328 479 190 q 534 453 528 397 q 540 510 540 510 q 545 545 542 528 q 551 579 549 563 q 495 614 532 594 q 407 633 458 633 m 428 997 q 464 990 447 997 q 489 967 481 982 l 554 844 q 561 821 561 833 q 525 800 558 800 l 522 800 q 478 818 496 800 l 401 921 l 306 818 q 283 804 294 808 q 257 800 272 800 l 254 800 q 225 817 225 800 q 235 844 225 829 l 326 967 q 355 990 338 982 q 393 997 372 997 l 428 997 z "},"ấ":{"ha":757,"x_min":56,"x_max":796,"o":"m 396 735 q 506 708 461 735 q 572 660 550 682 q 594 710 583 690 q 635 729 606 729 l 643 729 q 678 700 678 729 q 672 648 678 700 q 658 517 667 596 q 642 358 650 439 q 628 219 633 278 q 622 149 622 160 q 639 99 622 106 q 672 92 656 92 q 694 95 685 92 q 710 99 703 99 q 718 89 718 99 q 717 74 718 88 q 713 38 717 61 q 677 1 707 11 q 629 -8 647 -8 q 537 24 569 -8 q 504 128 504 57 l 504 196 l 525 188 q 419 36 482 81 q 288 -8 356 -8 q 188 17 242 -8 q 94 106 133 42 q 56 292 56 171 q 148 610 56 486 q 396 735 240 735 m 407 633 q 265 585 314 633 q 196 460 215 536 q 176 300 176 383 q 217 137 176 181 q 314 93 258 93 q 419 142 360 93 q 522 328 479 190 q 534 453 528 397 q 540 510 540 510 q 545 545 542 528 q 551 579 549 563 q 495 614 532 594 q 407 633 458 633 m 439 997 q 467 990 454 997 q 486 967 479 982 l 544 844 q 551 821 551 833 q 515 800 549 800 l 513 800 q 487 803 499 800 q 468 818 475 807 l 413 921 l 317 818 q 294 804 306 808 q 268 800 283 800 l 265 800 q 236 817 236 800 q 246 844 236 829 l 338 967 q 366 990 349 982 q 404 997 383 997 l 439 997 m 731 1196 q 796 1179 796 1196 q 787 1159 796 1171 q 747 1116 778 1147 q 649 1017 715 1085 q 616 998 636 1004 q 575 992 596 992 q 544 1004 544 992 q 563 1044 544 1014 q 640 1160 581 1074 q 676 1188 654 1179 q 731 1196 697 1196 z "},"ậ":{"ha":757,"x_min":56,"x_max":718,"o":"m 396 735 q 506 708 461 735 q 572 660 550 682 q 594 710 583 690 q 635 729 606 729 l 643 729 q 678 700 678 729 q 672 648 678 700 q 658 517 667 596 q 642 358 650 439 q 628 219 633 278 q 622 149 622 160 q 639 99 622 106 q 672 92 656 92 q 694 95 685 92 q 710 99 703 99 q 718 89 718 99 q 717 74 718 88 q 713 38 717 61 q 677 1 707 11 q 629 -8 647 -8 q 537 24 569 -8 q 504 128 504 57 l 504 196 l 525 188 q 419 36 482 81 q 288 -8 356 -8 q 188 17 242 -8 q 94 106 133 42 q 56 292 56 171 q 148 610 56 486 q 396 735 240 735 m 407 633 q 265 585 314 633 q 196 460 215 536 q 176 300 176 383 q 217 137 176 181 q 314 93 258 93 q 419 142 360 93 q 522 328 479 190 q 534 453 528 397 q 540 510 540 510 q 545 545 542 528 q 551 579 549 563 q 495 614 532 594 q 407 633 458 633 m 428 997 q 464 990 447 997 q 489 967 481 982 l 554 844 q 561 821 561 833 q 525 800 558 800 l 522 800 q 478 818 496 800 l 401 921 l 306 818 q 283 804 294 808 q 257 800 272 800 l 254 800 q 225 817 225 800 q 235 844 225 829 l 326 967 q 355 990 338 982 q 393 997 372 997 l 428 997 z "},"ầ":{"ha":757,"x_min":56,"x_max":718,"o":"m 396 735 q 506 708 461 735 q 572 660 550 682 q 594 710 583 690 q 635 729 606 729 l 643 729 q 678 700 678 729 q 672 648 678 700 q 658 517 667 596 q 642 358 650 439 q 628 219 633 278 q 622 149 622 160 q 639 99 622 106 q 672 92 656 92 q 694 95 685 92 q 710 99 703 99 q 718 89 718 99 q 717 74 718 88 q 713 38 717 61 q 677 1 707 11 q 629 -8 647 -8 q 537 24 569 -8 q 504 128 504 57 l 504 196 l 525 188 q 419 36 482 81 q 288 -8 356 -8 q 188 17 242 -8 q 94 106 133 42 q 56 292 56 171 q 148 610 56 486 q 396 735 240 735 m 407 633 q 265 585 314 633 q 196 460 215 536 q 176 300 176 383 q 217 137 176 181 q 314 93 258 93 q 419 142 360 93 q 522 328 479 190 q 534 453 528 397 q 540 510 540 510 q 545 545 542 528 q 551 579 549 563 q 495 614 532 594 q 407 633 458 633 m 439 997 q 467 990 454 997 q 486 967 479 982 l 544 844 q 551 821 551 833 q 515 800 549 800 l 513 800 q 487 803 499 800 q 468 818 475 807 l 413 921 l 317 818 q 294 804 306 808 q 268 800 283 800 l 265 800 q 236 817 236 800 q 246 844 236 829 l 338 967 q 366 990 349 982 q 404 997 383 997 l 439 997 m 499 1196 q 553 1188 532 1196 q 585 1160 574 1179 q 651 1043 636 1072 q 665 1004 665 1014 q 633 992 665 992 q 593 998 613 992 q 563 1017 574 1004 q 453 1142 474 1118 q 432 1179 432 1167 q 499 1196 433 1196 z "},"ẩ":{"ha":757,"x_min":56,"x_max":750,"o":"m 396 735 q 506 708 461 735 q 572 660 550 682 q 594 710 583 690 q 635 729 606 729 l 643 729 q 678 700 678 729 q 672 648 678 700 q 658 517 667 596 q 642 358 650 439 q 628 219 633 278 q 622 149 622 160 q 639 99 622 106 q 672 92 656 92 q 694 95 685 92 q 710 99 703 99 q 718 89 718 99 q 717 74 718 88 q 713 38 717 61 q 677 1 707 11 q 629 -8 647 -8 q 537 24 569 -8 q 504 128 504 57 l 504 196 l 525 188 q 419 36 482 81 q 288 -8 356 -8 q 188 17 242 -8 q 94 106 133 42 q 56 292 56 171 q 148 610 56 486 q 396 735 240 735 m 407 633 q 265 585 314 633 q 196 460 215 536 q 176 300 176 383 q 217 137 176 181 q 314 93 258 93 q 419 142 360 93 q 522 328 479 190 q 534 453 528 397 q 540 510 540 510 q 545 545 542 528 q 551 579 549 563 q 495 614 532 594 q 407 633 458 633 m 439 997 q 467 990 454 997 q 486 967 479 982 l 544 844 q 551 821 551 833 q 515 800 549 800 l 513 800 q 487 803 499 800 q 468 818 475 807 l 413 921 l 317 818 q 294 804 306 808 q 268 800 283 800 l 265 800 q 236 817 236 800 q 246 844 236 829 l 338 967 q 366 990 349 982 q 404 997 383 997 l 439 997 m 658 1115 q 611 1150 658 1150 q 565 1141 579 1150 q 544 1132 550 1132 q 526 1150 536 1132 q 517 1178 517 1168 q 555 1206 517 1192 q 629 1221 593 1221 q 707 1200 664 1221 q 750 1124 750 1179 q 719 1038 750 1075 q 653 981 688 1001 q 613 961 619 961 q 558 985 558 961 q 583 1020 558 1004 q 633 1058 608 1036 q 658 1115 658 1079 z "},"ẫ":{"ha":757,"x_min":56,"x_max":718,"o":"m 396 735 q 506 708 461 735 q 572 660 550 682 q 594 710 583 690 q 635 729 606 729 l 643 729 q 678 700 678 729 q 672 648 678 700 q 658 517 667 596 q 642 358 650 439 q 628 219 633 278 q 622 149 622 160 q 639 99 622 106 q 672 92 656 92 q 694 95 685 92 q 710 99 703 99 q 718 89 718 99 q 717 74 718 88 q 713 38 717 61 q 677 1 707 11 q 629 -8 647 -8 q 537 24 569 -8 q 504 128 504 57 l 504 196 l 525 188 q 419 36 482 81 q 288 -8 356 -8 q 188 17 242 -8 q 94 106 133 42 q 56 292 56 171 q 148 610 56 486 q 396 735 240 735 m 407 633 q 265 585 314 633 q 196 460 215 536 q 176 300 176 383 q 217 137 176 181 q 314 93 258 93 q 419 142 360 93 q 522 328 479 190 q 534 453 528 397 q 540 510 540 510 q 545 545 542 528 q 551 579 549 563 q 495 614 532 594 q 407 633 458 633 m 428 997 q 464 990 447 997 q 489 967 481 982 l 554 844 q 561 821 561 833 q 525 800 558 800 l 522 800 q 478 818 496 800 l 401 921 l 306 818 q 283 804 294 808 q 257 800 272 800 l 254 800 q 225 817 225 800 q 235 844 225 829 l 326 967 q 355 990 338 982 q 393 997 372 997 l 428 997 m 335 1222 q 450 1192 390 1222 q 554 1163 510 1163 q 583 1172 571 1163 q 610 1203 596 1181 q 628 1222 619 1218 q 647 1219 636 1225 l 657 1215 q 672 1202 669 1210 q 667 1179 674 1194 q 617 1106 646 1128 q 551 1085 589 1085 q 433 1115 493 1085 q 328 1144 372 1144 q 301 1135 313 1144 q 275 1103 289 1125 q 258 1084 265 1088 q 239 1086 251 1081 l 226 1092 q 214 1105 215 1097 q 218 1126 213 1113 q 267 1201 239 1179 q 335 1222 296 1222 z "},"ä":{"ha":757,"x_min":56,"x_max":718,"o":"m 396 735 q 506 708 461 735 q 572 660 550 682 q 594 710 583 690 q 635 729 606 729 l 643 729 q 678 700 678 729 q 672 648 678 700 q 658 517 667 596 q 642 358 650 439 q 628 219 633 278 q 622 149 622 160 q 639 99 622 106 q 672 92 656 92 q 694 95 685 92 q 710 99 703 99 q 718 89 718 99 q 717 74 718 88 q 713 38 717 61 q 677 1 707 11 q 629 -8 647 -8 q 537 24 569 -8 q 504 128 504 57 l 504 196 l 525 188 q 419 36 482 81 q 288 -8 356 -8 q 188 17 242 -8 q 94 106 133 42 q 56 292 56 171 q 148 610 56 486 q 396 735 240 735 m 407 633 q 265 585 314 633 q 196 460 215 536 q 176 300 176 383 q 217 137 176 181 q 314 93 258 93 q 419 142 360 93 q 522 328 479 190 q 534 453 528 397 q 540 510 540 510 q 545 545 542 528 q 551 579 549 563 q 495 614 532 594 q 407 633 458 633 m 517 975 q 569 944 569 975 l 563 874 q 499 843 558 843 q 446 874 446 843 l 453 944 q 517 975 456 975 m 317 975 q 369 944 369 975 l 363 874 q 299 843 358 843 q 246 874 246 843 l 253 944 q 317 975 257 975 z "},"ạ":{"ha":757,"x_min":56,"x_max":718,"o":"m 396 735 q 506 708 461 735 q 572 660 550 682 q 594 710 583 690 q 635 729 606 729 l 643 729 q 678 700 678 729 q 672 648 678 700 q 658 517 667 596 q 642 358 650 439 q 628 219 633 278 q 622 149 622 160 q 639 99 622 106 q 672 92 656 92 q 694 95 685 92 q 710 99 703 99 q 718 89 718 99 q 717 74 718 88 q 713 38 717 61 q 677 1 707 11 q 629 -8 647 -8 q 537 24 569 -8 q 504 128 504 57 l 504 196 l 525 188 q 419 36 482 81 q 288 -8 356 -8 q 188 17 242 -8 q 94 106 133 42 q 56 292 56 171 q 148 610 56 486 q 396 735 240 735 m 407 633 q 265 585 314 633 q 196 460 215 536 q 176 300 176 383 q 217 137 176 181 q 314 93 258 93 q 419 142 360 93 q 522 328 479 190 q 534 453 528 397 q 540 510 540 510 q 545 545 542 528 q 551 579 549 563 q 495 614 532 594 q 407 633 458 633 z "},"à":{"ha":757,"x_min":56,"x_max":718,"o":"m 396 735 q 506 708 461 735 q 572 660 550 682 q 594 710 583 690 q 635 729 606 729 l 643 729 q 678 700 678 729 q 672 648 678 700 q 658 517 667 596 q 642 358 650 439 q 628 219 633 278 q 622 149 622 160 q 639 99 622 106 q 672 92 656 92 q 694 95 685 92 q 710 99 703 99 q 718 89 718 99 q 717 74 718 88 q 713 38 717 61 q 677 1 707 11 q 629 -8 647 -8 q 537 24 569 -8 q 504 128 504 57 l 504 196 l 525 188 q 419 36 482 81 q 288 -8 356 -8 q 188 17 242 -8 q 94 106 133 42 q 56 292 56 171 q 148 610 56 486 q 396 735 240 735 m 407 633 q 265 585 314 633 q 196 460 215 536 q 176 300 176 383 q 217 137 176 181 q 314 93 258 93 q 419 142 360 93 q 522 328 479 190 q 534 453 528 397 q 540 510 540 510 q 545 545 542 528 q 551 579 549 563 q 495 614 532 594 q 407 633 458 633 m 294 1017 q 349 1008 328 1017 q 381 981 369 1000 q 447 864 432 893 q 461 825 461 835 q 429 813 461 813 q 389 819 408 813 q 358 838 369 825 q 249 963 269 939 q 228 1000 228 988 q 294 1017 229 1017 z "},"ả":{"ha":757,"x_min":56,"x_max":718,"o":"m 396 735 q 506 708 461 735 q 572 660 550 682 q 594 710 583 690 q 635 729 606 729 l 643 729 q 678 700 678 729 q 672 648 678 700 q 658 517 667 596 q 642 358 650 439 q 628 219 633 278 q 622 149 622 160 q 639 99 622 106 q 672 92 656 92 q 694 95 685 92 q 710 99 703 99 q 718 89 718 99 q 717 74 718 88 q 713 38 717 61 q 677 1 707 11 q 629 -8 647 -8 q 537 24 569 -8 q 504 128 504 57 l 504 196 l 525 188 q 419 36 482 81 q 288 -8 356 -8 q 188 17 242 -8 q 94 106 133 42 q 56 292 56 171 q 148 610 56 486 q 396 735 240 735 m 407 633 q 265 585 314 633 q 196 460 215 536 q 176 300 176 383 q 217 137 176 181 q 314 93 258 93 q 419 142 360 93 q 522 328 479 190 q 534 453 528 397 q 540 510 540 510 q 545 545 542 528 q 551 579 549 563 q 495 614 532 594 q 407 633 458 633 m 454 936 q 407 971 454 971 q 360 962 375 971 q 340 953 346 953 q 322 971 332 953 q 313 999 313 989 q 351 1027 313 1013 q 425 1042 389 1042 q 503 1021 460 1042 q 546 944 546 1000 q 515 859 546 896 q 449 802 483 822 q 408 782 415 782 q 354 806 354 782 q 379 841 354 825 q 429 878 404 857 q 454 936 454 900 z "},"ā":{"ha":757,"x_min":56,"x_max":718,"o":"m 396 735 q 506 708 461 735 q 572 660 550 682 q 594 710 583 690 q 635 729 606 729 l 643 729 q 678 700 678 729 q 672 648 678 700 q 658 517 667 596 q 642 358 650 439 q 628 219 633 278 q 622 149 622 160 q 639 99 622 106 q 672 92 656 92 q 694 95 685 92 q 710 99 703 99 q 718 89 718 99 q 717 74 718 88 q 713 38 717 61 q 677 1 707 11 q 629 -8 647 -8 q 537 24 569 -8 q 504 128 504 57 l 504 196 l 525 188 q 419 36 482 81 q 288 -8 356 -8 q 188 17 242 -8 q 94 106 133 42 q 56 292 56 171 q 148 610 56 486 q 396 735 240 735 m 407 633 q 265 585 314 633 q 196 460 215 536 q 176 300 176 383 q 217 137 176 181 q 314 93 258 93 q 419 142 360 93 q 522 328 479 190 q 534 453 528 397 q 540 510 540 510 q 545 545 542 528 q 551 579 549 563 q 495 614 532 594 q 407 633 458 633 m 556 949 q 579 913 579 949 q 574 876 579 901 q 544 850 569 850 l 231 850 q 207 888 207 850 q 212 924 207 899 q 242 949 217 949 l 556 949 z "},"ą":{"ha":757,"x_min":56,"x_max":819,"o":"m 396 735 q 506 708 461 735 q 572 660 550 682 q 594 710 583 690 q 635 729 606 729 l 643 729 q 678 700 678 729 q 672 648 678 700 q 658 517 667 596 q 642 358 650 439 q 628 219 633 278 q 622 149 622 160 q 639 99 622 106 q 672 92 656 92 q 694 95 685 92 q 710 99 703 99 q 718 89 718 99 q 717 74 718 88 q 713 38 717 61 q 677 1 707 11 q 629 -8 647 -8 q 537 24 569 -8 q 504 128 504 57 l 504 196 l 525 188 q 419 36 482 81 q 288 -8 356 -8 q 188 17 242 -8 q 94 106 133 42 q 56 292 56 171 q 148 610 56 486 q 396 735 240 735 m 407 633 q 265 585 314 633 q 196 460 215 536 q 176 300 176 383 q 217 137 176 181 q 314 93 258 93 q 419 142 360 93 q 522 328 479 190 q 534 453 528 397 q 540 510 540 510 q 545 545 542 528 q 551 579 549 563 q 495 614 532 594 q 407 633 458 633 m 646 19 q 668 3 668 19 q 655 -41 668 -14 q 642 -97 642 -68 q 671 -148 642 -139 q 722 -157 700 -157 q 778 -144 754 -157 q 811 -132 801 -132 q 819 -150 819 -132 q 780 -236 819 -218 q 696 -254 740 -254 q 572 -210 597 -254 q 546 -131 546 -165 q 554 -78 546 -114 q 584 -11 563 -42 q 646 19 606 19 z "},"å":{"ha":757,"x_min":56,"x_max":718,"o":"m 396 735 q 506 708 461 735 q 572 660 550 682 q 594 710 583 690 q 635 729 606 729 l 643 729 q 678 700 678 729 q 672 648 678 700 q 658 517 667 596 q 642 358 650 439 q 628 219 633 278 q 622 149 622 160 q 639 99 622 106 q 672 92 656 92 q 694 95 685 92 q 710 99 703 99 q 718 89 718 99 q 717 74 718 88 q 713 38 717 61 q 677 1 707 11 q 629 -8 647 -8 q 537 24 569 -8 q 504 128 504 57 l 504 196 l 525 188 q 419 36 482 81 q 288 -8 356 -8 q 188 17 242 -8 q 94 106 133 42 q 56 292 56 171 q 148 610 56 486 q 396 735 240 735 m 407 633 q 265 585 314 633 q 196 460 215 536 q 176 300 176 383 q 217 137 176 181 q 314 93 258 93 q 419 142 360 93 q 522 328 479 190 q 534 453 528 397 q 540 510 540 510 q 545 545 542 528 q 551 579 549 563 q 495 614 532 594 q 407 633 458 633 m 406 1018 q 481 988 451 1018 q 511 913 511 957 q 472 822 511 860 q 382 783 433 783 q 306 814 335 783 q 276 889 276 844 q 315 980 276 942 q 406 1018 354 1018 m 401 969 q 348 947 371 969 q 325 894 325 925 q 386 832 325 832 q 440 854 418 832 q 463 908 463 876 q 401 969 463 969 z "},"ǻ":{"ha":757,"x_min":56,"x_max":718,"o":"m 396 735 q 506 708 461 735 q 572 660 550 682 q 594 710 583 690 q 635 729 606 729 l 643 729 q 678 700 678 729 q 672 648 678 700 q 658 517 667 596 q 642 358 650 439 q 628 219 633 278 q 622 149 622 160 q 639 99 622 106 q 672 92 656 92 q 694 95 685 92 q 710 99 703 99 q 718 89 718 99 q 717 74 718 88 q 713 38 717 61 q 677 1 707 11 q 629 -8 647 -8 q 537 24 569 -8 q 504 128 504 57 l 504 196 l 525 188 q 419 36 482 81 q 288 -8 356 -8 q 188 17 242 -8 q 94 106 133 42 q 56 292 56 171 q 148 610 56 486 q 396 735 240 735 m 407 633 q 265 585 314 633 q 196 460 215 536 q 176 300 176 383 q 217 137 176 181 q 314 93 258 93 q 419 142 360 93 q 522 328 479 190 q 534 453 528 397 q 540 510 540 510 q 545 545 542 528 q 551 579 549 563 q 495 614 532 594 q 407 633 458 633 m 406 1018 q 481 988 451 1018 q 511 913 511 957 q 472 822 511 860 q 382 783 433 783 q 306 814 335 783 q 276 889 276 844 q 315 980 276 942 q 406 1018 354 1018 m 401 969 q 348 947 371 969 q 325 894 325 925 q 386 832 325 832 q 440 854 418 832 q 463 908 463 876 q 401 969 463 969 m 554 1281 q 619 1264 619 1281 q 610 1244 619 1256 q 570 1201 601 1232 q 472 1101 539 1169 q 440 1083 460 1089 q 399 1076 419 1076 q 368 1089 368 1076 q 386 1128 368 1099 q 464 1244 404 1158 q 499 1272 478 1264 q 554 1281 521 1281 z "},"ã":{"ha":757,"x_min":56,"x_max":718,"o":"m 396 735 q 506 708 461 735 q 572 660 550 682 q 594 710 583 690 q 635 729 606 729 l 643 729 q 678 700 678 729 q 672 648 678 700 q 658 517 667 596 q 642 358 650 439 q 628 219 633 278 q 622 149 622 160 q 639 99 622 106 q 672 92 656 92 q 694 95 685 92 q 710 99 703 99 q 718 89 718 99 q 717 74 718 88 q 713 38 717 61 q 677 1 707 11 q 629 -8 647 -8 q 537 24 569 -8 q 504 128 504 57 l 504 196 l 525 188 q 419 36 482 81 q 288 -8 356 -8 q 188 17 242 -8 q 94 106 133 42 q 56 292 56 171 q 148 610 56 486 q 396 735 240 735 m 407 633 q 265 585 314 633 q 196 460 215 536 q 176 300 176 383 q 217 137 176 181 q 314 93 258 93 q 419 142 360 93 q 522 328 479 190 q 534 453 528 397 q 540 510 540 510 q 545 545 542 528 q 551 579 549 563 q 495 614 532 594 q 407 633 458 633 z "},"æ":{"ha":1151,"x_min":40,"x_max":1075,"o":"m 842 735 q 980 704 929 735 q 1053 631 1031 674 q 1075 550 1075 589 q 1021 407 1075 458 q 881 335 967 356 q 700 314 794 314 q 613 314 656 314 q 526 314 569 314 l 581 368 l 581 292 q 636 134 581 176 q 783 92 692 92 q 931 126 878 92 q 999 160 983 160 q 1008 143 1008 160 q 1007 122 1008 140 q 1001 81 1006 103 q 951 28 994 47 q 855 0 907 8 q 774 -8 803 -8 q 639 8 708 -8 q 521 81 569 25 q 401 17 474 43 q 257 -8 328 -8 q 102 35 164 -8 q 40 171 40 78 q 106 324 40 274 q 270 392 171 375 q 471 411 369 408 q 532 575 488 503 q 487 618 519 601 q 396 635 454 635 q 242 606 301 635 q 174 576 183 576 q 145 604 158 576 q 132 644 132 632 q 215 703 132 672 q 403 735 297 735 q 611 664 547 735 q 713 716 656 697 q 842 735 769 735 m 460 314 q 344 307 414 314 q 221 272 275 300 q 167 183 167 244 q 274 93 167 93 q 381 113 329 93 q 476 163 433 133 q 460 279 460 213 l 460 314 m 829 635 q 660 569 714 635 q 590 414 607 504 l 686 414 q 772 420 706 414 q 896 453 838 426 q 954 539 954 479 q 829 635 954 635 z "},"ǽ":{"ha":1151,"x_min":40,"x_max":1075,"o":"m 842 735 q 980 704 929 735 q 1053 631 1031 674 q 1075 550 1075 589 q 1021 407 1075 458 q 881 335 967 356 q 700 314 794 314 q 613 314 656 314 q 526 314 569 314 l 581 368 l 581 292 q 636 134 581 176 q 783 92 692 92 q 931 126 878 92 q 999 160 983 160 q 1008 143 1008 160 q 1007 122 1008 140 q 1001 81 1006 103 q 951 28 994 47 q 855 0 907 8 q 774 -8 803 -8 q 639 8 708 -8 q 521 81 569 25 q 401 17 474 43 q 257 -8 328 -8 q 102 35 164 -8 q 40 171 40 78 q 106 324 40 274 q 270 392 171 375 q 471 411 369 408 q 532 575 488 503 q 487 618 519 601 q 396 635 454 635 q 242 606 301 635 q 174 576 183 576 q 145 604 158 576 q 132 644 132 632 q 215 703 132 672 q 403 735 297 735 q 611 664 547 735 q 713 716 656 697 q 842 735 769 735 m 460 314 q 344 307 414 314 q 221 272 275 300 q 167 183 167 244 q 274 93 167 93 q 381 113 329 93 q 476 163 433 133 q 460 279 460 213 l 460 314 m 829 635 q 660 569 714 635 q 590 414 607 504 l 686 414 q 772 420 706 414 q 896 453 838 426 q 954 539 954 479 q 829 635 954 635 m 710 1017 q 775 1000 775 1017 q 766 980 775 992 q 726 937 757 968 q 628 838 694 906 q 595 819 615 825 q 554 813 575 813 q 524 825 524 813 q 542 865 524 835 q 619 981 560 894 q 655 1008 633 1000 q 710 1017 676 1017 z "},"b":{"ha":790,"x_min":53,"x_max":710,"o":"m 221 1044 q 274 1014 274 1044 l 229 590 q 331 701 272 667 q 450 735 389 735 q 561 711 500 735 q 666 624 622 688 q 710 439 710 560 q 610 118 710 244 q 342 -8 510 -8 q 228 18 275 -8 q 157 67 181 44 q 136 19 150 40 q 99 -3 122 -3 l 88 -3 q 53 28 53 -3 l 157 1014 q 215 1044 161 1044 l 221 1044 m 424 633 q 315 586 376 633 q 210 403 253 539 l 190 217 q 185 180 189 197 q 179 147 182 163 q 237 112 199 131 q 331 93 275 93 q 490 142 433 93 q 567 269 546 192 q 589 431 589 347 q 540 592 589 550 q 424 633 492 633 z "},"c":{"ha":674,"x_min":65,"x_max":626,"o":"m 432 735 q 538 723 494 735 q 604 694 582 711 q 626 663 626 678 q 608 621 626 649 q 572 593 590 593 q 542 610 571 593 q 496 626 525 618 q 418 635 467 635 q 253 558 321 635 q 186 292 186 481 q 375 92 186 92 q 467 102 429 92 q 528 122 506 113 q 561 135 558 135 q 569 118 569 135 q 568 97 569 117 q 563 56 567 76 q 517 14 557 28 q 432 -4 478 0 q 365 -8 386 -8 q 142 60 218 -8 q 65 283 65 128 q 101 506 65 403 q 218 672 138 608 q 432 735 299 735 z "},"ć":{"ha":674,"x_min":65,"x_max":626,"o":"m 432 735 q 538 723 494 735 q 604 694 582 711 q 626 663 626 678 q 608 621 626 649 q 572 593 590 593 q 542 610 571 593 q 496 626 525 618 q 418 635 467 635 q 253 558 321 635 q 186 292 186 481 q 375 92 186 92 q 467 102 429 92 q 528 122 506 113 q 561 135 558 135 q 569 118 569 135 q 568 97 569 117 q 563 56 567 76 q 517 14 557 28 q 432 -4 478 0 q 365 -8 386 -8 q 142 60 218 -8 q 65 283 65 128 q 101 506 65 403 q 218 672 138 608 q 432 735 299 735 m 540 1017 q 606 1000 606 1017 q 597 980 606 992 q 556 937 588 968 q 458 838 525 906 q 426 819 446 825 q 385 813 406 813 q 354 825 354 813 q 372 865 354 835 q 450 981 390 894 q 485 1008 464 1000 q 540 1017 507 1017 z "},"č":{"ha":674,"x_min":65,"x_max":626,"o":"m 432 735 q 538 723 494 735 q 604 694 582 711 q 626 663 626 678 q 608 621 626 649 q 572 593 590 593 q 542 610 571 593 q 496 626 525 618 q 418 635 467 635 q 253 558 321 635 q 186 292 186 481 q 375 92 186 92 q 467 102 429 92 q 528 122 506 113 q 561 135 558 135 q 569 118 569 135 q 568 97 569 117 q 563 56 567 76 q 517 14 557 28 q 432 -4 478 0 q 365 -8 386 -8 q 142 60 218 -8 q 65 283 65 128 q 101 506 65 403 q 218 672 138 608 q 432 735 299 735 m 571 1006 q 601 986 601 1006 q 592 961 601 975 l 499 839 q 470 816 488 824 q 432 808 453 808 l 397 808 q 361 816 378 808 q 336 839 344 824 l 272 961 q 265 986 265 974 q 300 1006 268 1006 l 303 1006 q 349 988 331 1006 l 422 885 l 521 988 q 543 1001 532 997 q 568 1006 554 1006 l 571 1006 z "},"ç":{"ha":674,"x_min":65,"x_max":626,"o":"m 432 735 q 538 723 494 735 q 604 694 582 711 q 626 663 626 678 q 608 621 626 649 q 572 593 590 593 q 542 610 571 593 q 496 626 525 618 q 418 635 467 635 q 253 558 321 635 q 186 292 186 481 q 375 92 186 92 q 467 102 429 92 q 528 122 506 113 q 561 135 558 135 q 569 118 569 135 q 568 97 569 117 q 563 56 567 76 q 517 14 557 28 q 432 -4 478 0 q 365 -8 386 -8 q 142 60 218 -8 q 65 283 65 128 q 101 506 65 403 q 218 672 138 608 q 432 735 299 735 m 396 0 l 361 -86 l 347 -68 l 374 -68 q 439 -82 396 -68 q 482 -154 482 -96 q 421 -268 482 -244 q 308 -292 360 -292 q 228 -282 283 -292 q 174 -235 174 -272 q 179 -194 174 -200 q 190 -189 185 -189 q 222 -206 194 -189 q 299 -224 250 -224 q 353 -215 325 -224 q 382 -168 382 -206 q 361 -133 382 -142 q 319 -119 340 -125 q 299 -96 299 -114 q 306 -74 299 -96 q 336 0 314 -53 l 396 0 z "},"ĉ":{"ha":674,"x_min":65,"x_max":626,"o":"m 432 735 q 538 723 494 735 q 604 694 582 711 q 626 663 626 678 q 608 621 626 649 q 572 593 590 593 q 542 610 571 593 q 496 626 525 618 q 418 635 467 635 q 253 558 321 635 q 186 292 186 481 q 375 92 186 92 q 467 102 429 92 q 528 122 506 113 q 561 135 558 135 q 569 118 569 135 q 568 97 569 117 q 563 56 567 76 q 517 14 557 28 q 432 -4 478 0 q 365 -8 386 -8 q 142 60 218 -8 q 65 283 65 128 q 101 506 65 403 q 218 672 138 608 q 432 735 299 735 m 442 997 q 478 990 461 997 q 503 967 494 982 l 568 844 q 575 821 575 833 q 539 800 572 800 l 536 800 q 492 818 510 800 l 415 921 l 319 818 q 297 804 308 808 q 271 800 286 800 l 268 800 q 239 817 239 800 q 249 844 239 829 l 340 967 q 369 990 351 982 q 407 997 386 997 l 442 997 z "},"ċ":{"ha":674,"x_min":65,"x_max":626,"o":"m 432 735 q 538 723 494 735 q 604 694 582 711 q 626 663 626 678 q 608 621 626 649 q 572 593 590 593 q 542 610 571 593 q 496 626 525 618 q 418 635 467 635 q 253 558 321 635 q 186 292 186 481 q 375 92 186 92 q 467 102 429 92 q 528 122 506 113 q 561 135 558 135 q 569 118 569 135 q 568 97 569 117 q 563 56 567 76 q 517 14 557 28 q 432 -4 478 0 q 365 -8 386 -8 q 142 60 218 -8 q 65 283 65 128 q 101 506 65 403 q 218 672 138 608 q 432 735 299 735 m 431 975 q 483 944 483 975 l 476 874 q 413 843 472 843 q 360 874 360 843 l 367 944 q 431 975 371 975 z "},"d":{"ha":785,"x_min":57,"x_max":756,"o":"m 696 1044 q 749 1014 749 1044 q 740 931 749 1014 q 717 722 731 847 q 691 470 704 597 q 669 252 678 343 q 660 149 660 161 q 676 99 660 106 q 710 92 693 92 q 732 95 722 92 q 747 99 742 99 q 756 89 756 99 q 755 74 756 88 q 750 38 754 61 q 715 1 744 11 q 667 -8 686 -8 q 542 128 542 -8 l 542 196 l 563 186 q 454 36 519 81 q 318 -8 389 -8 q 206 17 267 -8 q 101 106 146 42 q 57 292 57 171 q 152 610 57 486 q 406 735 247 735 q 523 715 478 735 q 594 672 568 694 q 621 917 610 819 q 632 1014 632 1014 q 690 1044 636 1044 l 696 1044 m 422 633 q 274 585 326 633 q 200 460 221 536 q 179 300 179 383 q 223 137 179 181 q 344 93 267 93 q 453 141 392 93 q 558 325 514 189 l 585 581 q 525 615 564 597 q 422 633 486 633 z "},"ð":{"ha":790,"x_min":58,"x_max":704,"o":"m 485 990 q 509 985 500 990 q 525 969 518 979 l 561 917 q 656 930 642 928 q 671 932 669 932 q 694 915 689 932 q 700 890 700 899 q 678 869 700 871 l 593 858 q 674 658 643 764 q 704 438 704 551 q 609 106 704 219 q 346 -8 514 -8 q 58 288 58 -8 q 158 618 58 501 q 424 735 257 735 q 481 731 454 735 q 533 718 508 726 q 508 785 521 753 q 482 843 494 817 q 380 829 396 832 q 361 826 364 826 q 338 840 347 826 q 329 868 329 853 q 353 889 329 885 l 454 903 q 435 936 439 929 q 422 957 431 943 q 417 971 417 964 q 433 985 417 983 q 456 988 439 986 q 485 990 472 990 m 408 635 q 239 551 300 635 q 178 293 178 468 q 351 92 178 92 q 522 174 461 92 q 583 431 583 257 q 408 635 583 635 z "},"ď":{"ha":785,"x_min":57,"x_max":929,"o":"m 696 1044 q 749 1014 749 1044 q 740 931 749 1014 q 717 722 731 847 q 691 470 704 597 q 669 252 678 343 q 660 149 660 161 q 676 99 660 106 q 710 92 693 92 q 732 95 722 92 q 747 99 742 99 q 756 89 756 99 q 755 74 756 88 q 750 38 754 61 q 715 1 744 11 q 667 -8 686 -8 q 542 128 542 -8 l 542 196 l 563 186 q 454 36 519 81 q 318 -8 389 -8 q 206 17 267 -8 q 101 106 146 42 q 57 292 57 171 q 152 610 57 486 q 406 735 247 735 q 523 715 478 735 q 594 672 568 694 q 621 917 610 819 q 632 1014 632 1014 q 690 1044 636 1044 l 696 1044 m 422 633 q 274 585 326 633 q 200 460 221 536 q 179 300 179 383 q 223 137 179 181 q 344 93 267 93 q 453 141 392 93 q 558 325 514 189 l 585 581 q 525 615 564 597 q 422 633 486 633 m 878 1044 q 917 1034 904 1044 q 929 1006 929 1024 q 905 926 929 971 q 851 849 881 882 q 804 817 821 817 q 780 821 793 817 q 767 838 767 825 q 785 905 767 865 q 804 1000 804 944 q 865 1044 804 1044 l 878 1044 z "},"đ":{"ha":785,"x_min":57,"x_max":821,"o":"m 696 1044 q 749 1014 749 1044 q 740 931 749 1014 q 717 722 731 847 q 691 470 704 597 q 669 252 678 343 q 660 149 660 161 q 676 99 660 106 q 710 92 693 92 q 732 95 722 92 q 747 99 742 99 q 756 89 756 99 q 755 74 756 88 q 750 38 754 61 q 715 1 744 11 q 667 -8 686 -8 q 542 128 542 -8 l 542 196 l 563 186 q 454 36 519 81 q 318 -8 389 -8 q 206 17 267 -8 q 101 106 146 42 q 57 292 57 171 q 152 610 57 486 q 406 735 247 735 q 523 715 478 735 q 594 672 568 694 q 621 917 610 819 q 632 1014 632 1014 q 690 1044 636 1044 l 696 1044 m 422 633 q 274 585 326 633 q 200 460 221 536 q 179 300 179 383 q 223 137 179 181 q 344 93 267 93 q 453 141 392 93 q 558 325 514 189 l 585 581 q 525 615 564 597 q 422 633 486 633 z "},"ḍ":{"ha":785,"x_min":57,"x_max":756,"o":"m 696 1044 q 749 1014 749 1044 q 740 931 749 1014 q 717 722 731 847 q 691 470 704 597 q 669 252 678 343 q 660 149 660 161 q 676 99 660 106 q 710 92 693 92 q 732 95 722 92 q 747 99 742 99 q 756 89 756 99 q 755 74 756 88 q 750 38 754 61 q 715 1 744 11 q 667 -8 686 -8 q 542 128 542 -8 l 542 196 l 563 186 q 454 36 519 81 q 318 -8 389 -8 q 206 17 267 -8 q 101 106 146 42 q 57 292 57 171 q 152 610 57 486 q 406 735 247 735 q 523 715 478 735 q 594 672 568 694 q 621 917 610 819 q 632 1014 632 1014 q 690 1044 636 1044 l 696 1044 m 422 633 q 274 585 326 633 q 200 460 221 536 q 179 300 179 383 q 223 137 179 181 q 344 93 267 93 q 453 141 392 93 q 558 325 514 189 l 585 581 q 525 615 564 597 q 422 633 486 633 z "},"ǳ":{"ha":1464,"x_min":57,"x_max":1438,"o":"m 696 1044 q 749 1014 749 1044 q 740 931 749 1014 q 717 722 731 847 q 691 470 704 597 q 669 252 678 343 q 660 149 660 161 q 676 99 660 106 q 710 92 693 92 q 732 95 722 92 q 747 99 742 99 q 756 89 756 99 q 755 74 756 88 q 750 38 754 61 q 715 1 744 11 q 667 -8 686 -8 q 542 128 542 -8 l 542 196 l 563 186 q 454 36 519 81 q 318 -8 389 -8 q 206 17 267 -8 q 101 106 146 42 q 57 292 57 171 q 152 610 57 486 q 406 735 247 735 q 523 715 478 735 q 594 672 568 694 q 621 917 610 819 q 632 1014 632 1014 q 690 1044 636 1044 l 696 1044 m 422 633 q 274 585 326 633 q 200 460 221 536 q 179 300 179 383 q 223 137 179 181 q 344 93 267 93 q 453 141 392 93 q 558 325 514 189 l 585 581 q 525 615 564 597 q 422 633 486 633 m 1417 726 q 1432 703 1426 726 q 1438 660 1438 679 q 1432 640 1438 646 l 971 100 l 1353 100 q 1376 63 1376 100 q 1372 26 1376 51 q 1342 0 1367 0 l 828 0 q 813 22 821 0 q 804 64 804 43 q 811 86 804 79 l 1274 626 l 918 626 q 894 664 894 626 q 899 701 894 675 q 929 726 904 726 l 1417 726 z "},"ǆ":{"ha":1464,"x_min":57,"x_max":1438,"o":"m 696 1044 q 749 1014 749 1044 q 740 931 749 1014 q 717 722 731 847 q 691 470 704 597 q 669 252 678 343 q 660 149 660 161 q 676 99 660 106 q 710 92 693 92 q 732 95 722 92 q 747 99 742 99 q 756 89 756 99 q 755 74 756 88 q 750 38 754 61 q 715 1 744 11 q 667 -8 686 -8 q 542 128 542 -8 l 542 196 l 563 186 q 454 36 519 81 q 318 -8 389 -8 q 206 17 267 -8 q 101 106 146 42 q 57 292 57 171 q 152 610 57 486 q 406 735 247 735 q 523 715 478 735 q 594 672 568 694 q 621 917 610 819 q 632 1014 632 1014 q 690 1044 636 1044 l 696 1044 m 422 633 q 274 585 326 633 q 200 460 221 536 q 179 300 179 383 q 223 137 179 181 q 344 93 267 93 q 453 141 392 93 q 558 325 514 189 l 585 581 q 525 615 564 597 q 422 633 486 633 m 1417 726 q 1432 703 1426 726 q 1438 660 1438 679 q 1432 640 1438 646 l 971 100 l 1353 100 q 1376 63 1376 100 q 1372 26 1376 51 q 1342 0 1367 0 l 828 0 q 813 22 821 0 q 804 64 804 43 q 811 86 804 79 l 1274 626 l 918 626 q 894 664 894 626 q 899 701 894 675 q 929 726 904 726 l 1417 726 m 1331 1006 q 1361 986 1361 1006 q 1351 961 1361 975 l 1258 839 q 1230 816 1247 824 q 1192 808 1213 808 l 1157 808 q 1121 816 1138 808 q 1096 839 1104 824 l 1032 961 q 1025 986 1025 974 q 1060 1006 1028 1006 l 1063 1006 q 1108 988 1090 1006 l 1182 885 l 1281 988 q 1303 1001 1292 997 q 1328 1006 1314 1006 l 1331 1006 z "},"e":{"ha":749,"x_min":64,"x_max":679,"o":"m 446 735 q 585 703 533 735 q 658 629 636 672 q 679 550 679 586 q 625 398 679 453 q 485 319 571 343 q 304 296 399 296 q 219 301 254 296 q 161 311 183 306 l 185 360 l 185 292 q 240 134 185 176 q 388 92 296 92 q 535 126 481 92 q 603 160 589 160 q 613 143 613 160 q 611 122 613 140 q 606 81 610 103 q 556 28 600 47 q 460 0 511 8 q 378 -8 408 -8 q 236 12 308 -8 q 114 94 164 32 q 64 279 64 156 q 153 600 64 465 q 446 735 242 735 m 433 635 q 259 564 313 635 q 192 396 206 493 l 290 396 q 376 402 311 396 q 500 438 442 408 q 558 539 558 467 q 526 606 558 578 q 433 635 493 635 z "},"é":{"ha":749,"x_min":64,"x_max":679,"o":"m 446 735 q 585 703 533 735 q 658 629 636 672 q 679 550 679 586 q 625 398 679 453 q 485 319 571 343 q 304 296 399 296 q 219 301 254 296 q 161 311 183 306 l 185 360 l 185 292 q 240 134 185 176 q 388 92 296 92 q 535 126 481 92 q 603 160 589 160 q 613 143 613 160 q 611 122 613 140 q 606 81 610 103 q 556 28 600 47 q 460 0 511 8 q 378 -8 408 -8 q 236 12 308 -8 q 114 94 164 32 q 64 279 64 156 q 153 600 64 465 q 446 735 242 735 m 433 635 q 259 564 313 635 q 192 396 206 493 l 290 396 q 376 402 311 396 q 500 438 442 408 q 558 539 558 467 q 526 606 558 578 q 433 635 493 635 m 564 1017 q 629 1000 629 1017 q 620 980 629 992 q 580 937 611 968 q 482 838 549 906 q 449 819 469 825 q 408 813 429 813 q 378 825 378 813 q 396 865 378 835 q 474 981 414 894 q 509 1008 488 1000 q 564 1017 531 1017 z "},"ĕ":{"ha":749,"x_min":64,"x_max":679,"o":"m 446 735 q 585 703 533 735 q 658 629 636 672 q 679 550 679 586 q 625 398 679 453 q 485 319 571 343 q 304 296 399 296 q 219 301 254 296 q 161 311 183 306 l 185 360 l 185 292 q 240 134 185 176 q 388 92 296 92 q 535 126 481 92 q 603 160 589 160 q 613 143 613 160 q 611 122 613 140 q 606 81 610 103 q 556 28 600 47 q 460 0 511 8 q 378 -8 408 -8 q 236 12 308 -8 q 114 94 164 32 q 64 279 64 156 q 153 600 64 465 q 446 735 242 735 m 433 635 q 259 564 313 635 q 192 396 206 493 l 290 396 q 376 402 311 396 q 500 438 442 408 q 558 539 558 467 q 526 606 558 578 q 433 635 493 635 m 635 993 q 654 976 654 993 q 581 853 654 894 q 438 813 507 813 q 309 848 367 813 q 251 956 251 883 q 275 993 251 993 q 294 984 293 993 q 303 958 296 975 q 356 917 315 929 q 447 904 396 904 q 540 917 497 904 q 601 958 583 929 q 614 984 611 975 q 635 993 617 993 z "},"ě":{"ha":749,"x_min":64,"x_max":679,"o":"m 446 735 q 585 703 533 735 q 658 629 636 672 q 679 550 679 586 q 625 398 679 453 q 485 319 571 343 q 304 296 399 296 q 219 301 254 296 q 161 311 183 306 l 185 360 l 185 292 q 240 134 185 176 q 388 92 296 92 q 535 126 481 92 q 603 160 589 160 q 613 143 613 160 q 611 122 613 140 q 606 81 610 103 q 556 28 600 47 q 460 0 511 8 q 378 -8 408 -8 q 236 12 308 -8 q 114 94 164 32 q 64 279 64 156 q 153 600 64 465 q 446 735 242 735 m 433 635 q 259 564 313 635 q 192 396 206 493 l 290 396 q 376 402 311 396 q 500 438 442 408 q 558 539 558 467 q 526 606 558 578 q 433 635 493 635 m 594 1006 q 625 986 625 1006 q 615 961 625 975 l 522 839 q 494 816 511 824 q 456 808 476 808 l 421 808 q 385 816 401 808 q 360 839 368 824 l 296 961 q 289 986 289 974 q 324 1006 292 1006 l 326 1006 q 372 988 354 1006 l 446 885 l 544 988 q 567 1001 556 997 q 592 1006 578 1006 l 594 1006 z "},"ê":{"ha":749,"x_min":64,"x_max":679,"o":"m 446 735 q 585 703 533 735 q 658 629 636 672 q 679 550 679 586 q 625 398 679 453 q 485 319 571 343 q 304 296 399 296 q 219 301 254 296 q 161 311 183 306 l 185 360 l 185 292 q 240 134 185 176 q 388 92 296 92 q 535 126 481 92 q 603 160 589 160 q 613 143 613 160 q 611 122 613 140 q 606 81 610 103 q 556 28 600 47 q 460 0 511 8 q 378 -8 408 -8 q 236 12 308 -8 q 114 94 164 32 q 64 279 64 156 q 153 600 64 465 q 446 735 242 735 m 433 635 q 259 564 313 635 q 192 396 206 493 l 290 396 q 376 402 311 396 q 500 438 442 408 q 558 539 558 467 q 526 606 558 578 q 433 635 493 635 m 465 997 q 501 990 485 997 q 526 967 518 982 l 592 844 q 599 821 599 833 q 563 800 596 800 l 560 800 q 515 818 533 800 l 439 921 l 343 818 q 321 804 332 808 q 294 800 310 800 l 292 800 q 263 817 263 800 q 272 844 263 829 l 364 967 q 392 990 375 982 q 431 997 410 997 l 465 997 z "},"ế":{"ha":749,"x_min":64,"x_max":833,"o":"m 446 735 q 585 703 533 735 q 658 629 636 672 q 679 550 679 586 q 625 398 679 453 q 485 319 571 343 q 304 296 399 296 q 219 301 254 296 q 161 311 183 306 l 185 360 l 185 292 q 240 134 185 176 q 388 92 296 92 q 535 126 481 92 q 603 160 589 160 q 613 143 613 160 q 611 122 613 140 q 606 81 610 103 q 556 28 600 47 q 460 0 511 8 q 378 -8 408 -8 q 236 12 308 -8 q 114 94 164 32 q 64 279 64 156 q 153 600 64 465 q 446 735 242 735 m 433 635 q 259 564 313 635 q 192 396 206 493 l 290 396 q 376 402 311 396 q 500 438 442 408 q 558 539 558 467 q 526 606 558 578 q 433 635 493 635 m 476 997 q 504 990 492 997 q 524 967 517 982 l 582 844 q 589 821 589 833 q 553 800 586 800 l 550 800 q 524 803 536 800 q 506 818 513 807 l 450 921 l 354 818 q 332 804 343 808 q 306 800 321 800 l 303 800 q 274 817 274 800 q 283 844 274 829 l 375 967 q 403 990 386 982 q 442 997 421 997 l 476 997 m 768 1196 q 833 1179 833 1196 q 824 1159 833 1171 q 784 1116 815 1147 q 686 1017 753 1085 q 653 998 674 1004 q 613 992 633 992 q 582 1004 582 992 q 600 1044 582 1014 q 678 1160 618 1074 q 713 1188 692 1179 q 768 1196 735 1196 z "},"ệ":{"ha":749,"x_min":64,"x_max":679,"o":"m 446 735 q 585 703 533 735 q 658 629 636 672 q 679 550 679 586 q 625 398 679 453 q 485 319 571 343 q 304 296 399 296 q 219 301 254 296 q 161 311 183 306 l 185 360 l 185 292 q 240 134 185 176 q 388 92 296 92 q 535 126 481 92 q 603 160 589 160 q 613 143 613 160 q 611 122 613 140 q 606 81 610 103 q 556 28 600 47 q 460 0 511 8 q 378 -8 408 -8 q 236 12 308 -8 q 114 94 164 32 q 64 279 64 156 q 153 600 64 465 q 446 735 242 735 m 433 635 q 259 564 313 635 q 192 396 206 493 l 290 396 q 376 402 311 396 q 500 438 442 408 q 558 539 558 467 q 526 606 558 578 q 433 635 493 635 m 465 997 q 501 990 485 997 q 526 967 518 982 l 592 844 q 599 821 599 833 q 563 800 596 800 l 560 800 q 515 818 533 800 l 439 921 l 343 818 q 321 804 332 808 q 294 800 310 800 l 292 800 q 263 817 263 800 q 272 844 263 829 l 364 967 q 392 990 375 982 q 431 997 410 997 l 465 997 z "},"ề":{"ha":749,"x_min":64,"x_max":703,"o":"m 446 735 q 585 703 533 735 q 658 629 636 672 q 679 550 679 586 q 625 398 679 453 q 485 319 571 343 q 304 296 399 296 q 219 301 254 296 q 161 311 183 306 l 185 360 l 185 292 q 240 134 185 176 q 388 92 296 92 q 535 126 481 92 q 603 160 589 160 q 613 143 613 160 q 611 122 613 140 q 606 81 610 103 q 556 28 600 47 q 460 0 511 8 q 378 -8 408 -8 q 236 12 308 -8 q 114 94 164 32 q 64 279 64 156 q 153 600 64 465 q 446 735 242 735 m 433 635 q 259 564 313 635 q 192 396 206 493 l 290 396 q 376 402 311 396 q 500 438 442 408 q 558 539 558 467 q 526 606 558 578 q 433 635 493 635 m 476 997 q 504 990 492 997 q 524 967 517 982 l 582 844 q 589 821 589 833 q 553 800 586 800 l 550 800 q 524 803 536 800 q 506 818 513 807 l 450 921 l 354 818 q 332 804 343 808 q 306 800 321 800 l 303 800 q 274 817 274 800 q 283 844 274 829 l 375 967 q 403 990 386 982 q 442 997 421 997 l 476 997 m 536 1196 q 590 1188 569 1196 q 622 1160 611 1179 q 688 1043 674 1072 q 703 1004 703 1014 q 671 992 703 992 q 631 998 650 992 q 600 1017 611 1004 q 490 1142 511 1118 q 469 1179 469 1167 q 536 1196 471 1196 z "},"ể":{"ha":749,"x_min":64,"x_max":788,"o":"m 446 735 q 585 703 533 735 q 658 629 636 672 q 679 550 679 586 q 625 398 679 453 q 485 319 571 343 q 304 296 399 296 q 219 301 254 296 q 161 311 183 306 l 185 360 l 185 292 q 240 134 185 176 q 388 92 296 92 q 535 126 481 92 q 603 160 589 160 q 613 143 613 160 q 611 122 613 140 q 606 81 610 103 q 556 28 600 47 q 460 0 511 8 q 378 -8 408 -8 q 236 12 308 -8 q 114 94 164 32 q 64 279 64 156 q 153 600 64 465 q 446 735 242 735 m 433 635 q 259 564 313 635 q 192 396 206 493 l 290 396 q 376 402 311 396 q 500 438 442 408 q 558 539 558 467 q 526 606 558 578 q 433 635 493 635 m 476 997 q 504 990 492 997 q 524 967 517 982 l 582 844 q 589 821 589 833 q 553 800 586 800 l 550 800 q 524 803 536 800 q 506 818 513 807 l 450 921 l 354 818 q 332 804 343 808 q 306 800 321 800 l 303 800 q 274 817 274 800 q 283 844 274 829 l 375 967 q 403 990 386 982 q 442 997 421 997 l 476 997 m 696 1115 q 649 1150 696 1150 q 602 1141 617 1150 q 582 1132 588 1132 q 564 1150 574 1132 q 554 1178 554 1168 q 592 1206 554 1192 q 667 1221 631 1221 q 744 1200 701 1221 q 788 1124 788 1179 q 756 1038 788 1075 q 691 981 725 1001 q 650 961 657 961 q 596 985 596 961 q 621 1020 596 1004 q 671 1058 646 1036 q 696 1115 696 1079 z "},"ễ":{"ha":749,"x_min":64,"x_max":711,"o":"m 446 735 q 585 703 533 735 q 658 629 636 672 q 679 550 679 586 q 625 398 679 453 q 485 319 571 343 q 304 296 399 296 q 219 301 254 296 q 161 311 183 306 l 185 360 l 185 292 q 240 134 185 176 q 388 92 296 92 q 535 126 481 92 q 603 160 589 160 q 613 143 613 160 q 611 122 613 140 q 606 81 610 103 q 556 28 600 47 q 460 0 511 8 q 378 -8 408 -8 q 236 12 308 -8 q 114 94 164 32 q 64 279 64 156 q 153 600 64 465 q 446 735 242 735 m 433 635 q 259 564 313 635 q 192 396 206 493 l 290 396 q 376 402 311 396 q 500 438 442 408 q 558 539 558 467 q 526 606 558 578 q 433 635 493 635 m 465 997 q 501 990 485 997 q 526 967 518 982 l 592 844 q 599 821 599 833 q 563 800 596 800 l 560 800 q 515 818 533 800 l 439 921 l 343 818 q 321 804 332 808 q 294 800 310 800 l 292 800 q 263 817 263 800 q 272 844 263 829 l 364 967 q 392 990 375 982 q 431 997 410 997 l 465 997 m 372 1222 q 488 1192 428 1222 q 592 1163 547 1163 q 621 1172 608 1163 q 647 1203 633 1181 q 665 1222 657 1218 q 685 1219 674 1225 l 694 1215 q 709 1202 707 1210 q 704 1179 711 1194 q 655 1106 683 1128 q 589 1085 626 1085 q 470 1115 531 1085 q 365 1144 410 1144 q 338 1135 350 1144 q 313 1103 326 1125 q 296 1084 303 1088 q 276 1086 289 1081 l 264 1092 q 251 1105 253 1097 q 256 1126 250 1113 q 305 1201 276 1179 q 372 1222 333 1222 z "},"ë":{"ha":749,"x_min":64,"x_max":679,"o":"m 446 735 q 585 703 533 735 q 658 629 636 672 q 679 550 679 586 q 625 398 679 453 q 485 319 571 343 q 304 296 399 296 q 219 301 254 296 q 161 311 183 306 l 185 360 l 185 292 q 240 134 185 176 q 388 92 296 92 q 535 126 481 92 q 603 160 589 160 q 613 143 613 160 q 611 122 613 140 q 606 81 610 103 q 556 28 600 47 q 460 0 511 8 q 378 -8 408 -8 q 236 12 308 -8 q 114 94 164 32 q 64 279 64 156 q 153 600 64 465 q 446 735 242 735 m 433 635 q 259 564 313 635 q 192 396 206 493 l 290 396 q 376 402 311 396 q 500 438 442 408 q 558 539 558 467 q 526 606 558 578 q 433 635 493 635 m 554 975 q 607 944 607 975 l 600 874 q 536 843 596 843 q 483 874 483 843 l 490 944 q 554 975 493 975 m 354 975 q 407 944 407 975 l 400 874 q 336 843 396 843 q 283 874 283 843 l 290 944 q 354 975 294 975 z "},"ė":{"ha":749,"x_min":64,"x_max":679,"o":"m 446 735 q 585 703 533 735 q 658 629 636 672 q 679 550 679 586 q 625 398 679 453 q 485 319 571 343 q 304 296 399 296 q 219 301 254 296 q 161 311 183 306 l 185 360 l 185 292 q 240 134 185 176 q 388 92 296 92 q 535 126 481 92 q 603 160 589 160 q 613 143 613 160 q 611 122 613 140 q 606 81 610 103 q 556 28 600 47 q 460 0 511 8 q 378 -8 408 -8 q 236 12 308 -8 q 114 94 164 32 q 64 279 64 156 q 153 600 64 465 q 446 735 242 735 m 433 635 q 259 564 313 635 q 192 396 206 493 l 290 396 q 376 402 311 396 q 500 438 442 408 q 558 539 558 467 q 526 606 558 578 q 433 635 493 635 m 454 975 q 507 944 507 975 l 500 874 q 436 843 496 843 q 383 874 383 843 l 390 944 q 454 975 394 975 z "},"ẹ":{"ha":749,"x_min":64,"x_max":679,"o":"m 446 735 q 585 703 533 735 q 658 629 636 672 q 679 550 679 586 q 625 398 679 453 q 485 319 571 343 q 304 296 399 296 q 219 301 254 296 q 161 311 183 306 l 185 360 l 185 292 q 240 134 185 176 q 388 92 296 92 q 535 126 481 92 q 603 160 589 160 q 613 143 613 160 q 611 122 613 140 q 606 81 610 103 q 556 28 600 47 q 460 0 511 8 q 378 -8 408 -8 q 236 12 308 -8 q 114 94 164 32 q 64 279 64 156 q 153 600 64 465 q 446 735 242 735 m 433 635 q 259 564 313 635 q 192 396 206 493 l 290 396 q 376 402 311 396 q 500 438 442 408 q 558 539 558 467 q 526 606 558 578 q 433 635 493 635 z "},"è":{"ha":749,"x_min":64,"x_max":679,"o":"m 446 735 q 585 703 533 735 q 658 629 636 672 q 679 550 679 586 q 625 398 679 453 q 485 319 571 343 q 304 296 399 296 q 219 301 254 296 q 161 311 183 306 l 185 360 l 185 292 q 240 134 185 176 q 388 92 296 92 q 535 126 481 92 q 603 160 589 160 q 613 143 613 160 q 611 122 613 140 q 606 81 610 103 q 556 28 600 47 q 460 0 511 8 q 378 -8 408 -8 q 236 12 308 -8 q 114 94 164 32 q 64 279 64 156 q 153 600 64 465 q 446 735 242 735 m 433 635 q 259 564 313 635 q 192 396 206 493 l 290 396 q 376 402 311 396 q 500 438 442 408 q 558 539 558 467 q 526 606 558 578 q 433 635 493 635 m 332 1017 q 386 1008 365 1017 q 418 981 407 1000 q 484 864 469 893 q 499 825 499 835 q 467 813 499 813 q 426 819 446 813 q 396 838 407 825 q 286 963 307 939 q 265 1000 265 988 q 332 1017 267 1017 z "},"ẻ":{"ha":749,"x_min":64,"x_max":679,"o":"m 446 735 q 585 703 533 735 q 658 629 636 672 q 679 550 679 586 q 625 398 679 453 q 485 319 571 343 q 304 296 399 296 q 219 301 254 296 q 161 311 183 306 l 185 360 l 185 292 q 240 134 185 176 q 388 92 296 92 q 535 126 481 92 q 603 160 589 160 q 613 143 613 160 q 611 122 613 140 q 606 81 610 103 q 556 28 600 47 q 460 0 511 8 q 378 -8 408 -8 q 236 12 308 -8 q 114 94 164 32 q 64 279 64 156 q 153 600 64 465 q 446 735 242 735 m 433 635 q 259 564 313 635 q 192 396 206 493 l 290 396 q 376 402 311 396 q 500 438 442 408 q 558 539 558 467 q 526 606 558 578 q 433 635 493 635 m 492 936 q 444 971 492 971 q 398 962 413 971 q 378 953 383 953 q 360 971 369 953 q 350 999 350 989 q 388 1027 350 1013 q 463 1042 426 1042 q 540 1021 497 1042 q 583 944 583 1000 q 552 859 583 896 q 487 802 521 822 q 446 782 453 782 q 392 806 392 782 q 417 841 392 825 q 467 878 442 857 q 492 936 492 900 z "},"ē":{"ha":749,"x_min":64,"x_max":679,"o":"m 446 735 q 585 703 533 735 q 658 629 636 672 q 679 550 679 586 q 625 398 679 453 q 485 319 571 343 q 304 296 399 296 q 219 301 254 296 q 161 311 183 306 l 185 360 l 185 292 q 240 134 185 176 q 388 92 296 92 q 535 126 481 92 q 603 160 589 160 q 613 143 613 160 q 611 122 613 140 q 606 81 610 103 q 556 28 600 47 q 460 0 511 8 q 378 -8 408 -8 q 236 12 308 -8 q 114 94 164 32 q 64 279 64 156 q 153 600 64 465 q 446 735 242 735 m 433 635 q 259 564 313 635 q 192 396 206 493 l 290 396 q 376 402 311 396 q 500 438 442 408 q 558 539 558 467 q 526 606 558 578 q 433 635 493 635 m 593 949 q 617 913 617 949 q 612 876 617 901 q 582 850 607 850 l 268 850 q 244 888 244 850 q 249 924 244 899 q 279 949 254 949 l 593 949 z "},"ę":{"ha":749,"x_min":64,"x_max":679,"o":"m 446 735 q 585 703 533 735 q 658 629 636 672 q 679 550 679 586 q 625 398 679 453 q 485 319 571 343 q 304 296 399 296 q 219 301 254 296 q 161 311 183 306 l 185 360 l 185 292 q 240 134 185 176 q 388 92 296 92 q 535 126 481 92 q 603 160 589 160 q 613 143 613 160 q 611 122 613 140 q 606 81 610 103 q 556 28 600 47 q 460 0 511 8 q 378 -8 408 -8 q 236 12 308 -8 q 114 94 164 32 q 64 279 64 156 q 153 600 64 465 q 446 735 242 735 m 433 635 q 259 564 313 635 q 192 396 206 493 l 290 396 q 376 402 311 396 q 500 438 442 408 q 558 539 558 467 q 526 606 558 578 q 433 635 493 635 m 465 19 q 488 3 488 19 q 474 -41 488 -14 q 461 -97 461 -68 q 490 -148 461 -139 q 542 -157 519 -157 q 597 -144 574 -157 q 631 -132 621 -132 q 639 -150 639 -132 q 599 -236 639 -218 q 515 -254 560 -254 q 391 -210 417 -254 q 365 -131 365 -165 q 374 -78 365 -114 q 403 -11 382 -42 q 465 19 425 19 z "},"ẽ":{"ha":749,"x_min":64,"x_max":700,"o":"m 446 735 q 585 703 533 735 q 658 629 636 672 q 679 550 679 586 q 625 398 679 453 q 485 319 571 343 q 304 296 399 296 q 219 301 254 296 q 161 311 183 306 l 185 360 l 185 292 q 240 134 185 176 q 388 92 296 92 q 535 126 481 92 q 603 160 589 160 q 613 143 613 160 q 611 122 613 140 q 606 81 610 103 q 556 28 600 47 q 460 0 511 8 q 378 -8 408 -8 q 236 12 308 -8 q 114 94 164 32 q 64 279 64 156 q 153 600 64 465 q 446 735 242 735 m 433 635 q 259 564 313 635 q 192 396 206 493 l 290 396 q 376 402 311 396 q 500 438 442 408 q 558 539 558 467 q 526 606 558 578 q 433 635 493 635 z "},"f":{"ha":451,"x_min":83,"x_max":485,"o":"m 386 1050 q 444 1044 404 1050 q 485 1007 485 1039 q 473 968 485 996 q 449 940 461 940 q 431 945 444 940 q 386 950 417 950 q 331 933 354 950 q 303 853 308 915 l 290 726 l 411 726 q 433 700 433 726 q 422 661 433 696 q 371 626 411 626 l 279 626 l 217 28 q 158 -3 213 -3 l 153 -3 q 100 28 100 -3 l 163 626 l 107 626 q 83 664 83 626 q 88 701 83 675 q 118 726 93 726 l 174 726 l 188 867 q 265 1019 199 988 q 386 1050 331 1050 z "},"g":{"ha":758,"x_min":57,"x_max":694,"o":"m 406 735 q 519 708 472 735 q 589 660 565 682 q 611 710 600 690 q 651 729 622 729 l 660 729 q 694 700 694 729 l 635 138 q 526 -203 608 -111 q 296 -294 444 -294 q 123 -261 189 -294 q 57 -196 57 -228 q 64 -132 57 -144 q 76 -119 71 -119 q 138 -157 89 -119 q 296 -194 188 -194 q 453 -112 399 -194 q 522 167 508 -29 l 525 211 l 542 194 q 433 44 497 89 q 297 0 368 0 q 194 24 250 0 q 99 112 139 49 q 58 292 58 175 q 153 610 58 486 q 406 735 247 735 m 417 633 q 270 585 322 633 q 199 460 218 536 q 179 300 179 383 q 222 144 179 186 q 324 101 264 101 q 433 151 371 101 q 539 339 494 200 l 557 510 q 562 545 558 528 q 568 579 565 563 q 509 614 547 594 q 417 633 471 633 z "},"ğ":{"ha":758,"x_min":57,"x_max":694,"o":"m 406 735 q 519 708 472 735 q 589 660 565 682 q 611 710 600 690 q 651 729 622 729 l 660 729 q 694 700 694 729 l 635 138 q 526 -203 608 -111 q 296 -294 444 -294 q 123 -261 189 -294 q 57 -196 57 -228 q 64 -132 57 -144 q 76 -119 71 -119 q 138 -157 89 -119 q 296 -194 188 -194 q 453 -112 399 -194 q 522 167 508 -29 l 525 211 l 542 194 q 433 44 497 89 q 297 0 368 0 q 194 24 250 0 q 99 112 139 49 q 58 292 58 175 q 153 610 58 486 q 406 735 247 735 m 417 633 q 270 585 322 633 q 199 460 218 536 q 179 300 179 383 q 222 144 179 186 q 324 101 264 101 q 433 151 371 101 q 539 339 494 200 l 557 510 q 562 545 558 528 q 568 579 565 563 q 509 614 547 594 q 417 633 471 633 m 610 993 q 629 976 629 993 q 556 853 629 894 q 413 813 482 813 q 284 848 342 813 q 226 956 226 883 q 250 993 226 993 q 269 984 268 993 q 278 958 271 975 q 331 917 290 929 q 422 904 371 904 q 515 917 472 904 q 576 958 558 929 q 589 984 586 975 q 610 993 592 993 z "},"ĝ":{"ha":758,"x_min":57,"x_max":694,"o":"m 406 735 q 519 708 472 735 q 589 660 565 682 q 611 710 600 690 q 651 729 622 729 l 660 729 q 694 700 694 729 l 635 138 q 526 -203 608 -111 q 296 -294 444 -294 q 123 -261 189 -294 q 57 -196 57 -228 q 64 -132 57 -144 q 76 -119 71 -119 q 138 -157 89 -119 q 296 -194 188 -194 q 453 -112 399 -194 q 522 167 508 -29 l 525 211 l 542 194 q 433 44 497 89 q 297 0 368 0 q 194 24 250 0 q 99 112 139 49 q 58 292 58 175 q 153 610 58 486 q 406 735 247 735 m 417 633 q 270 585 322 633 q 199 460 218 536 q 179 300 179 383 q 222 144 179 186 q 324 101 264 101 q 433 151 371 101 q 539 339 494 200 l 557 510 q 562 545 558 528 q 568 579 565 563 q 509 614 547 594 q 417 633 471 633 m 440 997 q 476 990 460 997 q 501 967 493 982 l 567 844 q 574 821 574 833 q 538 800 571 800 l 535 800 q 490 818 508 800 l 414 921 l 318 818 q 296 804 307 808 q 269 800 285 800 l 267 800 q 238 817 238 800 q 247 844 238 829 l 339 967 q 367 990 350 982 q 406 997 385 997 l 440 997 z "},"ģ":{"ha":758,"x_min":57,"x_max":694,"o":"m 406 735 q 519 708 472 735 q 589 660 565 682 q 611 710 600 690 q 651 729 622 729 l 660 729 q 694 700 694 729 l 635 138 q 526 -203 608 -111 q 296 -294 444 -294 q 123 -261 189 -294 q 57 -196 57 -228 q 64 -132 57 -144 q 76 -119 71 -119 q 138 -157 89 -119 q 296 -194 188 -194 q 453 -112 399 -194 q 522 167 508 -29 l 525 211 l 542 194 q 433 44 497 89 q 297 0 368 0 q 194 24 250 0 q 99 112 139 49 q 58 292 58 175 q 153 610 58 486 q 406 735 247 735 m 417 633 q 270 585 322 633 q 199 460 218 536 q 179 300 179 383 q 222 144 179 186 q 324 101 264 101 q 433 151 371 101 q 539 339 494 200 l 557 510 q 562 545 558 528 q 568 579 565 563 q 509 614 547 594 q 417 633 471 633 z "},"ġ":{"ha":758,"x_min":57,"x_max":694,"o":"m 406 735 q 519 708 472 735 q 589 660 565 682 q 611 710 600 690 q 651 729 622 729 l 660 729 q 694 700 694 729 l 635 138 q 526 -203 608 -111 q 296 -294 444 -294 q 123 -261 189 -294 q 57 -196 57 -228 q 64 -132 57 -144 q 76 -119 71 -119 q 138 -157 89 -119 q 296 -194 188 -194 q 453 -112 399 -194 q 522 167 508 -29 l 525 211 l 542 194 q 433 44 497 89 q 297 0 368 0 q 194 24 250 0 q 99 112 139 49 q 58 292 58 175 q 153 610 58 486 q 406 735 247 735 m 417 633 q 270 585 322 633 q 199 460 218 536 q 179 300 179 383 q 222 144 179 186 q 324 101 264 101 q 433 151 371 101 q 539 339 494 200 l 557 510 q 562 545 558 528 q 568 579 565 563 q 509 614 547 594 q 417 633 471 633 m 429 975 q 482 944 482 975 l 475 874 q 411 843 471 843 q 358 874 358 843 l 365 944 q 429 975 369 975 z "},"h":{"ha":785,"x_min":75,"x_max":733,"o":"m 243 1044 q 296 1014 296 1044 l 251 600 q 369 704 307 674 q 494 735 432 735 q 637 683 596 735 q 678 554 678 631 q 672 487 678 546 q 658 353 665 428 q 644 219 650 279 q 638 149 638 160 q 654 99 638 106 q 688 92 671 92 q 710 95 700 92 q 725 99 719 99 q 733 89 733 99 q 733 74 733 88 q 728 38 732 61 q 693 1 722 11 q 644 -8 664 -8 q 519 128 519 -8 q 525 204 519 144 q 539 335 531 264 q 553 461 547 406 q 558 526 558 517 q 453 633 558 633 q 342 590 407 633 q 232 413 278 546 l 192 28 q 133 -3 188 -3 l 128 -3 q 75 26 75 -3 l 179 1014 q 238 1044 183 1044 l 243 1044 z "},"ħ":{"ha":785,"x_min":75,"x_max":733,"o":"m 243 1044 q 296 1014 296 1044 l 251 600 q 369 704 307 674 q 494 735 432 735 q 637 683 596 735 q 678 554 678 631 q 672 487 678 546 q 658 353 665 428 q 644 219 650 279 q 638 149 638 160 q 654 99 638 106 q 688 92 671 92 q 710 95 700 92 q 725 99 719 99 q 733 89 733 99 q 733 74 733 88 q 728 38 732 61 q 693 1 722 11 q 644 -8 664 -8 q 519 128 519 -8 q 525 204 519 144 q 539 335 531 264 q 553 461 547 406 q 558 526 558 517 q 453 633 558 633 q 342 590 407 633 q 232 413 278 546 l 192 28 q 133 -3 188 -3 l 128 -3 q 75 26 75 -3 l 179 1014 q 238 1044 183 1044 l 243 1044 z "},"ĥ":{"ha":785,"x_min":75,"x_max":733,"o":"m 243 1044 q 296 1014 296 1044 l 251 600 q 369 704 307 674 q 494 735 432 735 q 637 683 596 735 q 678 554 678 631 q 672 487 678 546 q 658 353 665 428 q 644 219 650 279 q 638 149 638 160 q 654 99 638 106 q 688 92 671 92 q 710 95 700 92 q 725 99 719 99 q 733 89 733 99 q 733 74 733 88 q 728 38 732 61 q 693 1 722 11 q 644 -8 664 -8 q 519 128 519 -8 q 525 204 519 144 q 539 335 531 264 q 553 461 547 406 q 558 526 558 517 q 453 633 558 633 q 342 590 407 633 q 232 413 278 546 l 192 28 q 133 -3 188 -3 l 128 -3 q 75 26 75 -3 l 179 1014 q 238 1044 183 1044 l 243 1044 m 283 1285 q 319 1277 303 1285 q 344 1254 336 1269 l 410 1132 q 417 1108 417 1121 q 381 1088 414 1088 l 378 1088 q 333 1106 351 1088 l 257 1208 l 161 1106 q 139 1092 150 1096 q 113 1088 128 1088 l 110 1088 q 81 1104 81 1088 q 90 1132 81 1117 l 182 1254 q 210 1277 193 1269 q 249 1285 228 1285 l 283 1285 z "},"ḥ":{"ha":785,"x_min":75,"x_max":733,"o":"m 243 1044 q 296 1014 296 1044 l 251 600 q 369 704 307 674 q 494 735 432 735 q 637 683 596 735 q 678 554 678 631 q 672 487 678 546 q 658 353 665 428 q 644 219 650 279 q 638 149 638 160 q 654 99 638 106 q 688 92 671 92 q 710 95 700 92 q 725 99 719 99 q 733 89 733 99 q 733 74 733 88 q 728 38 732 61 q 693 1 722 11 q 644 -8 664 -8 q 519 128 519 -8 q 525 204 519 144 q 539 335 531 264 q 553 461 547 406 q 558 526 558 517 q 453 633 558 633 q 342 590 407 633 q 232 413 278 546 l 192 28 q 133 -3 188 -3 l 128 -3 q 75 26 75 -3 l 179 1014 q 238 1044 183 1044 l 243 1044 z "},"i":{"ha":368,"x_min":88,"x_max":300,"o":"m 208 729 q 261 699 261 729 q 256 647 261 699 q 242 517 250 594 q 225 360 233 440 q 211 220 217 279 q 206 149 206 161 q 222 99 206 106 q 254 92 238 92 q 276 95 267 92 q 292 99 286 99 q 300 89 300 99 q 299 74 300 88 q 294 38 299 61 q 260 1 289 11 q 211 -8 231 -8 q 88 124 88 -8 q 93 203 88 140 q 107 350 99 267 q 124 513 115 433 q 138 646 132 593 q 144 699 143 699 q 203 729 149 729 l 208 729 m 247 1044 q 300 1014 300 1044 l 292 932 q 239 901 292 901 l 222 901 q 164 932 164 901 l 172 1014 q 231 1044 176 1044 l 247 1044 z "},"ı":{"ha":368,"x_min":88,"x_max":300,"o":"m 208 729 q 261 699 261 729 q 256 647 261 699 q 242 517 250 594 q 225 360 233 440 q 211 220 217 279 q 206 149 206 161 q 222 99 206 106 q 254 92 238 92 q 276 95 267 92 q 292 99 286 99 q 300 89 300 99 q 299 74 300 88 q 294 38 299 61 q 260 1 289 11 q 211 -8 231 -8 q 88 124 88 -8 q 93 203 88 140 q 107 350 99 267 q 124 513 115 433 q 138 646 132 593 q 144 699 143 699 q 203 729 149 729 l 208 729 z "},"í":{"ha":368,"x_min":88,"x_max":401,"o":"m 208 729 q 261 699 261 729 q 256 647 261 699 q 242 517 250 594 q 225 360 233 440 q 211 220 217 279 q 206 149 206 161 q 222 99 206 106 q 254 92 238 92 q 276 95 267 92 q 292 99 286 99 q 300 89 300 99 q 299 74 300 88 q 294 38 299 61 q 260 1 289 11 q 211 -8 231 -8 q 88 124 88 -8 q 93 203 88 140 q 107 350 99 267 q 124 513 115 433 q 138 646 132 593 q 144 699 143 699 q 203 729 149 729 l 208 729 m 336 1017 q 401 1000 401 1017 q 392 980 401 992 q 352 937 383 968 q 254 838 321 906 q 222 819 242 825 q 181 813 201 813 q 150 825 150 813 q 168 865 150 835 q 246 981 186 894 q 281 1008 260 1000 q 336 1017 303 1017 z "},"ĭ":{"ha":368,"x_min":24,"x_max":426,"o":"m 208 729 q 261 699 261 729 q 256 647 261 699 q 242 517 250 594 q 225 360 233 440 q 211 220 217 279 q 206 149 206 161 q 222 99 206 106 q 254 92 238 92 q 276 95 267 92 q 292 99 286 99 q 300 89 300 99 q 299 74 300 88 q 294 38 299 61 q 260 1 289 11 q 211 -8 231 -8 q 88 124 88 -8 q 93 203 88 140 q 107 350 99 267 q 124 513 115 433 q 138 646 132 593 q 144 699 143 699 q 203 729 149 729 l 208 729 m 407 993 q 426 976 426 993 q 353 853 426 894 q 210 813 279 813 q 81 848 139 813 q 24 956 24 883 q 47 993 24 993 q 67 984 65 993 q 75 958 68 975 q 128 917 88 929 q 219 904 168 904 q 313 917 269 904 q 374 958 356 929 q 386 984 383 975 q 407 993 389 993 z "},"î":{"ha":368,"x_min":35,"x_max":371,"o":"m 208 729 q 261 699 261 729 q 256 647 261 699 q 242 517 250 594 q 225 360 233 440 q 211 220 217 279 q 206 149 206 161 q 222 99 206 106 q 254 92 238 92 q 276 95 267 92 q 292 99 286 99 q 300 89 300 99 q 299 74 300 88 q 294 38 299 61 q 260 1 289 11 q 211 -8 231 -8 q 88 124 88 -8 q 93 203 88 140 q 107 350 99 267 q 124 513 115 433 q 138 646 132 593 q 144 699 143 699 q 203 729 149 729 l 208 729 m 238 997 q 274 990 257 997 q 299 967 290 982 l 364 844 q 371 821 371 833 q 335 800 368 800 l 332 800 q 288 818 306 800 l 211 921 l 115 818 q 93 804 104 808 q 67 800 82 800 l 64 800 q 35 817 35 800 q 44 844 35 829 l 136 967 q 165 990 147 982 q 203 997 182 997 l 238 997 z "},"ï":{"ha":368,"x_min":56,"x_max":379,"o":"m 208 729 q 261 699 261 729 q 256 647 261 699 q 242 517 250 594 q 225 360 233 440 q 211 220 217 279 q 206 149 206 161 q 222 99 206 106 q 254 92 238 92 q 276 95 267 92 q 292 99 286 99 q 300 89 300 99 q 299 74 300 88 q 294 38 299 61 q 260 1 289 11 q 211 -8 231 -8 q 88 124 88 -8 q 93 203 88 140 q 107 350 99 267 q 124 513 115 433 q 138 646 132 593 q 144 699 143 699 q 203 729 149 729 l 208 729 m 326 975 q 379 944 379 975 l 372 874 q 308 843 368 843 q 256 874 256 843 l 263 944 q 326 975 265 975 m 126 975 q 179 944 179 975 l 172 874 q 108 843 168 843 q 56 874 56 843 l 63 944 q 126 975 67 975 z "},"ị":{"ha":368,"x_min":72,"x_max":300,"o":"m 208 729 q 261 699 261 729 q 256 647 261 699 q 242 517 250 594 q 225 360 233 440 q 211 220 217 279 q 206 149 206 161 q 222 99 206 106 q 254 92 238 92 q 276 95 267 92 q 292 99 286 99 q 300 89 300 99 q 299 74 300 88 q 294 38 299 61 q 260 1 289 11 q 211 -8 231 -8 q 88 124 88 -8 q 93 203 88 140 q 107 350 99 267 q 124 513 115 433 q 138 646 132 593 q 144 699 143 699 q 203 729 149 729 l 208 729 m 247 1044 q 300 1014 300 1044 l 292 932 q 239 901 292 901 l 222 901 q 164 932 164 901 l 172 1014 q 231 1044 176 1044 l 247 1044 z "},"ì":{"ha":368,"x_min":38,"x_max":300,"o":"m 208 729 q 261 699 261 729 q 256 647 261 699 q 242 517 250 594 q 225 360 233 440 q 211 220 217 279 q 206 149 206 161 q 222 99 206 106 q 254 92 238 92 q 276 95 267 92 q 292 99 286 99 q 300 89 300 99 q 299 74 300 88 q 294 38 299 61 q 260 1 289 11 q 211 -8 231 -8 q 88 124 88 -8 q 93 203 88 140 q 107 350 99 267 q 124 513 115 433 q 138 646 132 593 q 144 699 143 699 q 203 729 149 729 l 208 729 m 104 1017 q 158 1008 138 1017 q 190 981 179 1000 q 256 864 242 893 q 271 825 271 835 q 239 813 271 813 q 199 819 218 813 q 168 838 179 825 q 58 963 79 939 q 38 1000 38 988 q 104 1017 39 1017 z "},"ỉ":{"ha":368,"x_min":88,"x_max":356,"o":"m 208 729 q 261 699 261 729 q 256 647 261 699 q 242 517 250 594 q 225 360 233 440 q 211 220 217 279 q 206 149 206 161 q 222 99 206 106 q 254 92 238 92 q 276 95 267 92 q 292 99 286 99 q 300 89 300 99 q 299 74 300 88 q 294 38 299 61 q 260 1 289 11 q 211 -8 231 -8 q 88 124 88 -8 q 93 203 88 140 q 107 350 99 267 q 124 513 115 433 q 138 646 132 593 q 144 699 143 699 q 203 729 149 729 l 208 729 m 264 936 q 217 971 264 971 q 170 962 185 971 q 150 953 156 953 q 132 971 142 953 q 122 999 122 989 q 160 1027 122 1013 q 235 1042 199 1042 q 313 1021 269 1042 q 356 944 356 1000 q 324 859 356 896 q 259 802 293 822 q 218 782 225 782 q 164 806 164 782 q 189 841 164 825 q 239 878 214 857 q 264 936 264 900 z "},"ĳ":{"ha":751,"x_min":88,"x_max":690,"o":"m 208 729 q 261 699 261 729 q 256 647 261 699 q 242 517 250 594 q 225 360 233 440 q 211 220 217 279 q 206 149 206 161 q 222 99 206 106 q 254 92 238 92 q 276 95 267 92 q 292 99 286 99 q 300 89 300 99 q 299 74 300 88 q 294 38 299 61 q 260 1 289 11 q 211 -8 231 -8 q 88 124 88 -8 q 93 203 88 140 q 107 350 99 267 q 124 513 115 433 q 138 646 132 593 q 144 699 143 699 q 203 729 149 729 l 208 729 m 247 1044 q 300 1014 300 1044 l 292 932 q 239 901 292 901 l 222 901 q 164 932 164 901 l 172 1014 q 231 1044 176 1044 l 247 1044 m 599 729 q 651 699 651 729 l 567 -103 q 495 -259 554 -224 q 383 -294 436 -294 q 305 -278 335 -294 q 275 -237 275 -262 q 280 -183 275 -194 q 290 -171 285 -171 q 315 -183 299 -171 q 368 -194 332 -194 q 423 -174 400 -194 q 451 -92 446 -154 l 535 699 q 593 729 539 729 l 599 729 m 638 1044 q 690 1014 690 1044 l 682 932 q 629 901 682 901 l 613 901 q 554 932 554 901 l 563 1014 q 621 1044 567 1044 l 638 1044 z "},"ī":{"ha":368,"x_min":17,"x_max":389,"o":"m 208 729 q 261 699 261 729 q 256 647 261 699 q 242 517 250 594 q 225 360 233 440 q 211 220 217 279 q 206 149 206 161 q 222 99 206 106 q 254 92 238 92 q 276 95 267 92 q 292 99 286 99 q 300 89 300 99 q 299 74 300 88 q 294 38 299 61 q 260 1 289 11 q 211 -8 231 -8 q 88 124 88 -8 q 93 203 88 140 q 107 350 99 267 q 124 513 115 433 q 138 646 132 593 q 144 699 143 699 q 203 729 149 729 l 208 729 m 365 949 q 389 913 389 949 q 384 876 389 901 q 354 850 379 850 l 40 850 q 17 888 17 850 q 22 924 17 899 q 51 949 26 949 l 365 949 z "},"į":{"ha":368,"x_min":88,"x_max":382,"o":"m 208 729 q 261 699 261 729 q 256 647 261 699 q 242 517 250 594 q 225 360 233 440 q 211 220 217 279 q 206 149 206 161 q 222 99 206 106 q 254 92 238 92 q 276 95 267 92 q 292 99 286 99 q 300 89 300 99 q 299 74 300 88 q 294 38 299 61 q 260 1 289 11 q 211 -8 231 -8 q 88 124 88 -8 q 93 203 88 140 q 107 350 99 267 q 124 513 115 433 q 138 646 132 593 q 144 699 143 699 q 203 729 149 729 l 208 729 m 247 1044 q 300 1014 300 1044 l 292 932 q 239 901 292 901 l 222 901 q 164 932 164 901 l 172 1014 q 231 1044 176 1044 l 247 1044 m 208 19 q 231 3 231 19 q 217 -41 231 -14 q 204 -97 204 -68 q 233 -148 204 -139 q 285 -157 263 -157 q 340 -144 317 -157 q 374 -132 364 -132 q 382 -150 382 -132 q 342 -236 382 -218 q 258 -254 303 -254 q 134 -210 160 -254 q 108 -131 108 -165 q 117 -78 108 -114 q 147 -11 125 -42 q 208 19 168 19 z "},"ĩ":{"ha":368,"x_min":-10,"x_max":446,"o":"m 208 729 q 261 699 261 729 q 256 647 261 699 q 242 517 250 594 q 225 360 233 440 q 211 220 217 279 q 206 149 206 161 q 222 99 206 106 q 254 92 238 92 q 276 95 267 92 q 292 99 286 99 q 300 89 300 99 q 299 74 300 88 q 294 38 299 61 q 260 1 289 11 q 211 -8 231 -8 q 88 124 88 -8 q 93 203 88 140 q 107 350 99 267 q 124 513 115 433 q 138 646 132 593 q 144 699 143 699 q 203 729 149 729 l 208 729 z "},"j":{"ha":383,"x_min":-93,"x_max":322,"o":"m 231 729 q 283 699 283 729 l 199 -103 q 127 -259 186 -224 q 15 -294 68 -294 q -63 -278 -33 -294 q -93 -237 -93 -262 q -88 -183 -93 -194 q -78 -171 -83 -171 q -53 -183 -69 -171 q 0 -194 -36 -194 q 55 -174 32 -194 q 83 -92 78 -154 l 167 699 q 225 729 171 729 l 231 729 m 269 1044 q 322 1014 322 1044 l 314 932 q 261 901 314 901 l 244 901 q 186 932 186 901 l 194 1014 q 253 1044 199 1044 l 269 1044 z "},"ȷ":{"ha":383,"x_min":-93,"x_max":283,"o":"m 231 729 q 283 699 283 729 l 199 -103 q 127 -259 186 -224 q 15 -294 68 -294 q -63 -278 -33 -294 q -93 -237 -93 -262 q -88 -183 -93 -194 q -78 -171 -83 -171 q -53 -183 -69 -171 q 0 -194 -36 -194 q 55 -174 32 -194 q 83 -92 78 -154 l 167 699 q 225 729 171 729 l 231 729 z "},"ĵ":{"ha":383,"x_min":-93,"x_max":397,"o":"m 231 729 q 283 699 283 729 l 199 -103 q 127 -259 186 -224 q 15 -294 68 -294 q -63 -278 -33 -294 q -93 -237 -93 -262 q -88 -183 -93 -194 q -78 -171 -83 -171 q -53 -183 -69 -171 q 0 -194 -36 -194 q 55 -174 32 -194 q 83 -92 78 -154 l 167 699 q 225 729 171 729 l 231 729 m 264 997 q 300 990 283 997 q 325 967 317 982 l 390 844 q 397 821 397 833 q 361 800 394 800 l 358 800 q 314 818 332 800 l 238 921 l 142 818 q 119 804 131 808 q 93 800 108 800 l 90 800 q 61 817 61 800 q 71 844 61 829 l 163 967 q 191 990 174 982 q 229 997 208 997 l 264 997 z "},"k":{"ha":724,"x_min":75,"x_max":675,"o":"m 243 1044 q 296 1014 296 1044 l 231 393 l 236 393 l 547 710 q 579 725 558 721 q 622 729 600 729 l 628 729 q 675 713 675 729 q 658 683 675 700 l 356 378 l 635 39 q 644 19 644 25 q 631 1 644 6 q 582 -3 617 -3 l 576 -3 q 533 0 553 -3 q 503 15 513 3 l 231 344 l 225 344 l 192 28 q 133 -3 188 -3 l 128 -3 q 75 28 75 -3 l 179 1014 q 238 1044 182 1044 l 243 1044 z "},"ķ":{"ha":724,"x_min":75,"x_max":675,"o":"m 243 1044 q 296 1014 296 1044 l 231 393 l 236 393 l 547 710 q 579 725 558 721 q 622 729 600 729 l 628 729 q 675 713 675 729 q 658 683 675 700 l 356 378 l 635 39 q 644 19 644 25 q 631 1 644 6 q 582 -3 617 -3 l 576 -3 q 533 0 553 -3 q 503 15 513 3 l 231 344 l 225 344 l 192 28 q 133 -3 188 -3 l 128 -3 q 75 28 75 -3 l 179 1014 q 238 1044 182 1044 l 243 1044 m 339 -71 q 378 -81 365 -71 q 390 -110 390 -92 q 358 -201 390 -150 q 287 -289 326 -251 q 224 -326 247 -326 q 199 -322 213 -326 q 186 -306 186 -318 q 226 -228 186 -274 q 265 -115 265 -182 q 326 -71 265 -71 l 339 -71 z "},"ĸ":{"ha":724,"x_min":75,"x_max":675,"o":"m 210 731 q 263 700 263 731 l 231 393 l 236 393 l 547 710 q 579 725 558 721 q 622 729 600 729 l 628 729 q 675 713 675 729 q 658 683 675 700 l 356 378 l 635 39 q 644 19 644 25 q 631 1 644 6 q 582 -3 617 -3 l 576 -3 q 533 0 553 -3 q 503 15 513 3 l 231 344 l 225 344 l 192 28 q 133 -3 188 -3 l 128 -3 q 75 28 75 -3 l 146 700 q 204 731 149 731 l 210 731 z "},"l":{"ha":413,"x_min":106,"x_max":319,"o":"m 260 1044 q 313 1014 313 1044 q 303 931 313 1014 q 281 722 294 847 q 255 470 268 597 q 233 252 242 343 q 224 149 224 161 q 240 99 224 106 q 274 92 257 92 q 296 95 286 92 q 311 99 306 99 q 319 89 319 99 q 319 74 319 88 q 314 38 318 61 q 279 1 308 11 q 231 -8 250 -8 q 106 128 106 -8 q 115 242 106 147 q 137 465 124 336 q 164 719 150 593 q 187 928 178 844 q 196 1014 196 1013 q 254 1044 200 1044 l 260 1044 z "},"ĺ":{"ha":413,"x_min":106,"x_max":454,"o":"m 260 1044 q 313 1014 313 1044 q 303 931 313 1014 q 281 722 294 847 q 255 470 268 597 q 233 252 242 343 q 224 149 224 161 q 240 99 224 106 q 274 92 257 92 q 296 95 286 92 q 311 99 306 99 q 319 89 319 99 q 319 74 319 88 q 314 38 318 61 q 279 1 308 11 q 231 -8 250 -8 q 106 128 106 -8 q 115 242 106 147 q 137 465 124 336 q 164 719 150 593 q 187 928 178 844 q 196 1014 196 1013 q 254 1044 200 1044 l 260 1044 m 389 1290 q 454 1274 454 1290 q 445 1253 454 1265 q 405 1210 436 1242 q 307 1111 374 1179 q 274 1092 294 1099 q 233 1086 254 1086 q 203 1099 203 1086 q 221 1138 203 1108 q 299 1254 239 1168 q 334 1282 313 1274 q 389 1290 356 1290 z "},"ľ":{"ha":413,"x_min":106,"x_max":497,"o":"m 260 1044 q 313 1014 313 1044 q 303 931 313 1014 q 281 722 294 847 q 255 470 268 597 q 233 252 242 343 q 224 149 224 161 q 240 99 224 106 q 274 92 257 92 q 296 95 286 92 q 311 99 306 99 q 319 89 319 99 q 319 74 319 88 q 314 38 318 61 q 279 1 308 11 q 231 -8 250 -8 q 106 128 106 -8 q 115 242 106 147 q 137 465 124 336 q 164 719 150 593 q 187 928 178 844 q 196 1014 196 1013 q 254 1044 200 1044 l 260 1044 m 446 1044 q 485 1034 472 1044 q 497 1006 497 1024 q 473 926 497 971 q 419 849 449 882 q 372 817 389 817 q 348 821 361 817 q 335 838 335 825 q 353 905 335 865 q 372 1000 372 944 q 433 1044 372 1044 l 446 1044 z "}}}
